;TYPE=PLATED
;Layer: PTH_Through
;EasyEDA Pro v2.2.46.11, 2026-04-04 14:23:12
;Gerber Generator version 0.3
M48
METRIC,LZ,0000.00000
;Hole size 1 = 0.30500 METRIC
T01C0.30500
;Hole size 2 = 0.70002 METRIC
T02C0.70002
;Hole size 3 = 0.70099 METRIC
T03C0.70099
;Hole size 4 = 0.90002 METRIC
T04C0.90002
;Hole size 5 = 0.91440 METRIC
T05C0.91440
;Hole size 6 = 1.00000 METRIC
T06C1.00000
;Hole size 7 = 1.04999 METRIC
T07C1.04999
;Hole size 8 = 1.10002 METRIC
T08C1.10002
;Hole size 9 = 1.19990 METRIC
T09C1.19990
;Hole size 10 = 1.20000 METRIC
T10C1.20000
;Hole size 11 = 1.50002 METRIC
T11C1.50002
;Hole size 12 = 1.52400 METRIC
T12C1.52400
;Hole size 13 = 1.77800 METRIC
T13C1.77800
%
G05
G90
T01
X34.036Y-62.782
X29.083Y-64.262
X29.083Y-61.468
X22.733Y-56.388
X35.052Y-62.782
X68.072Y-54.229
T02
X33.274Y-69.088
X32.004Y-69.088
X30.734Y-69.088
T03
X70.866Y-31.385
X70.866Y-33.385
T04
X26.797Y-60.452
X35.79701Y-60.452
X17.145Y-71.80999
X17.145Y-62.80998
T05
X47.498Y-31.623
X44.958Y-31.623
X42.418Y-31.623
X39.878Y-31.623
X37.338Y-31.623
X34.798Y-31.623
X32.258Y-31.623
X29.718Y-31.623
X27.178Y-31.623
X24.638Y-31.623
X22.098Y-31.623
X19.558Y-31.623
X17.018Y-31.623
X14.478Y-31.623
X11.938Y-31.623
X9.398Y-31.623
X6.858Y-31.623
X4.318Y-31.623
X1.778Y-31.623
X47.498Y-54.483
X44.958Y-54.483
X42.418Y-54.483
X39.878Y-54.483
X37.338Y-54.483
X34.798Y-54.483
X32.258Y-54.483
X29.718Y-54.483
X27.178Y-54.483
X24.638Y-54.483
X22.098Y-54.483
X19.558Y-54.483
X17.018Y-54.483
X14.478Y-54.483
X11.938Y-54.483
X9.398Y-54.483
X6.858Y-54.483
X4.318Y-54.483
X1.778Y-54.483
X71.501Y-53.60104
X71.501Y-51.06104
X71.501Y-48.52104
X71.501Y-45.98104
X71.501Y-43.44104
X71.501Y-40.90104
T06
X18.67136Y-77.851
X23.67135Y-77.851
X29.84736Y-77.851
X34.84735Y-77.851
X41.02336Y-77.851
X46.02335Y-77.851
X52.19936Y-77.851
X57.19935Y-77.851
X60.49188Y-31.369
X65.49187Y-31.369
T07
X64.008Y-37.211
X64.008Y-39.751
X64.008Y-42.291
X64.008Y-44.831
X64.008Y-47.371
X64.008Y-49.911
X64.008Y-52.451
X64.008Y-54.991
X64.008Y-57.531
T08
X36.83Y-62.95995
X36.83Y-71.66005
T09
X7.61997Y-63.98197
X7.61997Y-71.60197
X17.907Y-12.14539
X17.907Y-19.64347
T10
X70.961Y-25.22588
X70.961Y-9.82589
X41.561Y-20.02587
X41.561Y-15.02588
X21.717Y-71.12
X24.257Y-71.12
X26.797Y-71.12
X26.797Y-63.5
X24.257Y-63.5
X21.717Y-63.5
T11
X31.115Y-5.175
X31.115Y-26.575
X70.49046Y-67.31004
X70.49092Y-62.22976
X70.49046Y-72.17
T12
X55.35994Y-73.30949
X41.15999Y-67.31001
X43.16001Y-61.31002
X43.16001Y-73.31
X55.36001Y-61.31053
T13
X23.71148Y-84.23852
X18.63148Y-84.23852
X34.88748Y-84.23852
X29.80748Y-84.23852
X46.06348Y-84.23852
X40.98348Y-84.23852
X57.23948Y-84.23852
X52.15948Y-84.23852
X7.112Y-13.335
X7.112Y-18.415
M30