G04 Layer: BottomSolderMaskLayer*
G04 EasyEDA Pro v2.2.46.11, 2026-04-04 14:23:12*
G04 Gerber Generator version 0.3*
G04 Scale: 100 percent, Rotated: No, Reflected: No*
G04 Dimensions in millimeters*
G04 Leading zeros omitted, absolute positions, 4 integers and 5 decimals*
G04 Generated by one-click*
%FSLAX45Y45*%
%MOMM*%
%AMRoundRect*1,1,$1,$2,$3*1,1,$1,$4,$5*1,1,$1,0-$2,0-$3*1,1,$1,0-$4,0-$5*20,1,$1,$2,$3,$4,$5,0*20,1,$1,$4,$5,0-$2,0-$3,0*20,1,$1,0-$2,0-$3,0-$4,0-$5,0*20,1,$1,0-$4,0-$5,$2,$3,0*4,1,4,$2,$3,$4,$5,0-$2,0-$3,0-$4,0-$5,$2,$3,0*%
%ADD10C,1.9016*%
%ADD11O,1.0016X1.7016*%
%ADD12RoundRect,0.09224X-0.45468X0.80468X0.45468X0.80468*%
%ADD13C,2.1016*%
%ADD14C,2.8956*%
%ADD15RoundRect,0.09691X-1.00234X-1.00234X-1.00234X1.00234*%
%ADD16O,3.1496X3.9116*%
%ADD17O,3.9116X3.1496*%
%ADD18C,3.2043*%
%ADD19C,3.20319*%
%ADD20C,1.6256*%
%ADD21RoundRect,0.09444X-0.80278X-0.80278X-0.80278X0.80278*%
%ADD22C,1.7*%
%ADD23C,1.7016*%
%ADD24C,2.4*%
%ADD25C,1.15311*%
%ADD26RoundRect,0.19108X-1.50606X-1.50606X-1.50606X1.50606*%
G75*


G04 Pad Start*
G54D10*
G01X762000Y-6398197D03*
G01X762000Y-7160197D03*
G54D11*
G01X3327400Y-6908800D03*
G01X3200400Y-6908800D03*
G54D12*
G01X3073400Y-6908800D03*
G54D13*
G01X1790700Y-1214542D03*
G01X1790700Y-1964350D03*
G54D14*
G01X5536006Y-7330949D03*
G01X4115994Y-6731001D03*
G01X4315993Y-6131002D03*
G01X4315993Y-7331000D03*
G01X5536006Y-6131053D03*
G54D13*
G01X7096100Y-2522601D03*
G01X7096100Y-982599D03*
G01X4156100Y-2002587D03*
G01X4156100Y-1502588D03*
G54D15*
G01X2171700Y-7112000D03*
G54D13*
G01X2425700Y-7112000D03*
G01X2679700Y-7112000D03*
G01X2679700Y-6350000D03*
G01X2425700Y-6350000D03*
G01X2171700Y-6350000D03*
G54D16*
G01X2371148Y-8423852D03*
G01X1863148Y-8423852D03*
G01X3488748Y-8423852D03*
G01X2980748Y-8423852D03*
G01X4606348Y-8423852D03*
G01X4098348Y-8423852D03*
G01X5723948Y-8423852D03*
G01X5215948Y-8423852D03*
G54D17*
G01X711200Y-1333500D03*
G01X711200Y-1841500D03*
G54D19*
G01X3111500Y-517500D03*
G01X3111500Y-2657500D03*
G54D20*
G01X4749800Y-3162300D03*
G01X4495800Y-3162300D03*
G01X4241800Y-3162300D03*
G01X3987800Y-3162300D03*
G01X3733800Y-3162300D03*
G01X3479800Y-3162300D03*
G01X3225800Y-3162300D03*
G01X2971800Y-3162300D03*
G01X2717800Y-3162300D03*
G01X2463800Y-3162300D03*
G01X2209800Y-3162300D03*
G01X1955800Y-3162300D03*
G01X1701800Y-3162300D03*
G01X1447800Y-3162300D03*
G01X1193800Y-3162300D03*
G01X939800Y-3162300D03*
G01X685800Y-3162300D03*
G01X431800Y-3162300D03*
G01X177800Y-3162300D03*
G01X4749800Y-5448300D03*
G01X4495800Y-5448300D03*
G01X4241800Y-5448300D03*
G01X3987800Y-5448300D03*
G01X3733800Y-5448300D03*
G01X3479800Y-5448300D03*
G01X3225800Y-5448300D03*
G01X2971800Y-5448300D03*
G01X2717800Y-5448300D03*
G01X2463800Y-5448300D03*
G01X2209800Y-5448300D03*
G01X1955800Y-5448300D03*
G01X1701800Y-5448300D03*
G01X1447800Y-5448300D03*
G01X1193800Y-5448300D03*
G01X939800Y-5448300D03*
G01X685800Y-5448300D03*
G01X431800Y-5448300D03*
G01X177800Y-5448300D03*
G01X7150100Y-5360104D03*
G01X7150100Y-5106104D03*
G01X7150100Y-4852104D03*
G01X7150100Y-4598104D03*
G01X7150100Y-4344104D03*
G01X7150100Y-4090104D03*
G54D21*
G01X6400800Y-3721100D03*
G54D22*
G01X6400800Y-3975100D03*
G01X6400800Y-4229100D03*
G01X6400800Y-4483100D03*
G01X6400800Y-4737100D03*
G01X6400800Y-4991100D03*
G01X6400800Y-5245100D03*
G01X6400800Y-5499100D03*
G01X6400800Y-5753100D03*
G54D23*
G01X1867149Y-7785100D03*
G01X2367148Y-7785100D03*
G01X2984749Y-7785100D03*
G01X3484748Y-7785100D03*
G01X4102349Y-7785100D03*
G01X4602348Y-7785100D03*
G01X5219949Y-7785100D03*
G01X5719948Y-7785100D03*
G54D24*
G01X2679700Y-6045200D03*
G01X3579698Y-6045200D03*
G54D25*
G01X7086600Y-3138500D03*
G01X7086600Y-3338500D03*
G54D23*
G01X6049201Y-3136900D03*
G01X6549200Y-3136900D03*
G54D10*
G01X3683000Y-6296000D03*
G01X3683000Y-7166000D03*
G54D24*
G01X1714500Y-7180999D03*
G01X1714500Y-6281001D03*
G54D19*
G01X7049110Y-6730986D03*
G54D26*
G01X7049084Y-6222986D03*
G54D19*
G01X7049084Y-7217015D03*
G04 Pad End*

M02*

