G04 Layer: TopLayer*
G04 EasyEDA Pro v2.2.46.11, 2026-04-04 14:23:12*
G04 Gerber Generator version 0.3*
G04 Scale: 100 percent, Rotated: No, Reflected: No*
G04 Dimensions in millimeters*
G04 Leading zeros omitted, absolute positions, 4 integers and 5 decimals*
G04 Generated by one-click*
%FSLAX45Y45*%
%MOMM*%
%ADD10C,0.2032*%
%ADD11C,0.254*%
%ADD12C,1.8*%
%ADD13O,0.9X1.6*%
%ADD14R,0.9X1.6*%
%ADD15C,2.0087*%
%ADD16C,2.0*%
%ADD17C,2.794*%
%ADD18R,2.0X2.0*%
%ADD19O,3.048X3.81*%
%ADD20O,3.81X3.048*%
%ADD21C,2.99999*%
%ADD22C,1.524*%
%ADD23R,1.6X1.6*%
%ADD24C,1.6*%
%ADD25C,1.05151*%
%ADD26R,2.99999X2.99999*%
%ADD27C,0.61*%
G75*


G04 Copper Start*
G36*
G01X7520686Y-48514D02*
G01X7520686Y-8790686D01*
G01X48514Y-8790686D01*
G01X48514Y-8510000D01*
G01X114186Y-8510000D01*
G01X116077Y-8536444D01*
G01X121713Y-8562350D01*
G01X130978Y-8587190D01*
G01X143683Y-8610459D01*
G01X159571Y-8631682D01*
G01X178318Y-8650429D01*
G01X199541Y-8666317D01*
G01X222810Y-8679022D01*
G01X247650Y-8688287D01*
G01X273556Y-8693923D01*
G01X300000Y-8695814D01*
G01X326444Y-8693923D01*
G01X352350Y-8688287D01*
G01X377190Y-8679022D01*
G01X400459Y-8666317D01*
G01X421682Y-8650429D01*
G01X440429Y-8631682D01*
G01X456317Y-8610459D01*
G01X469022Y-8587190D01*
G01X478287Y-8562350D01*
G01X483923Y-8536444D01*
G01X485814Y-8510000D01*
G01X483923Y-8483556D01*
G01X478287Y-8457650D01*
G01X469022Y-8432810D01*
G01X456317Y-8409541D01*
G01X440429Y-8388318D01*
G01X437863Y-8385752D01*
G01X1674934Y-8385752D01*
G01X1674934Y-8461952D01*
G01X1676850Y-8488737D01*
G01X1682558Y-8514978D01*
G01X1691943Y-8540139D01*
G01X1704813Y-8563708D01*
G01X1720906Y-8585206D01*
G01X1739894Y-8604194D01*
G01X1761392Y-8620287D01*
G01X1784961Y-8633157D01*
G01X1810122Y-8642542D01*
G01X1836363Y-8648250D01*
G01X1863148Y-8650166D01*
G01X1889934Y-8648250D01*
G01X1916174Y-8642542D01*
G01X1941335Y-8633157D01*
G01X1964905Y-8620287D01*
G01X1986402Y-8604194D01*
G01X2005391Y-8585206D01*
G01X2021484Y-8563708D01*
G01X2034354Y-8540139D01*
G01X2043738Y-8514978D01*
G01X2049447Y-8488737D01*
G01X2051362Y-8461952D01*
G01X2051362Y-8385752D01*
G01X2182934Y-8385752D01*
G01X2182934Y-8461952D01*
G01X2184850Y-8488737D01*
G01X2190558Y-8514978D01*
G01X2199943Y-8540139D01*
G01X2212813Y-8563708D01*
G01X2228906Y-8585206D01*
G01X2247894Y-8604194D01*
G01X2269392Y-8620287D01*
G01X2292961Y-8633157D01*
G01X2318122Y-8642542D01*
G01X2344363Y-8648250D01*
G01X2371148Y-8650166D01*
G01X2397934Y-8648250D01*
G01X2424174Y-8642542D01*
G01X2449335Y-8633157D01*
G01X2472905Y-8620287D01*
G01X2494402Y-8604194D01*
G01X2513391Y-8585206D01*
G01X2529484Y-8563708D01*
G01X2542354Y-8540139D01*
G01X2551738Y-8514978D01*
G01X2557447Y-8488737D01*
G01X2559362Y-8461952D01*
G01X2559362Y-8385752D01*
G01X2792534Y-8385752D01*
G01X2792534Y-8461952D01*
G01X2794450Y-8488737D01*
G01X2800158Y-8514978D01*
G01X2809543Y-8540139D01*
G01X2822413Y-8563708D01*
G01X2838506Y-8585206D01*
G01X2857494Y-8604194D01*
G01X2878992Y-8620287D01*
G01X2902561Y-8633157D01*
G01X2927722Y-8642542D01*
G01X2953963Y-8648250D01*
G01X2980748Y-8650166D01*
G01X3007534Y-8648250D01*
G01X3033774Y-8642542D01*
G01X3058935Y-8633157D01*
G01X3082505Y-8620287D01*
G01X3104002Y-8604194D01*
G01X3122991Y-8585206D01*
G01X3139084Y-8563708D01*
G01X3151954Y-8540139D01*
G01X3161338Y-8514978D01*
G01X3167047Y-8488737D01*
G01X3168962Y-8461952D01*
G01X3168962Y-8385752D01*
G01X3300534Y-8385752D01*
G01X3300534Y-8461952D01*
G01X3302450Y-8488737D01*
G01X3308158Y-8514978D01*
G01X3317543Y-8540139D01*
G01X3330413Y-8563708D01*
G01X3346506Y-8585206D01*
G01X3365494Y-8604194D01*
G01X3386992Y-8620287D01*
G01X3410561Y-8633157D01*
G01X3435722Y-8642542D01*
G01X3461963Y-8648250D01*
G01X3488748Y-8650166D01*
G01X3515534Y-8648250D01*
G01X3541774Y-8642542D01*
G01X3566935Y-8633157D01*
G01X3590505Y-8620287D01*
G01X3612002Y-8604194D01*
G01X3630991Y-8585206D01*
G01X3647084Y-8563708D01*
G01X3659954Y-8540139D01*
G01X3669338Y-8514978D01*
G01X3675047Y-8488737D01*
G01X3676962Y-8461952D01*
G01X3676962Y-8385752D01*
G01X3910134Y-8385752D01*
G01X3910134Y-8461952D01*
G01X3912050Y-8488737D01*
G01X3917758Y-8514978D01*
G01X3927143Y-8540139D01*
G01X3940013Y-8563708D01*
G01X3956106Y-8585206D01*
G01X3975094Y-8604194D01*
G01X3996592Y-8620287D01*
G01X4020161Y-8633157D01*
G01X4045322Y-8642542D01*
G01X4071563Y-8648250D01*
G01X4098348Y-8650166D01*
G01X4125134Y-8648250D01*
G01X4151374Y-8642542D01*
G01X4176535Y-8633157D01*
G01X4200105Y-8620287D01*
G01X4221602Y-8604194D01*
G01X4240591Y-8585206D01*
G01X4256684Y-8563708D01*
G01X4269554Y-8540139D01*
G01X4278938Y-8514978D01*
G01X4284647Y-8488737D01*
G01X4286562Y-8461952D01*
G01X4286562Y-8385752D01*
G01X4418134Y-8385752D01*
G01X4418134Y-8461952D01*
G01X4420050Y-8488737D01*
G01X4425758Y-8514978D01*
G01X4435143Y-8540139D01*
G01X4448013Y-8563708D01*
G01X4464106Y-8585206D01*
G01X4483094Y-8604194D01*
G01X4504592Y-8620287D01*
G01X4528161Y-8633157D01*
G01X4553322Y-8642542D01*
G01X4579563Y-8648250D01*
G01X4606348Y-8650166D01*
G01X4633134Y-8648250D01*
G01X4659374Y-8642542D01*
G01X4684535Y-8633157D01*
G01X4708105Y-8620287D01*
G01X4729602Y-8604194D01*
G01X4748591Y-8585206D01*
G01X4764684Y-8563708D01*
G01X4777554Y-8540139D01*
G01X4786938Y-8514978D01*
G01X4792647Y-8488737D01*
G01X4794562Y-8461952D01*
G01X4794562Y-8385752D01*
G01X5027734Y-8385752D01*
G01X5027734Y-8461952D01*
G01X5029650Y-8488737D01*
G01X5035358Y-8514978D01*
G01X5044743Y-8540139D01*
G01X5057613Y-8563708D01*
G01X5073706Y-8585206D01*
G01X5092694Y-8604194D01*
G01X5114192Y-8620287D01*
G01X5137761Y-8633157D01*
G01X5162922Y-8642542D01*
G01X5189163Y-8648250D01*
G01X5215948Y-8650166D01*
G01X5242734Y-8648250D01*
G01X5268974Y-8642542D01*
G01X5294135Y-8633157D01*
G01X5317705Y-8620287D01*
G01X5339202Y-8604194D01*
G01X5358191Y-8585206D01*
G01X5374284Y-8563708D01*
G01X5387154Y-8540139D01*
G01X5396538Y-8514978D01*
G01X5402247Y-8488737D01*
G01X5404162Y-8461952D01*
G01X5404162Y-8385752D01*
G01X5535734Y-8385752D01*
G01X5535734Y-8461952D01*
G01X5537650Y-8488737D01*
G01X5543358Y-8514978D01*
G01X5552743Y-8540139D01*
G01X5565613Y-8563708D01*
G01X5581706Y-8585206D01*
G01X5600694Y-8604194D01*
G01X5622192Y-8620287D01*
G01X5645761Y-8633157D01*
G01X5670922Y-8642542D01*
G01X5697163Y-8648250D01*
G01X5723948Y-8650166D01*
G01X5750734Y-8648250D01*
G01X5776974Y-8642542D01*
G01X5802135Y-8633157D01*
G01X5825705Y-8620287D01*
G01X5847202Y-8604194D01*
G01X5866191Y-8585206D01*
G01X5882284Y-8563708D01*
G01X5895154Y-8540139D01*
G01X5904538Y-8514978D01*
G01X5905621Y-8510000D01*
G01X7054186Y-8510000D01*
G01X7056077Y-8536444D01*
G01X7061713Y-8562350D01*
G01X7070978Y-8587190D01*
G01X7083683Y-8610459D01*
G01X7099571Y-8631682D01*
G01X7118318Y-8650429D01*
G01X7139541Y-8666317D01*
G01X7162810Y-8679022D01*
G01X7187650Y-8688287D01*
G01X7213556Y-8693923D01*
G01X7240000Y-8695814D01*
G01X7266444Y-8693923D01*
G01X7292350Y-8688287D01*
G01X7317190Y-8679022D01*
G01X7340459Y-8666317D01*
G01X7361682Y-8650429D01*
G01X7380429Y-8631682D01*
G01X7396317Y-8610459D01*
G01X7409022Y-8587190D01*
G01X7418287Y-8562350D01*
G01X7423923Y-8536444D01*
G01X7425814Y-8510000D01*
G01X7423923Y-8483556D01*
G01X7418287Y-8457650D01*
G01X7409022Y-8432810D01*
G01X7396317Y-8409541D01*
G01X7380429Y-8388318D01*
G01X7361682Y-8369571D01*
G01X7340459Y-8353683D01*
G01X7317190Y-8340978D01*
G01X7292350Y-8331713D01*
G01X7266444Y-8326077D01*
G01X7240000Y-8324186D01*
G01X7213556Y-8326077D01*
G01X7187650Y-8331713D01*
G01X7162810Y-8340978D01*
G01X7139541Y-8353683D01*
G01X7118318Y-8369571D01*
G01X7099571Y-8388318D01*
G01X7083683Y-8409541D01*
G01X7070978Y-8432810D01*
G01X7061713Y-8457650D01*
G01X7056077Y-8483556D01*
G01X7054186Y-8510000D01*
G01X7054186Y-8510000D01*
G01X5905621Y-8510000D01*
G01X5910247Y-8488737D01*
G01X5912162Y-8461952D01*
G01X5912162Y-8385752D01*
G01X5910247Y-8358966D01*
G01X5904538Y-8332726D01*
G01X5895154Y-8307565D01*
G01X5882284Y-8283995D01*
G01X5866191Y-8262498D01*
G01X5847202Y-8243509D01*
G01X5825705Y-8227416D01*
G01X5802135Y-8214546D01*
G01X5776974Y-8205162D01*
G01X5750734Y-8199453D01*
G01X5723948Y-8197538D01*
G01X5697163Y-8199453D01*
G01X5670922Y-8205162D01*
G01X5645761Y-8214546D01*
G01X5622192Y-8227416D01*
G01X5600694Y-8243509D01*
G01X5581706Y-8262498D01*
G01X5565613Y-8283995D01*
G01X5552743Y-8307565D01*
G01X5543358Y-8332726D01*
G01X5537650Y-8358966D01*
G01X5535734Y-8385752D01*
G01X5535734Y-8385752D01*
G01X5404162Y-8385752D01*
G01X5402247Y-8358966D01*
G01X5396538Y-8332726D01*
G01X5387154Y-8307565D01*
G01X5374284Y-8283995D01*
G01X5358191Y-8262498D01*
G01X5339202Y-8243509D01*
G01X5317705Y-8227416D01*
G01X5294135Y-8214546D01*
G01X5268974Y-8205162D01*
G01X5242734Y-8199453D01*
G01X5215948Y-8197538D01*
G01X5189163Y-8199453D01*
G01X5162922Y-8205162D01*
G01X5137761Y-8214546D01*
G01X5114192Y-8227416D01*
G01X5092694Y-8243509D01*
G01X5073706Y-8262498D01*
G01X5057613Y-8283995D01*
G01X5044743Y-8307565D01*
G01X5035358Y-8332726D01*
G01X5029650Y-8358966D01*
G01X5027734Y-8385752D01*
G01X5027734Y-8385752D01*
G01X4794562Y-8385752D01*
G01X4792647Y-8358966D01*
G01X4786938Y-8332726D01*
G01X4777554Y-8307565D01*
G01X4764684Y-8283995D01*
G01X4748591Y-8262498D01*
G01X4729602Y-8243509D01*
G01X4708105Y-8227416D01*
G01X4684535Y-8214546D01*
G01X4659374Y-8205162D01*
G01X4633134Y-8199453D01*
G01X4606348Y-8197538D01*
G01X4579563Y-8199453D01*
G01X4553322Y-8205162D01*
G01X4528161Y-8214546D01*
G01X4504592Y-8227416D01*
G01X4483094Y-8243509D01*
G01X4464106Y-8262498D01*
G01X4448013Y-8283995D01*
G01X4435143Y-8307565D01*
G01X4425758Y-8332726D01*
G01X4420050Y-8358966D01*
G01X4418134Y-8385752D01*
G01X4418134Y-8385752D01*
G01X4286562Y-8385752D01*
G01X4284647Y-8358966D01*
G01X4278938Y-8332726D01*
G01X4269554Y-8307565D01*
G01X4256684Y-8283995D01*
G01X4240591Y-8262498D01*
G01X4221602Y-8243509D01*
G01X4200105Y-8227416D01*
G01X4176535Y-8214546D01*
G01X4151374Y-8205162D01*
G01X4125134Y-8199453D01*
G01X4098348Y-8197538D01*
G01X4071563Y-8199453D01*
G01X4045322Y-8205162D01*
G01X4020161Y-8214546D01*
G01X3996592Y-8227416D01*
G01X3975094Y-8243509D01*
G01X3956106Y-8262498D01*
G01X3940013Y-8283995D01*
G01X3927143Y-8307565D01*
G01X3917758Y-8332726D01*
G01X3912050Y-8358966D01*
G01X3910134Y-8385752D01*
G01X3910134Y-8385752D01*
G01X3676962Y-8385752D01*
G01X3675047Y-8358966D01*
G01X3669338Y-8332726D01*
G01X3659954Y-8307565D01*
G01X3647084Y-8283995D01*
G01X3630991Y-8262498D01*
G01X3612002Y-8243509D01*
G01X3590505Y-8227416D01*
G01X3566935Y-8214546D01*
G01X3541774Y-8205162D01*
G01X3515534Y-8199453D01*
G01X3488748Y-8197538D01*
G01X3461963Y-8199453D01*
G01X3435722Y-8205162D01*
G01X3410561Y-8214546D01*
G01X3386992Y-8227416D01*
G01X3365494Y-8243509D01*
G01X3346506Y-8262498D01*
G01X3330413Y-8283995D01*
G01X3317543Y-8307565D01*
G01X3308158Y-8332726D01*
G01X3302450Y-8358966D01*
G01X3300534Y-8385752D01*
G01X3300534Y-8385752D01*
G01X3168962Y-8385752D01*
G01X3167047Y-8358966D01*
G01X3161338Y-8332726D01*
G01X3151954Y-8307565D01*
G01X3139084Y-8283995D01*
G01X3122991Y-8262498D01*
G01X3104002Y-8243509D01*
G01X3082505Y-8227416D01*
G01X3058935Y-8214546D01*
G01X3033774Y-8205162D01*
G01X3007534Y-8199453D01*
G01X2980748Y-8197538D01*
G01X2953963Y-8199453D01*
G01X2927722Y-8205162D01*
G01X2902561Y-8214546D01*
G01X2878992Y-8227416D01*
G01X2857494Y-8243509D01*
G01X2838506Y-8262498D01*
G01X2822413Y-8283995D01*
G01X2809543Y-8307565D01*
G01X2800158Y-8332726D01*
G01X2794450Y-8358966D01*
G01X2792534Y-8385752D01*
G01X2792534Y-8385752D01*
G01X2559362Y-8385752D01*
G01X2557447Y-8358966D01*
G01X2551738Y-8332726D01*
G01X2542354Y-8307565D01*
G01X2529484Y-8283995D01*
G01X2513391Y-8262498D01*
G01X2494402Y-8243509D01*
G01X2472905Y-8227416D01*
G01X2449335Y-8214546D01*
G01X2424174Y-8205162D01*
G01X2397934Y-8199453D01*
G01X2371148Y-8197538D01*
G01X2344363Y-8199453D01*
G01X2318122Y-8205162D01*
G01X2292961Y-8214546D01*
G01X2269392Y-8227416D01*
G01X2247894Y-8243509D01*
G01X2228906Y-8262498D01*
G01X2212813Y-8283995D01*
G01X2199943Y-8307565D01*
G01X2190558Y-8332726D01*
G01X2184850Y-8358966D01*
G01X2182934Y-8385752D01*
G01X2182934Y-8385752D01*
G01X2051362Y-8385752D01*
G01X2049447Y-8358966D01*
G01X2043738Y-8332726D01*
G01X2034354Y-8307565D01*
G01X2021484Y-8283995D01*
G01X2005391Y-8262498D01*
G01X1986402Y-8243509D01*
G01X1964905Y-8227416D01*
G01X1941335Y-8214546D01*
G01X1916174Y-8205162D01*
G01X1889934Y-8199453D01*
G01X1863148Y-8197538D01*
G01X1836363Y-8199453D01*
G01X1810122Y-8205162D01*
G01X1784961Y-8214546D01*
G01X1761392Y-8227416D01*
G01X1739894Y-8243509D01*
G01X1720906Y-8262498D01*
G01X1704813Y-8283995D01*
G01X1691943Y-8307565D01*
G01X1682558Y-8332726D01*
G01X1676850Y-8358966D01*
G01X1674934Y-8385752D01*
G01X1674934Y-8385752D01*
G01X437863Y-8385752D01*
G01X421682Y-8369571D01*
G01X400459Y-8353683D01*
G01X377190Y-8340978D01*
G01X352350Y-8331713D01*
G01X326444Y-8326077D01*
G01X300000Y-8324186D01*
G01X273556Y-8326077D01*
G01X247650Y-8331713D01*
G01X222810Y-8340978D01*
G01X199541Y-8353683D01*
G01X178318Y-8369571D01*
G01X159571Y-8388318D01*
G01X143683Y-8409541D01*
G01X130978Y-8432810D01*
G01X121713Y-8457650D01*
G01X116077Y-8483556D01*
G01X114186Y-8510000D01*
G01X114186Y-8510000D01*
G01X48514Y-8510000D01*
G01X48514Y-7785100D01*
G01X1751335Y-7785100D01*
G01X1753307Y-7806381D01*
G01X1759156Y-7826937D01*
G01X1768682Y-7846068D01*
G01X1781561Y-7863123D01*
G01X1797355Y-7877521D01*
G01X1815526Y-7888772D01*
G01X1835455Y-7896493D01*
G01X1856463Y-7900420D01*
G01X1877835Y-7900420D01*
G01X1898843Y-7896493D01*
G01X1918772Y-7888772D01*
G01X1936942Y-7877521D01*
G01X1952736Y-7863123D01*
G01X1965616Y-7846068D01*
G01X1975142Y-7826937D01*
G01X1980991Y-7806381D01*
G01X1982963Y-7785100D01*
G01X2251334Y-7785100D01*
G01X2253306Y-7806381D01*
G01X2259155Y-7826937D01*
G01X2268681Y-7846068D01*
G01X2281560Y-7863123D01*
G01X2297354Y-7877521D01*
G01X2315525Y-7888772D01*
G01X2335454Y-7896493D01*
G01X2356462Y-7900420D01*
G01X2377834Y-7900420D01*
G01X2398842Y-7896493D01*
G01X2418771Y-7888772D01*
G01X2436941Y-7877521D01*
G01X2452735Y-7863123D01*
G01X2465615Y-7846068D01*
G01X2475141Y-7826937D01*
G01X2480990Y-7806381D01*
G01X2482962Y-7785100D01*
G01X2868935Y-7785100D01*
G01X2870907Y-7806381D01*
G01X2876756Y-7826937D01*
G01X2886282Y-7846068D01*
G01X2899161Y-7863123D01*
G01X2914955Y-7877521D01*
G01X2933126Y-7888772D01*
G01X2953055Y-7896493D01*
G01X2974063Y-7900420D01*
G01X2995435Y-7900420D01*
G01X3016443Y-7896493D01*
G01X3036372Y-7888772D01*
G01X3054542Y-7877521D01*
G01X3070336Y-7863123D01*
G01X3083216Y-7846068D01*
G01X3092742Y-7826937D01*
G01X3098591Y-7806381D01*
G01X3100563Y-7785100D01*
G01X3368934Y-7785100D01*
G01X3370906Y-7806381D01*
G01X3376755Y-7826937D01*
G01X3386281Y-7846068D01*
G01X3399160Y-7863123D01*
G01X3414954Y-7877521D01*
G01X3433125Y-7888772D01*
G01X3453054Y-7896493D01*
G01X3474062Y-7900420D01*
G01X3495434Y-7900420D01*
G01X3516442Y-7896493D01*
G01X3536371Y-7888772D01*
G01X3554541Y-7877521D01*
G01X3570335Y-7863123D01*
G01X3583215Y-7846068D01*
G01X3592741Y-7826937D01*
G01X3598590Y-7806381D01*
G01X3600562Y-7785100D01*
G01X3986535Y-7785100D01*
G01X3988507Y-7806381D01*
G01X3994356Y-7826937D01*
G01X4003882Y-7846068D01*
G01X4016761Y-7863123D01*
G01X4032555Y-7877521D01*
G01X4050726Y-7888772D01*
G01X4070655Y-7896493D01*
G01X4091663Y-7900420D01*
G01X4113035Y-7900420D01*
G01X4134043Y-7896493D01*
G01X4153972Y-7888772D01*
G01X4172142Y-7877521D01*
G01X4187936Y-7863123D01*
G01X4200816Y-7846068D01*
G01X4210342Y-7826937D01*
G01X4216191Y-7806381D01*
G01X4218163Y-7785100D01*
G01X4486534Y-7785100D01*
G01X4488506Y-7806381D01*
G01X4494355Y-7826937D01*
G01X4503881Y-7846068D01*
G01X4516760Y-7863123D01*
G01X4532554Y-7877521D01*
G01X4550725Y-7888772D01*
G01X4570654Y-7896493D01*
G01X4591662Y-7900420D01*
G01X4613034Y-7900420D01*
G01X4634042Y-7896493D01*
G01X4653971Y-7888772D01*
G01X4672141Y-7877521D01*
G01X4687935Y-7863123D01*
G01X4700815Y-7846068D01*
G01X4710341Y-7826937D01*
G01X4716190Y-7806381D01*
G01X4718162Y-7785100D01*
G01X5104135Y-7785100D01*
G01X5106107Y-7806381D01*
G01X5111956Y-7826937D01*
G01X5121482Y-7846068D01*
G01X5134361Y-7863123D01*
G01X5150155Y-7877521D01*
G01X5168326Y-7888772D01*
G01X5188255Y-7896493D01*
G01X5209263Y-7900420D01*
G01X5230635Y-7900420D01*
G01X5251643Y-7896493D01*
G01X5271572Y-7888772D01*
G01X5289742Y-7877521D01*
G01X5305536Y-7863123D01*
G01X5318416Y-7846068D01*
G01X5327942Y-7826937D01*
G01X5333791Y-7806381D01*
G01X5335763Y-7785100D01*
G01X5604134Y-7785100D01*
G01X5606106Y-7806381D01*
G01X5611955Y-7826937D01*
G01X5621481Y-7846068D01*
G01X5634360Y-7863123D01*
G01X5650154Y-7877521D01*
G01X5668325Y-7888772D01*
G01X5688254Y-7896493D01*
G01X5709262Y-7900420D01*
G01X5730634Y-7900420D01*
G01X5751642Y-7896493D01*
G01X5771571Y-7888772D01*
G01X5789741Y-7877521D01*
G01X5805535Y-7863123D01*
G01X5818415Y-7846068D01*
G01X5827941Y-7826937D01*
G01X5833790Y-7806381D01*
G01X5835762Y-7785100D01*
G01X5833790Y-7763819D01*
G01X5827941Y-7743263D01*
G01X5818415Y-7724132D01*
G01X5805535Y-7707077D01*
G01X5789741Y-7692679D01*
G01X5771571Y-7681428D01*
G01X5751642Y-7673707D01*
G01X5730634Y-7669780D01*
G01X5709262Y-7669780D01*
G01X5688254Y-7673707D01*
G01X5668325Y-7681428D01*
G01X5650154Y-7692679D01*
G01X5634360Y-7707077D01*
G01X5621481Y-7724132D01*
G01X5611955Y-7743263D01*
G01X5606106Y-7763819D01*
G01X5604134Y-7785100D01*
G01X5604134Y-7785100D01*
G01X5335763Y-7785100D01*
G01X5333791Y-7763819D01*
G01X5327942Y-7743263D01*
G01X5318416Y-7724132D01*
G01X5305536Y-7707077D01*
G01X5289742Y-7692679D01*
G01X5271572Y-7681428D01*
G01X5251643Y-7673707D01*
G01X5230635Y-7669780D01*
G01X5209263Y-7669780D01*
G01X5188255Y-7673707D01*
G01X5168326Y-7681428D01*
G01X5150155Y-7692679D01*
G01X5134361Y-7707077D01*
G01X5121482Y-7724132D01*
G01X5111956Y-7743263D01*
G01X5106107Y-7763819D01*
G01X5104135Y-7785100D01*
G01X5104135Y-7785100D01*
G01X4718162Y-7785100D01*
G01X4716190Y-7763819D01*
G01X4710341Y-7743263D01*
G01X4700815Y-7724132D01*
G01X4687935Y-7707077D01*
G01X4672141Y-7692679D01*
G01X4653971Y-7681428D01*
G01X4634042Y-7673707D01*
G01X4613034Y-7669780D01*
G01X4591662Y-7669780D01*
G01X4570654Y-7673707D01*
G01X4550725Y-7681428D01*
G01X4532554Y-7692679D01*
G01X4516760Y-7707077D01*
G01X4503881Y-7724132D01*
G01X4494355Y-7743263D01*
G01X4488506Y-7763819D01*
G01X4486534Y-7785100D01*
G01X4486534Y-7785100D01*
G01X4218163Y-7785100D01*
G01X4216191Y-7763819D01*
G01X4210342Y-7743263D01*
G01X4200816Y-7724132D01*
G01X4187936Y-7707077D01*
G01X4172142Y-7692679D01*
G01X4153972Y-7681428D01*
G01X4134043Y-7673707D01*
G01X4113035Y-7669780D01*
G01X4091663Y-7669780D01*
G01X4070655Y-7673707D01*
G01X4050726Y-7681428D01*
G01X4032555Y-7692679D01*
G01X4016761Y-7707077D01*
G01X4003882Y-7724132D01*
G01X3994356Y-7743263D01*
G01X3988507Y-7763819D01*
G01X3986535Y-7785100D01*
G01X3986535Y-7785100D01*
G01X3600562Y-7785100D01*
G01X3598590Y-7763819D01*
G01X3592741Y-7743263D01*
G01X3583215Y-7724132D01*
G01X3570335Y-7707077D01*
G01X3554541Y-7692679D01*
G01X3536371Y-7681428D01*
G01X3516442Y-7673707D01*
G01X3495434Y-7669780D01*
G01X3474062Y-7669780D01*
G01X3453054Y-7673707D01*
G01X3433125Y-7681428D01*
G01X3414954Y-7692679D01*
G01X3399160Y-7707077D01*
G01X3386281Y-7724132D01*
G01X3376755Y-7743263D01*
G01X3370906Y-7763819D01*
G01X3368934Y-7785100D01*
G01X3368934Y-7785100D01*
G01X3100563Y-7785100D01*
G01X3098591Y-7763819D01*
G01X3092742Y-7743263D01*
G01X3083216Y-7724132D01*
G01X3070336Y-7707077D01*
G01X3054542Y-7692679D01*
G01X3036372Y-7681428D01*
G01X3016443Y-7673707D01*
G01X2995435Y-7669780D01*
G01X2974063Y-7669780D01*
G01X2953055Y-7673707D01*
G01X2933126Y-7681428D01*
G01X2914955Y-7692679D01*
G01X2899161Y-7707077D01*
G01X2886282Y-7724132D01*
G01X2876756Y-7743263D01*
G01X2870907Y-7763819D01*
G01X2868935Y-7785100D01*
G01X2868935Y-7785100D01*
G01X2482962Y-7785100D01*
G01X2480990Y-7763819D01*
G01X2475141Y-7743263D01*
G01X2465615Y-7724132D01*
G01X2452735Y-7707077D01*
G01X2436941Y-7692679D01*
G01X2418771Y-7681428D01*
G01X2398842Y-7673707D01*
G01X2377834Y-7669780D01*
G01X2356462Y-7669780D01*
G01X2335454Y-7673707D01*
G01X2315525Y-7681428D01*
G01X2297354Y-7692679D01*
G01X2281560Y-7707077D01*
G01X2268681Y-7724132D01*
G01X2259155Y-7743263D01*
G01X2253306Y-7763819D01*
G01X2251334Y-7785100D01*
G01X2251334Y-7785100D01*
G01X1982963Y-7785100D01*
G01X1980991Y-7763819D01*
G01X1975142Y-7743263D01*
G01X1965616Y-7724132D01*
G01X1952736Y-7707077D01*
G01X1936942Y-7692679D01*
G01X1918772Y-7681428D01*
G01X1898843Y-7673707D01*
G01X1877835Y-7669780D01*
G01X1856463Y-7669780D01*
G01X1835455Y-7673707D01*
G01X1815526Y-7681428D01*
G01X1797355Y-7692679D01*
G01X1781561Y-7707077D01*
G01X1768682Y-7724132D01*
G01X1759156Y-7743263D01*
G01X1753307Y-7763819D01*
G01X1751335Y-7785100D01*
G01X1751335Y-7785100D01*
G01X48514Y-7785100D01*
G01X48514Y-7160197D01*
G01X636186Y-7160197D01*
G01X638098Y-7182044D01*
G01X643774Y-7203228D01*
G01X653042Y-7223104D01*
G01X665621Y-7241069D01*
G01X681128Y-7256576D01*
G01X699093Y-7269155D01*
G01X718969Y-7278423D01*
G01X740153Y-7284099D01*
G01X762000Y-7286011D01*
G01X783847Y-7284099D01*
G01X805031Y-7278423D01*
G01X824907Y-7269155D01*
G01X842872Y-7256576D01*
G01X858379Y-7241069D01*
G01X870958Y-7223104D01*
G01X880226Y-7203228D01*
G01X885902Y-7182044D01*
G01X886975Y-7169784D01*
G01X1579150Y-7169784D01*
G01X1579150Y-7192215D01*
G01X1582842Y-7214339D01*
G01X1590125Y-7235555D01*
G01X1600801Y-7255282D01*
G01X1614579Y-7272983D01*
G01X1631081Y-7288175D01*
G01X1649860Y-7300444D01*
G01X1670401Y-7309454D01*
G01X1692146Y-7314961D01*
G01X1714500Y-7316813D01*
G01X1736854Y-7314961D01*
G01X1758599Y-7309454D01*
G01X1779140Y-7300444D01*
G01X1797919Y-7288175D01*
G01X1814421Y-7272983D01*
G01X1828199Y-7255282D01*
G01X1838875Y-7235555D01*
G01X1846158Y-7214339D01*
G01X1849850Y-7192215D01*
G01X1849850Y-7169784D01*
G01X1846158Y-7147659D01*
G01X1838875Y-7126443D01*
G01X1828199Y-7106716D01*
G01X1814421Y-7089015D01*
G01X1797919Y-7073823D01*
G01X1779140Y-7061554D01*
G01X1758599Y-7052544D01*
G01X1736854Y-7047038D01*
G01X1714500Y-7045185D01*
G01X1714500Y-7045185D01*
G01X1692146Y-7047038D01*
G01X1670401Y-7052544D01*
G01X1649860Y-7061554D01*
G01X1631081Y-7073823D01*
G01X1614579Y-7089015D01*
G01X1600801Y-7106716D01*
G01X1590125Y-7126443D01*
G01X1582842Y-7147659D01*
G01X1579150Y-7169784D01*
G01X886975Y-7169784D01*
G01X887814Y-7160197D01*
G01X885902Y-7138350D01*
G01X880226Y-7117166D01*
G01X870958Y-7097290D01*
G01X858379Y-7079325D01*
G01X842872Y-7063818D01*
G01X824907Y-7051239D01*
G01X805031Y-7041971D01*
G01X783847Y-7036295D01*
G01X762000Y-7034383D01*
G01X740153Y-7036295D01*
G01X718969Y-7041971D01*
G01X699093Y-7051239D01*
G01X681128Y-7063818D01*
G01X665621Y-7079325D01*
G01X653042Y-7097290D01*
G01X643774Y-7117166D01*
G01X638098Y-7138350D01*
G01X636186Y-7160197D01*
G01X636186Y-7160197D01*
G01X48514Y-7160197D01*
G01X48514Y-7012000D01*
G01X2035886Y-7012000D01*
G01X2035886Y-7212000D01*
G01X2037639Y-7223067D01*
G01X2042726Y-7233051D01*
G01X2050649Y-7240974D01*
G01X2060633Y-7246061D01*
G01X2071700Y-7247814D01*
G01X2271700Y-7247814D01*
G01X2282767Y-7246061D01*
G01X2292751Y-7240974D01*
G01X2300674Y-7233051D01*
G01X2305761Y-7223067D01*
G01X2307514Y-7212000D01*
G01X2307514Y-7178913D01*
G01X2319831Y-7197071D01*
G01X2334911Y-7213008D01*
G01X2352360Y-7226309D01*
G01X2371723Y-7236627D01*
G01X2392495Y-7243692D01*
G01X2414134Y-7247320D01*
G01X2436075Y-7247417D01*
G01X2457745Y-7243979D01*
G01X2478578Y-7237097D01*
G01X2498032Y-7226950D01*
G01X2515597Y-7213803D01*
G01X2530817Y-7197999D01*
G01X2543293Y-7179951D01*
G01X2552700Y-7160129D01*
G01X2562227Y-7180158D01*
G01X2574887Y-7198369D01*
G01X2590343Y-7214277D01*
G01X2608181Y-7227458D01*
G01X2627927Y-7237559D01*
G01X2649054Y-7244311D01*
G01X2670998Y-7247535D01*
G01X2693175Y-7247144D01*
G01X2714991Y-7243148D01*
G01X2735867Y-7235655D01*
G01X2755245Y-7224865D01*
G01X2772607Y-7211064D01*
G01X2787492Y-7194621D01*
G01X2799503Y-7175974D01*
G01X2808318Y-7155622D01*
G01X2813703Y-7134106D01*
G01X2815514Y-7112000D01*
G01X2813703Y-7089894D01*
G01X2808318Y-7068378D01*
G01X2799503Y-7048026D01*
G01X2787492Y-7029379D01*
G01X2772607Y-7012936D01*
G01X2755245Y-6999135D01*
G01X2735867Y-6988345D01*
G01X2714991Y-6980852D01*
G01X2693175Y-6976856D01*
G01X2670998Y-6976465D01*
G01X2649054Y-6979689D01*
G01X2627927Y-6986441D01*
G01X2608181Y-6996542D01*
G01X2590343Y-7009723D01*
G01X2574887Y-7025631D01*
G01X2562227Y-7043842D01*
G01X2552700Y-7063871D01*
G01X2542819Y-7043236D01*
G01X2529615Y-7024553D01*
G01X2513462Y-7008351D01*
G01X2494819Y-6995090D01*
G01X2474214Y-6985147D01*
G01X2474214Y-6928895D01*
G01X2910636Y-6492473D01*
G01X2925818Y-6490159D01*
G01X2940059Y-6484414D01*
G01X2952598Y-6475548D01*
G01X2962761Y-6464036D01*
G01X2970004Y-6450494D01*
G01X2973937Y-6435650D01*
G01X2974351Y-6420299D01*
G01X2971222Y-6405264D01*
G01X2964720Y-6391352D01*
G01X2955191Y-6379309D01*
G01X2943148Y-6369780D01*
G01X2929236Y-6363278D01*
G01X2914201Y-6360149D01*
G01X2898850Y-6360563D01*
G01X2884006Y-6364496D01*
G01X2870464Y-6371739D01*
G01X2858952Y-6381902D01*
G01X2850086Y-6394441D01*
G01X2844341Y-6408682D01*
G01X2842027Y-6423864D01*
G01X2391395Y-6874495D01*
G01X2391395Y-6874495D01*
G01X2383686Y-6884543D01*
G01X2378839Y-6896244D01*
G01X2377186Y-6908800D01*
G01X2377186Y-6985147D01*
G01X2356122Y-6995363D01*
G01X2337126Y-7009044D01*
G01X2320761Y-7025784D01*
G01X2307514Y-7045087D01*
G01X2307514Y-7012000D01*
G01X2305761Y-7000933D01*
G01X2300674Y-6990949D01*
G01X2292751Y-6983026D01*
G01X2282767Y-6977939D01*
G01X2271700Y-6976186D01*
G01X2071700Y-6976186D01*
G01X2060633Y-6977939D01*
G01X2050649Y-6983026D01*
G01X2042726Y-6990949D01*
G01X2037639Y-7000933D01*
G01X2035886Y-7012000D01*
G01X48514Y-7012000D01*
G01X48514Y-6398197D01*
G01X636186Y-6398197D01*
G01X638098Y-6420044D01*
G01X643774Y-6441228D01*
G01X653042Y-6461104D01*
G01X665621Y-6479069D01*
G01X681128Y-6494576D01*
G01X699093Y-6507155D01*
G01X718969Y-6516423D01*
G01X740153Y-6522099D01*
G01X762000Y-6524011D01*
G01X783847Y-6522099D01*
G01X805031Y-6516423D01*
G01X824907Y-6507155D01*
G01X842872Y-6494576D01*
G01X858379Y-6479069D01*
G01X870958Y-6461104D01*
G01X880226Y-6441228D01*
G01X885902Y-6420044D01*
G01X887814Y-6398197D01*
G01X885902Y-6376350D01*
G01X880226Y-6355166D01*
G01X870958Y-6335290D01*
G01X858379Y-6317325D01*
G01X842872Y-6301818D01*
G01X824907Y-6289239D01*
G01X805031Y-6279971D01*
G01X783847Y-6274295D01*
G01X762000Y-6272383D01*
G01X740153Y-6274295D01*
G01X718969Y-6279971D01*
G01X699093Y-6289239D01*
G01X681128Y-6301818D01*
G01X665621Y-6317325D01*
G01X653042Y-6335290D01*
G01X643774Y-6355166D01*
G01X638098Y-6376350D01*
G01X636186Y-6398197D01*
G01X636186Y-6398197D01*
G01X48514Y-6398197D01*
G01X48514Y-6269785D01*
G01X1579150Y-6269785D01*
G01X1579150Y-6292216D01*
G01X1582842Y-6314341D01*
G01X1590125Y-6335557D01*
G01X1600801Y-6355284D01*
G01X1614579Y-6372985D01*
G01X1631081Y-6388177D01*
G01X1649860Y-6400446D01*
G01X1670401Y-6409456D01*
G01X1692146Y-6414962D01*
G01X1714500Y-6416815D01*
G01X1736854Y-6414962D01*
G01X1758599Y-6409456D01*
G01X1779140Y-6400446D01*
G01X1797919Y-6388177D01*
G01X1814421Y-6372985D01*
G01X1828199Y-6355284D01*
G01X1838875Y-6335557D01*
G01X1846158Y-6314341D01*
G01X1849850Y-6292216D01*
G01X1849850Y-6269785D01*
G01X1846158Y-6247661D01*
G01X1838875Y-6226445D01*
G01X1828199Y-6206718D01*
G01X1814421Y-6189017D01*
G01X1797919Y-6173825D01*
G01X1779140Y-6161556D01*
G01X1758599Y-6152546D01*
G01X1736854Y-6147039D01*
G01X1714500Y-6145187D01*
G01X1714500Y-6145187D01*
G01X1692146Y-6147039D01*
G01X1670401Y-6152546D01*
G01X1649860Y-6161556D01*
G01X1631081Y-6173825D01*
G01X1614579Y-6189017D01*
G01X1600801Y-6206718D01*
G01X1590125Y-6226445D01*
G01X1582842Y-6247661D01*
G01X1579150Y-6269785D01*
G01X48514Y-6269785D01*
G01X48514Y-5437965D01*
G01X66264Y-5437965D01*
G01X66264Y-5458635D01*
G01X70062Y-5478954D01*
G01X77529Y-5498229D01*
G01X88411Y-5515804D01*
G01X102337Y-5531079D01*
G01X118832Y-5543536D01*
G01X137336Y-5552750D01*
G01X157217Y-5558407D01*
G01X177800Y-5560314D01*
G01X198383Y-5558407D01*
G01X218264Y-5552750D01*
G01X236768Y-5543536D01*
G01X253263Y-5531079D01*
G01X267189Y-5515804D01*
G01X278071Y-5498229D01*
G01X285538Y-5478954D01*
G01X289336Y-5458635D01*
G01X289336Y-5437965D01*
G01X289336Y-5437965D01*
G01X320264Y-5437965D01*
G01X320264Y-5458635D01*
G01X324062Y-5478954D01*
G01X331529Y-5498229D01*
G01X342411Y-5515804D01*
G01X356337Y-5531079D01*
G01X372832Y-5543536D01*
G01X391336Y-5552750D01*
G01X411217Y-5558407D01*
G01X431800Y-5560314D01*
G01X452383Y-5558407D01*
G01X472264Y-5552750D01*
G01X490768Y-5543536D01*
G01X507263Y-5531079D01*
G01X521189Y-5515804D01*
G01X532071Y-5498229D01*
G01X539538Y-5478954D01*
G01X543336Y-5458635D01*
G01X543336Y-5437965D01*
G01X539538Y-5417646D01*
G01X532071Y-5398371D01*
G01X521189Y-5380796D01*
G01X507263Y-5365521D01*
G01X490768Y-5353064D01*
G01X472264Y-5343850D01*
G01X452383Y-5338193D01*
G01X431800Y-5336286D01*
G01X431800Y-5336286D01*
G01X411217Y-5338193D01*
G01X391336Y-5343850D01*
G01X372832Y-5353064D01*
G01X356337Y-5365521D01*
G01X342411Y-5380796D01*
G01X331529Y-5398371D01*
G01X324062Y-5417646D01*
G01X320264Y-5437965D01*
G01X289336Y-5437965D01*
G01X285538Y-5417646D01*
G01X278071Y-5398371D01*
G01X267189Y-5380796D01*
G01X253263Y-5365521D01*
G01X236768Y-5353064D01*
G01X218264Y-5343850D01*
G01X198383Y-5338193D01*
G01X177800Y-5336286D01*
G01X177800Y-5336286D01*
G01X157217Y-5338193D01*
G01X137336Y-5343850D01*
G01X118832Y-5353064D01*
G01X102337Y-5365521D01*
G01X88411Y-5380796D01*
G01X77529Y-5398371D01*
G01X70062Y-5417646D01*
G01X66264Y-5437965D01*
G01X48514Y-5437965D01*
G01X48514Y-3154791D01*
G01X66038Y-3154791D01*
G01X66494Y-3174874D01*
G01X70530Y-3194552D01*
G01X78015Y-3213193D01*
G01X88710Y-3230198D01*
G01X102270Y-3245019D01*
G01X118259Y-3257179D01*
G01X136164Y-3266288D01*
G01X155407Y-3272053D01*
G01X175370Y-3274288D01*
G01X195412Y-3272921D01*
G01X214887Y-3267996D01*
G01X751586Y-3804695D01*
G01X751586Y-5357639D01*
G01X751586Y-5357639D01*
G01X733964Y-5347169D01*
G01X714729Y-5340086D01*
G01X694525Y-5336626D01*
G01X674029Y-5336906D01*
G01X653927Y-5340916D01*
G01X634893Y-5348522D01*
G01X617563Y-5359470D01*
G01X602518Y-5373392D01*
G01X590262Y-5389822D01*
G01X581206Y-5408211D01*
G01X575652Y-5427942D01*
G01X573786Y-5448354D01*
G01X575671Y-5468765D01*
G01X581245Y-5488491D01*
G01X590319Y-5506871D01*
G01X602591Y-5523289D01*
G01X617649Y-5537197D01*
G01X634990Y-5548127D01*
G01X654032Y-5555715D01*
G01X674137Y-5559705D01*
G01X694633Y-5559965D01*
G01X714834Y-5556486D01*
G01X734062Y-5549384D01*
G01X751674Y-5538897D01*
G01X767080Y-5525376D01*
G01X779765Y-5509274D01*
G01X965795Y-5695304D01*
G01X975843Y-5703014D01*
G01X987543Y-5707861D01*
G01X1000100Y-5709514D01*
G01X1478505Y-5709514D01*
G01X2052998Y-6284006D01*
G01X2043800Y-6304315D01*
G01X2038050Y-6325855D01*
G01X2035900Y-6348045D01*
G01X2037410Y-6370288D01*
G01X2042539Y-6391985D01*
G01X2051147Y-6412550D01*
G01X2063005Y-6431429D01*
G01X2077791Y-6448115D01*
G01X2095108Y-6462156D01*
G01X2114488Y-6473175D01*
G01X2135410Y-6480876D01*
G01X2157310Y-6485049D01*
G01X2179598Y-6485584D01*
G01X2201673Y-6482465D01*
G01X2222941Y-6475777D01*
G01X2242827Y-6465699D01*
G01X2260797Y-6452504D01*
G01X2276366Y-6436547D01*
G01X2289115Y-6418258D01*
G01X2298700Y-6398129D01*
G01X2308856Y-6419231D01*
G01X2322487Y-6438275D01*
G01X2339187Y-6454694D01*
G01X2358458Y-6468000D01*
G01X2379730Y-6477797D01*
G01X2402368Y-6483795D01*
G01X2425700Y-6485814D01*
G01X2449032Y-6483795D01*
G01X2471670Y-6477797D01*
G01X2492942Y-6468000D01*
G01X2512213Y-6454694D01*
G01X2528913Y-6438275D01*
G01X2542544Y-6419231D01*
G01X2552700Y-6398129D01*
G01X2562758Y-6419066D01*
G01X2576237Y-6437982D01*
G01X2592742Y-6454325D01*
G01X2611791Y-6467617D01*
G01X2632826Y-6477468D01*
G01X2655232Y-6483592D01*
G01X2678353Y-6485807D01*
G01X2701514Y-6484050D01*
G01X2724037Y-6478373D01*
G01X2745263Y-6468941D01*
G01X2764572Y-6456029D01*
G01X2781398Y-6440017D01*
G01X2795249Y-6421371D01*
G01X2805721Y-6400638D01*
G01X2812506Y-6378424D01*
G01X2815407Y-6355378D01*
G01X2814339Y-6332175D01*
G01X2809333Y-6309494D01*
G01X2800535Y-6287997D01*
G01X2788202Y-6268314D01*
G01X3338027Y-6268314D01*
G01X3337561Y-6284233D01*
G01X3340904Y-6299804D01*
G01X3347863Y-6314129D01*
G01X3358037Y-6326382D01*
G01X3370839Y-6335856D01*
G01X3385530Y-6342004D01*
G01X3401264Y-6344473D01*
G01X3508197Y-6451406D01*
G01X3456880Y-6451406D01*
G01X3444323Y-6453059D01*
G01X3432623Y-6457906D01*
G01X3422575Y-6465616D01*
G01X3178495Y-6709696D01*
G01X3170785Y-6719744D01*
G01X3165938Y-6731445D01*
G01X3164285Y-6744001D01*
G01X3164285Y-6801505D01*
G01X3149496Y-6811033D01*
G01X3143810Y-6803562D01*
G01X3136377Y-6797825D01*
G01X3127708Y-6794217D01*
G01X3118400Y-6792986D01*
G01X3028400Y-6792986D01*
G01X3017333Y-6794739D01*
G01X3007349Y-6799826D01*
G01X2999426Y-6807749D01*
G01X2994339Y-6817733D01*
G01X2992586Y-6828800D01*
G01X2992586Y-6988800D01*
G01X2994339Y-6999867D01*
G01X2999426Y-7009851D01*
G01X3007349Y-7017774D01*
G01X3017333Y-7022861D01*
G01X3028400Y-7024614D01*
G01X3118400Y-7024614D01*
G01X3127708Y-7023383D01*
G01X3136377Y-7019775D01*
G01X3143810Y-7014038D01*
G01X3149496Y-7006567D01*
G01X3162849Y-7015360D01*
G01X3177672Y-7021352D01*
G01X3193385Y-7024309D01*
G01X3209372Y-7024114D01*
G01X3225008Y-7020776D01*
G01X3239681Y-7014425D01*
G01X3252816Y-7005309D01*
G01X3263900Y-6993786D01*
G01X3275614Y-7005841D01*
G01X3289568Y-7015212D01*
G01X3305159Y-7021493D01*
G01X3321712Y-7024413D01*
G01X3338511Y-7023846D01*
G01X3354830Y-7019816D01*
G01X3369961Y-7012498D01*
G01X3383252Y-7002208D01*
G01X3394126Y-6989390D01*
G01X3402114Y-6974601D01*
G01X3406870Y-6958479D01*
G01X3566612Y-7118221D01*
G01X3560092Y-7139114D01*
G01X3557293Y-7160821D01*
G01X3558297Y-7182685D01*
G01X3563076Y-7204044D01*
G01X3571483Y-7224251D01*
G01X3583266Y-7242696D01*
G01X3598067Y-7258820D01*
G01X3615438Y-7272134D01*
G01X3634853Y-7282237D01*
G01X3655726Y-7288822D01*
G01X3677424Y-7291691D01*
G01X3699291Y-7290755D01*
G01X3720664Y-7286044D01*
G01X3740898Y-7277700D01*
G01X3759380Y-7265976D01*
G01X3775550Y-7251227D01*
G01X3788920Y-7233898D01*
G01X3799084Y-7214514D01*
G01X4130899Y-7214514D01*
G01X4162417Y-7246033D01*
G01X4151407Y-7270037D01*
G01X4144123Y-7295421D01*
G01X4140731Y-7321611D01*
G01X4141306Y-7348014D01*
G01X4145836Y-7374031D01*
G01X4154218Y-7399074D01*
G01X4166263Y-7422576D01*
G01X4181698Y-7444004D01*
G01X4200173Y-7462875D01*
G01X4221271Y-7478759D01*
G01X4244512Y-7491299D01*
G01X4269373Y-7500209D01*
G01X4295288Y-7505289D01*
G01X4321673Y-7506422D01*
G01X4347928Y-7503584D01*
G01X4373461Y-7496839D01*
G01X4397693Y-7486340D01*
G01X4420075Y-7472323D01*
G01X4440101Y-7455107D01*
G01X4457317Y-7435082D01*
G01X4471333Y-7412699D01*
G01X4481833Y-7388468D01*
G01X4488578Y-7362935D01*
G01X4491415Y-7336679D01*
G01X4491169Y-7330949D01*
G01X5360492Y-7330949D01*
G01X5362453Y-7357108D01*
G01X5368290Y-7382683D01*
G01X5377874Y-7407102D01*
G01X5390990Y-7429820D01*
G01X5407345Y-7450329D01*
G01X5426575Y-7468172D01*
G01X5448249Y-7482949D01*
G01X5471884Y-7494331D01*
G01X5496951Y-7502063D01*
G01X5522890Y-7505972D01*
G01X5549122Y-7505972D01*
G01X5575062Y-7502063D01*
G01X5600129Y-7494331D01*
G01X5623763Y-7482949D01*
G01X5645437Y-7468172D01*
G01X5664667Y-7450329D01*
G01X5681023Y-7429820D01*
G01X5694139Y-7407102D01*
G01X5703723Y-7382683D01*
G01X5709560Y-7357108D01*
G01X5711520Y-7330949D01*
G01X5711520Y-7330949D01*
G01X5709560Y-7304790D01*
G01X5703723Y-7279216D01*
G01X5694139Y-7254797D01*
G01X5681023Y-7232079D01*
G01X5669010Y-7217015D01*
G01X6863271Y-7217015D01*
G01X6865162Y-7243459D01*
G01X6870797Y-7269365D01*
G01X6880062Y-7294205D01*
G01X6892768Y-7317474D01*
G01X6908656Y-7338697D01*
G01X6927402Y-7357444D01*
G01X6948626Y-7373331D01*
G01X6971894Y-7386037D01*
G01X6996734Y-7395302D01*
G01X7022640Y-7400937D01*
G01X7049084Y-7402829D01*
G01X7049084Y-7402829D01*
G01X7075528Y-7400937D01*
G01X7101434Y-7395302D01*
G01X7126274Y-7386037D01*
G01X7149543Y-7373331D01*
G01X7170766Y-7357444D01*
G01X7189513Y-7338697D01*
G01X7205401Y-7317474D01*
G01X7218106Y-7294205D01*
G01X7227371Y-7269365D01*
G01X7233007Y-7243459D01*
G01X7234898Y-7217015D01*
G01X7233007Y-7190571D01*
G01X7227371Y-7164665D01*
G01X7218106Y-7139825D01*
G01X7205401Y-7116557D01*
G01X7189513Y-7095333D01*
G01X7170766Y-7076586D01*
G01X7149543Y-7060699D01*
G01X7126274Y-7047993D01*
G01X7101434Y-7038728D01*
G01X7075528Y-7033093D01*
G01X7049084Y-7031201D01*
G01X7022640Y-7033093D01*
G01X6996734Y-7038728D01*
G01X6971894Y-7047993D01*
G01X6948626Y-7060699D01*
G01X6927402Y-7076586D01*
G01X6908656Y-7095333D01*
G01X6892768Y-7116557D01*
G01X6880062Y-7139825D01*
G01X6870797Y-7164665D01*
G01X6865162Y-7190571D01*
G01X6863271Y-7217015D01*
G01X5669010Y-7217015D01*
G01X5664667Y-7211569D01*
G01X5645437Y-7193727D01*
G01X5623763Y-7178950D01*
G01X5600129Y-7167568D01*
G01X5575062Y-7159836D01*
G01X5549122Y-7155926D01*
G01X5522890Y-7155926D01*
G01X5496951Y-7159836D01*
G01X5471884Y-7167568D01*
G01X5448249Y-7178950D01*
G01X5426575Y-7193727D01*
G01X5407345Y-7211569D01*
G01X5390990Y-7232079D01*
G01X5377874Y-7254797D01*
G01X5368290Y-7279216D01*
G01X5362453Y-7304790D01*
G01X5360492Y-7330949D01*
G01X4491169Y-7330949D01*
G01X4490282Y-7310295D01*
G01X4485202Y-7284379D01*
G01X4476292Y-7259519D01*
G01X4463753Y-7236277D01*
G01X4447868Y-7215180D01*
G01X4428998Y-7196705D01*
G01X4407569Y-7181270D01*
G01X4384067Y-7169225D01*
G01X4359024Y-7160843D01*
G01X4333007Y-7156313D01*
G01X4306605Y-7155737D01*
G01X4280415Y-7159130D01*
G01X4255030Y-7166414D01*
G01X4231026Y-7177424D01*
G01X4185298Y-7131696D01*
G01X4175251Y-7123986D01*
G01X4163550Y-7119139D01*
G01X4150994Y-7117486D01*
G01X3799084Y-7117486D01*
G01X3788944Y-7098140D01*
G01X3775610Y-7080839D01*
G01X3759485Y-7066105D01*
G01X3741055Y-7054382D01*
G01X3720875Y-7046023D01*
G01X3699553Y-7041280D01*
G01X3677733Y-7040297D01*
G01X3656071Y-7043102D01*
G01X3635221Y-7049612D01*
G01X3460104Y-6874495D01*
G01X3450057Y-6866786D01*
G01X3438356Y-6861939D01*
G01X3425800Y-6860286D01*
G01X3407076Y-6860286D01*
G01X3402517Y-6843996D01*
G01X3394668Y-6829012D01*
G01X3383871Y-6815990D01*
G01X3370600Y-6805502D01*
G01X3355436Y-6798005D01*
G01X3339044Y-6793829D01*
G01X3322141Y-6793157D01*
G01X3305469Y-6796019D01*
G01X3289758Y-6802288D01*
G01X3275697Y-6811690D01*
G01X3263900Y-6823814D01*
G01X3261313Y-6820692D01*
G01X3261313Y-6764096D01*
G01X3294408Y-6731001D01*
G01X3930180Y-6731001D01*
G01X3932071Y-6757445D01*
G01X3937707Y-6783351D01*
G01X3946971Y-6808191D01*
G01X3959677Y-6831460D01*
G01X3975565Y-6852684D01*
G01X3994312Y-6871430D01*
G01X4015535Y-6887318D01*
G01X4038804Y-6900024D01*
G01X4063644Y-6909288D01*
G01X4089550Y-6914924D01*
G01X4115994Y-6916815D01*
G01X7049094Y-6916815D01*
G01X7073712Y-6915177D01*
G01X7097895Y-6910293D01*
G01X7121218Y-6902247D01*
G01X7143269Y-6891182D01*
G01X7163660Y-6877294D01*
G01X7182032Y-6860826D01*
G01X7199651Y-6839908D01*
G01X7214009Y-6816630D01*
G01X7224795Y-6791497D01*
G01X7231774Y-6765052D01*
G01X7234796Y-6737870D01*
G01X7233795Y-6710538D01*
G01X7228793Y-6683650D01*
G01X7219898Y-6657787D01*
G01X7219898Y-6657787D01*
G01X7207303Y-6633510D01*
G01X7191281Y-6611344D01*
G01X7172178Y-6591771D01*
G01X7150410Y-6575214D01*
G01X7126446Y-6562031D01*
G01X7100808Y-6552509D01*
G01X7074049Y-6546854D01*
G01X7046750Y-6545187D01*
G01X4115994Y-6545187D01*
G01X4089550Y-6547079D01*
G01X4063644Y-6552714D01*
G01X4038804Y-6561979D01*
G01X4015535Y-6574685D01*
G01X3994312Y-6590572D01*
G01X3975565Y-6609319D01*
G01X3959677Y-6630543D01*
G01X3946971Y-6653811D01*
G01X3937707Y-6678651D01*
G01X3932071Y-6704557D01*
G01X3930180Y-6731001D01*
G01X3294408Y-6731001D01*
G01X3476975Y-6548434D01*
G01X3558480Y-6548434D01*
G01X3571036Y-6546781D01*
G01X3582737Y-6541935D01*
G01X3592784Y-6534225D01*
G01X3600494Y-6524177D01*
G01X3605341Y-6512477D01*
G01X3606994Y-6499920D01*
G01X3606994Y-6396260D01*
G01X3624278Y-6407269D01*
G01X3643121Y-6415326D01*
G01X3663021Y-6420217D01*
G01X3683452Y-6421813D01*
G01X3703870Y-6420070D01*
G01X3723735Y-6415036D01*
G01X3742519Y-6406844D01*
G01X3759724Y-6395712D01*
G01X3774894Y-6381933D01*
G01X3781988Y-6372986D01*
G01X6863271Y-6372986D01*
G01X6865023Y-6384053D01*
G01X6870110Y-6394037D01*
G01X6878034Y-6401960D01*
G01X6888017Y-6407047D01*
G01X6899085Y-6408800D01*
G01X7199084Y-6408800D01*
G01X7210151Y-6407047D01*
G01X7220135Y-6401960D01*
G01X7228058Y-6394037D01*
G01X7233145Y-6384053D01*
G01X7234898Y-6372986D01*
G01X7234898Y-6072986D01*
G01X7234898Y-6072986D01*
G01X7233145Y-6061919D01*
G01X7228058Y-6051935D01*
G01X7220135Y-6044012D01*
G01X7210151Y-6038925D01*
G01X7199084Y-6037172D01*
G01X6899085Y-6037172D01*
G01X6888017Y-6038925D01*
G01X6878034Y-6044012D01*
G01X6870110Y-6051935D01*
G01X6865023Y-6061919D01*
G01X6863271Y-6072986D01*
G01X6863271Y-6372986D01*
G01X3781988Y-6372986D01*
G01X3787625Y-6365875D01*
G01X3797581Y-6347964D01*
G01X3804497Y-6328673D01*
G01X3808190Y-6308516D01*
G01X3808561Y-6288027D01*
G01X3805601Y-6267749D01*
G01X3799388Y-6248220D01*
G01X3868092Y-6179516D01*
G01X4147318Y-6179516D01*
G01X4156506Y-6204275D01*
G01X4169305Y-6227375D01*
G01X4185425Y-6248293D01*
G01X4204501Y-6266556D01*
G01X4226101Y-6281749D01*
G01X4249737Y-6293530D01*
G01X4274872Y-6301631D01*
G01X4300938Y-6305870D01*
G01X4327346Y-6306149D01*
G01X4353496Y-6302463D01*
G01X4378797Y-6294895D01*
G01X4402676Y-6283617D01*
G01X4424593Y-6268884D01*
G01X4444051Y-6251029D01*
G01X4460610Y-6230457D01*
G01X4473895Y-6207633D01*
G01X4483605Y-6183074D01*
G01X4489521Y-6157336D01*
G01X4491504Y-6131053D01*
G01X5360492Y-6131053D01*
G01X5362453Y-6157212D01*
G01X5368290Y-6182787D01*
G01X5377874Y-6207206D01*
G01X5390990Y-6229924D01*
G01X5407345Y-6250433D01*
G01X5426575Y-6268276D01*
G01X5448249Y-6283053D01*
G01X5471884Y-6294435D01*
G01X5496951Y-6302167D01*
G01X5522890Y-6306076D01*
G01X5549122Y-6306076D01*
G01X5575062Y-6302167D01*
G01X5600129Y-6294435D01*
G01X5623763Y-6283053D01*
G01X5645437Y-6268276D01*
G01X5664667Y-6250433D01*
G01X5681023Y-6229924D01*
G01X5694139Y-6207206D01*
G01X5703723Y-6182787D01*
G01X5709560Y-6157212D01*
G01X5711520Y-6131053D01*
G01X5711520Y-6131053D01*
G01X5709560Y-6104894D01*
G01X5703723Y-6079320D01*
G01X5694139Y-6054901D01*
G01X5681023Y-6032183D01*
G01X5664667Y-6011673D01*
G01X5645437Y-5993831D01*
G01X5623763Y-5979054D01*
G01X5600129Y-5967672D01*
G01X5575062Y-5959940D01*
G01X5549122Y-5956030D01*
G01X5522890Y-5956030D01*
G01X5496951Y-5959940D01*
G01X5471884Y-5967672D01*
G01X5448249Y-5979054D01*
G01X5426575Y-5993831D01*
G01X5407345Y-6011673D01*
G01X5390990Y-6032183D01*
G01X5377874Y-6054901D01*
G01X5368290Y-6079320D01*
G01X5362453Y-6104894D01*
G01X5360492Y-6131053D01*
G01X4491504Y-6131053D01*
G01X4491507Y-6131002D01*
G01X4489521Y-6104669D01*
G01X4483605Y-6078931D01*
G01X4473895Y-6054372D01*
G01X4460610Y-6031548D01*
G01X4444051Y-6010976D01*
G01X4424593Y-5993121D01*
G01X4402676Y-5978388D01*
G01X4378797Y-5967110D01*
G01X4353496Y-5959542D01*
G01X4327346Y-5955856D01*
G01X4300938Y-5956135D01*
G01X4274872Y-5960374D01*
G01X4249737Y-5968475D01*
G01X4226101Y-5980256D01*
G01X4204501Y-5995449D01*
G01X4185425Y-6013712D01*
G01X4169305Y-6034630D01*
G01X4156506Y-6057730D01*
G01X4147318Y-6082488D01*
G01X3847997Y-6082488D01*
G01X3835441Y-6084142D01*
G01X3823740Y-6088988D01*
G01X3813693Y-6096698D01*
G01X3730779Y-6179611D01*
G01X3711975Y-6173568D01*
G01X3692457Y-6170542D01*
G01X3672706Y-6170608D01*
G01X3653208Y-6173764D01*
G01X3634445Y-6179933D01*
G01X3622790Y-6173996D01*
G01X3643103Y-6165305D01*
G01X3661739Y-6153434D01*
G01X3678203Y-6138699D01*
G01X3692060Y-6121490D01*
G01X3702944Y-6102261D01*
G01X3710565Y-6081522D01*
G01X3714723Y-6059822D01*
G01X3715307Y-6037735D01*
G01X3712302Y-6015845D01*
G01X3705787Y-5994732D01*
G01X3695935Y-5974955D01*
G01X3683007Y-5957037D01*
G01X3667345Y-5941453D01*
G01X3649362Y-5928614D01*
G01X6959600Y-5928614D01*
G01X6972156Y-5926961D01*
G01X6983857Y-5922114D01*
G01X6993905Y-5914405D01*
G01X7374905Y-5533405D01*
G01X7381203Y-5525652D01*
G01X7385780Y-5516774D01*
G01X7388442Y-5507146D01*
G01X7395708Y-5497261D01*
G01X7400263Y-5485870D01*
G01X7401814Y-5473700D01*
G01X7401814Y-5309304D01*
G01X7400161Y-5296747D01*
G01X7395314Y-5285047D01*
G01X7387605Y-5274999D01*
G01X7255796Y-5143191D01*
G01X7260721Y-5123715D01*
G01X7262088Y-5103674D01*
G01X7259853Y-5083710D01*
G01X7254088Y-5064467D01*
G01X7244979Y-5046563D01*
G01X7232819Y-5030574D01*
G01X7217998Y-5017014D01*
G01X7200993Y-5006319D01*
G01X7182352Y-4998833D01*
G01X7162674Y-4994798D01*
G01X7142591Y-4994342D01*
G01X7122749Y-4997480D01*
G01X7103787Y-5004112D01*
G01X7086315Y-5014024D01*
G01X7070894Y-5026898D01*
G01X7058021Y-5042319D01*
G01X7048108Y-5059791D01*
G01X7041476Y-5078753D01*
G01X7038338Y-5098594D01*
G01X7038794Y-5118677D01*
G01X7042830Y-5138356D01*
G01X7050315Y-5156997D01*
G01X7061010Y-5174002D01*
G01X7074570Y-5188822D01*
G01X7090559Y-5200983D01*
G01X7108464Y-5210092D01*
G01X7127707Y-5215856D01*
G01X7147670Y-5218091D01*
G01X7167712Y-5216724D01*
G01X7187187Y-5211800D01*
G01X7292086Y-5316699D01*
G01X7292086Y-5349743D01*
G01X7281538Y-5350398D01*
G01X7271382Y-5353321D01*
G01X7262101Y-5358375D01*
G01X7260156Y-5339250D01*
G01X7254970Y-5320740D01*
G01X7246695Y-5303389D01*
G01X7235576Y-5287709D01*
G01X7221939Y-5274160D01*
G01X7206187Y-5263143D01*
G01X7188783Y-5254981D01*
G01X7170240Y-5249915D01*
G01X7151103Y-5248094D01*
G01X7131937Y-5249572D01*
G01X7113306Y-5254305D01*
G01X7095759Y-5262154D01*
G01X7079811Y-5272887D01*
G01X7065934Y-5286190D01*
G01X6590596Y-5286190D01*
G01X6578040Y-5287843D01*
G01X6566339Y-5292689D01*
G01X6556292Y-5300399D01*
G01X6540500Y-5316191D01*
G01X6509466Y-5285157D01*
G01X6514689Y-5266128D01*
G01X6516606Y-5246489D01*
G01X6515161Y-5226810D01*
G01X6510396Y-5207662D01*
G01X6502450Y-5189600D01*
G01X6491553Y-5173150D01*
G01X6478021Y-5158788D01*
G01X6485905Y-5152405D01*
G01X6562105Y-5076205D01*
G01X6569814Y-5066157D01*
G01X6574661Y-5054456D01*
G01X6576314Y-5041900D01*
G01X6576314Y-4852104D01*
G01X7038086Y-4852104D01*
G01X7039993Y-4872686D01*
G01X7045650Y-4892568D01*
G01X7054864Y-4911071D01*
G01X7067321Y-4927567D01*
G01X7082596Y-4941493D01*
G01X7100171Y-4952374D01*
G01X7119446Y-4959842D01*
G01X7139765Y-4963640D01*
G01X7160435Y-4963640D01*
G01X7180754Y-4959842D01*
G01X7200029Y-4952374D01*
G01X7217604Y-4941493D01*
G01X7232879Y-4927567D01*
G01X7245336Y-4911071D01*
G01X7254550Y-4892568D01*
G01X7260207Y-4872686D01*
G01X7262114Y-4852104D01*
G01X7260207Y-4831521D01*
G01X7254550Y-4811639D01*
G01X7245336Y-4793136D01*
G01X7232879Y-4776640D01*
G01X7217604Y-4762714D01*
G01X7200029Y-4751833D01*
G01X7180754Y-4744366D01*
G01X7160435Y-4740567D01*
G01X7139765Y-4740567D01*
G01X7119446Y-4744366D01*
G01X7100171Y-4751833D01*
G01X7082596Y-4762714D01*
G01X7067321Y-4776640D01*
G01X7054864Y-4793136D01*
G01X7045650Y-4811639D01*
G01X7039993Y-4831521D01*
G01X7038086Y-4852104D01*
G01X7038086Y-4852104D01*
G01X6576314Y-4852104D01*
G01X6576314Y-4598104D01*
G01X7038086Y-4598104D01*
G01X7039993Y-4618686D01*
G01X7045650Y-4638568D01*
G01X7054864Y-4657071D01*
G01X7067321Y-4673567D01*
G01X7082596Y-4687493D01*
G01X7100171Y-4698374D01*
G01X7119446Y-4705842D01*
G01X7139765Y-4709640D01*
G01X7160435Y-4709640D01*
G01X7180754Y-4705842D01*
G01X7200029Y-4698374D01*
G01X7217604Y-4687493D01*
G01X7232879Y-4673567D01*
G01X7245336Y-4657071D01*
G01X7254550Y-4638568D01*
G01X7260207Y-4618686D01*
G01X7262114Y-4598104D01*
G01X7260207Y-4577521D01*
G01X7254550Y-4557639D01*
G01X7245336Y-4539136D01*
G01X7232879Y-4522640D01*
G01X7217604Y-4508714D01*
G01X7200029Y-4497833D01*
G01X7180754Y-4490366D01*
G01X7160435Y-4486567D01*
G01X7139765Y-4486567D01*
G01X7119446Y-4490366D01*
G01X7100171Y-4497833D01*
G01X7082596Y-4508714D01*
G01X7067321Y-4522640D01*
G01X7054864Y-4539136D01*
G01X7045650Y-4557639D01*
G01X7039993Y-4577521D01*
G01X7038086Y-4598104D01*
G01X7038086Y-4598104D01*
G01X6576314Y-4598104D01*
G01X6576314Y-4344104D01*
G01X7038086Y-4344104D01*
G01X7039993Y-4364686D01*
G01X7045650Y-4384568D01*
G01X7054864Y-4403071D01*
G01X7067321Y-4419567D01*
G01X7082596Y-4433493D01*
G01X7100171Y-4444374D01*
G01X7119446Y-4451842D01*
G01X7139765Y-4455640D01*
G01X7160435Y-4455640D01*
G01X7180754Y-4451842D01*
G01X7200029Y-4444374D01*
G01X7217604Y-4433493D01*
G01X7232879Y-4419567D01*
G01X7245336Y-4403071D01*
G01X7254550Y-4384568D01*
G01X7260207Y-4364686D01*
G01X7262114Y-4344104D01*
G01X7260207Y-4323521D01*
G01X7254550Y-4303639D01*
G01X7245336Y-4285136D01*
G01X7232879Y-4268640D01*
G01X7217604Y-4254714D01*
G01X7200029Y-4243833D01*
G01X7180754Y-4236366D01*
G01X7160435Y-4232567D01*
G01X7139765Y-4232567D01*
G01X7119446Y-4236366D01*
G01X7100171Y-4243833D01*
G01X7082596Y-4254714D01*
G01X7067321Y-4268640D01*
G01X7054864Y-4285136D01*
G01X7045650Y-4303639D01*
G01X7039993Y-4323521D01*
G01X7038086Y-4344104D01*
G01X7038086Y-4344104D01*
G01X6576314Y-4344104D01*
G01X6576314Y-4178300D01*
G01X6574661Y-4165744D01*
G01X6569814Y-4154043D01*
G01X6562105Y-4143995D01*
G01X6485905Y-4067795D01*
G01X6478021Y-4061412D01*
G01X6486786Y-4052004D01*
G01X6961886Y-4052004D01*
G01X6963674Y-4065052D01*
G01X6968905Y-4077138D01*
G01X6977194Y-4087372D01*
G01X6987930Y-4095000D01*
G01X7000322Y-4099459D01*
G01X7013457Y-4100421D01*
G01X7026366Y-4097815D01*
G01X7038099Y-4091833D01*
G01X7040065Y-4111066D01*
G01X7045309Y-4129676D01*
G01X7053675Y-4147106D01*
G01X7064913Y-4162838D01*
G01X7078689Y-4176403D01*
G01X7094593Y-4187397D01*
G01X7112150Y-4195493D01*
G01X7130838Y-4200449D01*
G01X7150100Y-4202118D01*
G01X7169362Y-4200449D01*
G01X7188050Y-4195493D01*
G01X7205607Y-4187397D01*
G01X7221511Y-4176403D01*
G01X7235287Y-4162838D01*
G01X7246525Y-4147106D01*
G01X7254891Y-4129676D01*
G01X7260135Y-4111066D01*
G01X7262101Y-4091833D01*
G01X7273834Y-4097815D01*
G01X7286743Y-4100421D01*
G01X7299878Y-4099459D01*
G01X7312270Y-4095000D01*
G01X7323006Y-4087372D01*
G01X7331295Y-4077138D01*
G01X7336526Y-4065052D01*
G01X7338314Y-4052004D01*
G01X7338314Y-3975804D01*
G01X7336661Y-3963247D01*
G01X7331814Y-3951547D01*
G01X7324105Y-3941499D01*
G01X7314057Y-3933789D01*
G01X7302356Y-3928943D01*
G01X7289800Y-3927290D01*
G01X7213600Y-3927290D01*
G01X7200511Y-3929089D01*
G01X7188394Y-3934352D01*
G01X7178145Y-3942689D01*
G01X7170526Y-3953483D01*
G01X7166101Y-3965931D01*
G01X7165199Y-3979112D01*
G01X7150100Y-3978090D01*
G01X7135001Y-3979112D01*
G01X7134099Y-3965931D01*
G01X7129674Y-3953483D01*
G01X7122055Y-3942689D01*
G01X7111806Y-3934352D01*
G01X7099689Y-3929089D01*
G01X7086600Y-3927290D01*
G01X7010400Y-3927290D01*
G01X6997844Y-3928943D01*
G01X6986143Y-3933789D01*
G01X6976095Y-3941499D01*
G01X6968386Y-3951547D01*
G01X6963539Y-3963247D01*
G01X6961886Y-3975804D01*
G01X6961886Y-4052004D01*
G01X6961886Y-4052004D01*
G01X6486786Y-4052004D01*
G01X6492355Y-4046027D01*
G01X6503670Y-4028303D01*
G01X6511594Y-4008826D01*
G01X6515866Y-3988237D01*
G01X6516345Y-3967215D01*
G01X6513015Y-3946453D01*
G01X6505986Y-3926635D01*
G01X6495489Y-3908415D01*
G01X6481871Y-3892393D01*
G01X6465580Y-3879098D01*
G01X6447154Y-3868967D01*
G01X6427199Y-3862335D01*
G01X6406375Y-3859420D01*
G01X6385367Y-3860319D01*
G01X6364867Y-3865002D01*
G01X6345552Y-3873313D01*
G01X6328058Y-3884981D01*
G01X6312963Y-3899619D01*
G01X6300762Y-3916745D01*
G01X6291860Y-3935795D01*
G01X6286549Y-3956140D01*
G01X6285004Y-3977111D01*
G01X6287276Y-3998015D01*
G01X6293290Y-4018164D01*
G01X6302849Y-4036894D01*
G01X6315637Y-4053586D01*
G01X2661695Y-4053586D01*
G01X2409209Y-3801100D01*
G01X6284986Y-3801100D01*
G01X6286739Y-3812167D01*
G01X6291826Y-3822151D01*
G01X6299749Y-3830074D01*
G01X6309733Y-3835161D01*
G01X6320800Y-3836914D01*
G01X6480800Y-3836914D01*
G01X6491867Y-3835161D01*
G01X6501851Y-3830074D01*
G01X6509774Y-3822151D01*
G01X6514861Y-3812167D01*
G01X6516614Y-3801100D01*
G01X6516614Y-3641100D01*
G01X6514861Y-3630033D01*
G01X6509774Y-3620049D01*
G01X6501851Y-3612126D01*
G01X6491867Y-3607039D01*
G01X6480800Y-3605286D01*
G01X6320800Y-3605286D01*
G01X6309733Y-3607039D01*
G01X6299749Y-3612126D01*
G01X6291826Y-3620049D01*
G01X6286739Y-3630033D01*
G01X6284986Y-3641100D01*
G01X6284986Y-3801100D01*
G01X6284986Y-3801100D01*
G01X2409209Y-3801100D01*
G01X1937370Y-3329261D01*
G01X6998695Y-3329261D01*
G01X6998695Y-3347739D01*
G01X7002537Y-3365814D01*
G01X7010052Y-3382695D01*
G01X7020914Y-3397644D01*
G01X7034646Y-3410008D01*
G01X7050649Y-3419248D01*
G01X7068223Y-3424958D01*
G01X7086600Y-3426889D01*
G01X7086600Y-3426889D01*
G01X7104977Y-3424958D01*
G01X7122551Y-3419248D01*
G01X7138554Y-3410008D01*
G01X7152286Y-3397644D01*
G01X7163148Y-3382695D01*
G01X7170663Y-3365814D01*
G01X7174505Y-3347739D01*
G01X7174505Y-3329261D01*
G01X7170663Y-3311186D01*
G01X7163148Y-3294305D01*
G01X7152286Y-3279356D01*
G01X7138554Y-3266991D01*
G01X7122551Y-3257752D01*
G01X7104977Y-3252042D01*
G01X7086600Y-3250110D01*
G01X7068223Y-3252042D01*
G01X7050649Y-3257752D01*
G01X7034646Y-3266991D01*
G01X7020914Y-3279356D01*
G01X7010052Y-3294305D01*
G01X7002537Y-3311186D01*
G01X6998695Y-3329261D01*
G01X1937370Y-3329261D01*
G01X1807496Y-3199387D01*
G01X1812421Y-3179912D01*
G01X1813788Y-3159870D01*
G01X1812903Y-3151965D01*
G01X1844264Y-3151965D01*
G01X1844264Y-3172635D01*
G01X1848062Y-3192954D01*
G01X1855529Y-3212229D01*
G01X1866411Y-3229804D01*
G01X1880337Y-3245079D01*
G01X1896832Y-3257536D01*
G01X1915336Y-3266750D01*
G01X1935217Y-3272407D01*
G01X1955800Y-3274314D01*
G01X1976383Y-3272407D01*
G01X1996264Y-3266750D01*
G01X2014768Y-3257536D01*
G01X2031263Y-3245079D01*
G01X2045189Y-3229804D01*
G01X2056071Y-3212229D01*
G01X2063538Y-3192954D01*
G01X2067336Y-3172635D01*
G01X2067336Y-3151965D01*
G01X2067336Y-3151965D01*
G01X2098264Y-3151965D01*
G01X2098264Y-3172635D01*
G01X2102062Y-3192954D01*
G01X2109529Y-3212229D01*
G01X2120411Y-3229804D01*
G01X2134337Y-3245079D01*
G01X2150832Y-3257536D01*
G01X2169336Y-3266750D01*
G01X2189217Y-3272407D01*
G01X2209800Y-3274314D01*
G01X2230383Y-3272407D01*
G01X2250264Y-3266750D01*
G01X2268768Y-3257536D01*
G01X2285263Y-3245079D01*
G01X2299189Y-3229804D01*
G01X2310071Y-3212229D01*
G01X2317538Y-3192954D01*
G01X2321336Y-3172635D01*
G01X2321336Y-3151965D01*
G01X2321336Y-3151965D01*
G01X2352264Y-3151965D01*
G01X2352264Y-3172635D01*
G01X2356062Y-3192954D01*
G01X2363529Y-3212229D01*
G01X2374411Y-3229804D01*
G01X2388337Y-3245079D01*
G01X2404832Y-3257536D01*
G01X2423336Y-3266750D01*
G01X2443217Y-3272407D01*
G01X2463800Y-3274314D01*
G01X2484383Y-3272407D01*
G01X2504264Y-3266750D01*
G01X2522768Y-3257536D01*
G01X2539263Y-3245079D01*
G01X2553189Y-3229804D01*
G01X2564071Y-3212229D01*
G01X2571538Y-3192954D01*
G01X2575336Y-3172635D01*
G01X2575336Y-3151965D01*
G01X2575336Y-3151965D01*
G01X2606264Y-3151965D01*
G01X2606264Y-3172635D01*
G01X2610062Y-3192954D01*
G01X2617529Y-3212229D01*
G01X2628411Y-3229804D01*
G01X2642337Y-3245079D01*
G01X2658832Y-3257536D01*
G01X2677336Y-3266750D01*
G01X2697217Y-3272407D01*
G01X2717800Y-3274314D01*
G01X2738383Y-3272407D01*
G01X2758264Y-3266750D01*
G01X2776768Y-3257536D01*
G01X2793263Y-3245079D01*
G01X2807189Y-3229804D01*
G01X2818071Y-3212229D01*
G01X2825538Y-3192954D01*
G01X2829336Y-3172635D01*
G01X2829336Y-3151965D01*
G01X2829336Y-3151965D01*
G01X2860264Y-3151965D01*
G01X2860264Y-3172635D01*
G01X2864062Y-3192954D01*
G01X2871529Y-3212229D01*
G01X2882411Y-3229804D01*
G01X2896337Y-3245079D01*
G01X2912832Y-3257536D01*
G01X2931336Y-3266750D01*
G01X2951217Y-3272407D01*
G01X2971800Y-3274314D01*
G01X2992383Y-3272407D01*
G01X3012264Y-3266750D01*
G01X3030768Y-3257536D01*
G01X3047263Y-3245079D01*
G01X3061189Y-3229804D01*
G01X3072071Y-3212229D01*
G01X3079538Y-3192954D01*
G01X3083336Y-3172635D01*
G01X3083336Y-3151965D01*
G01X3083336Y-3151965D01*
G01X3114264Y-3151965D01*
G01X3114264Y-3172635D01*
G01X3118062Y-3192954D01*
G01X3125529Y-3212229D01*
G01X3136411Y-3229804D01*
G01X3150337Y-3245079D01*
G01X3166832Y-3257536D01*
G01X3185336Y-3266750D01*
G01X3205217Y-3272407D01*
G01X3225800Y-3274314D01*
G01X3246383Y-3272407D01*
G01X3266264Y-3266750D01*
G01X3284768Y-3257536D01*
G01X3301263Y-3245079D01*
G01X3315189Y-3229804D01*
G01X3326071Y-3212229D01*
G01X3333538Y-3192954D01*
G01X3337336Y-3172635D01*
G01X3337336Y-3151965D01*
G01X3337336Y-3151965D01*
G01X3368264Y-3151965D01*
G01X3368264Y-3172635D01*
G01X3372062Y-3192954D01*
G01X3379529Y-3212229D01*
G01X3390411Y-3229804D01*
G01X3404337Y-3245079D01*
G01X3420832Y-3257536D01*
G01X3439336Y-3266750D01*
G01X3459217Y-3272407D01*
G01X3479800Y-3274314D01*
G01X3500383Y-3272407D01*
G01X3520264Y-3266750D01*
G01X3538768Y-3257536D01*
G01X3555263Y-3245079D01*
G01X3569189Y-3229804D01*
G01X3580071Y-3212229D01*
G01X3587538Y-3192954D01*
G01X3591336Y-3172635D01*
G01X3591336Y-3151965D01*
G01X3591336Y-3151965D01*
G01X3622264Y-3151965D01*
G01X3622264Y-3172635D01*
G01X3626062Y-3192954D01*
G01X3633529Y-3212229D01*
G01X3644411Y-3229804D01*
G01X3658337Y-3245079D01*
G01X3674832Y-3257536D01*
G01X3693336Y-3266750D01*
G01X3713217Y-3272407D01*
G01X3733800Y-3274314D01*
G01X3754383Y-3272407D01*
G01X3774264Y-3266750D01*
G01X3792768Y-3257536D01*
G01X3809263Y-3245079D01*
G01X3823189Y-3229804D01*
G01X3834071Y-3212229D01*
G01X3841538Y-3192954D01*
G01X3845336Y-3172635D01*
G01X3845336Y-3151965D01*
G01X3845336Y-3151965D01*
G01X3876264Y-3151965D01*
G01X3876264Y-3172635D01*
G01X3880062Y-3192954D01*
G01X3887529Y-3212229D01*
G01X3898411Y-3229804D01*
G01X3912337Y-3245079D01*
G01X3928832Y-3257536D01*
G01X3947336Y-3266750D01*
G01X3967217Y-3272407D01*
G01X3987800Y-3274314D01*
G01X4008383Y-3272407D01*
G01X4028264Y-3266750D01*
G01X4046768Y-3257536D01*
G01X4063263Y-3245079D01*
G01X4077189Y-3229804D01*
G01X4088071Y-3212229D01*
G01X4095538Y-3192954D01*
G01X4099336Y-3172635D01*
G01X4099336Y-3151965D01*
G01X4099336Y-3151965D01*
G01X4130264Y-3151965D01*
G01X4130264Y-3172635D01*
G01X4134062Y-3192954D01*
G01X4141529Y-3212229D01*
G01X4152411Y-3229804D01*
G01X4166337Y-3245079D01*
G01X4182832Y-3257536D01*
G01X4201336Y-3266750D01*
G01X4221217Y-3272407D01*
G01X4241800Y-3274314D01*
G01X4262383Y-3272407D01*
G01X4282264Y-3266750D01*
G01X4300768Y-3257536D01*
G01X4317263Y-3245079D01*
G01X4331189Y-3229804D01*
G01X4342071Y-3212229D01*
G01X4349538Y-3192954D01*
G01X4353336Y-3172635D01*
G01X4353336Y-3151965D01*
G01X4384264Y-3151965D01*
G01X4384264Y-3172635D01*
G01X4388062Y-3192954D01*
G01X4395529Y-3212229D01*
G01X4406411Y-3229804D01*
G01X4420337Y-3245079D01*
G01X4436832Y-3257536D01*
G01X4455336Y-3266750D01*
G01X4475217Y-3272407D01*
G01X4495800Y-3274314D01*
G01X4516383Y-3272407D01*
G01X4536264Y-3266750D01*
G01X4554768Y-3257536D01*
G01X4571263Y-3245079D01*
G01X4585189Y-3229804D01*
G01X4596071Y-3212229D01*
G01X4603538Y-3192954D01*
G01X4607336Y-3172635D01*
G01X4607336Y-3151965D01*
G01X4607336Y-3151965D01*
G01X4638264Y-3151965D01*
G01X4638264Y-3172635D01*
G01X4642062Y-3192954D01*
G01X4649529Y-3212229D01*
G01X4660411Y-3229804D01*
G01X4674337Y-3245079D01*
G01X4690832Y-3257536D01*
G01X4709336Y-3266750D01*
G01X4729217Y-3272407D01*
G01X4749800Y-3274314D01*
G01X4770383Y-3272407D01*
G01X4790264Y-3266750D01*
G01X4808768Y-3257536D01*
G01X4825263Y-3245079D01*
G01X4839189Y-3229804D01*
G01X4850071Y-3212229D01*
G01X4857538Y-3192954D01*
G01X4861336Y-3172635D01*
G01X4861336Y-3151965D01*
G01X4858520Y-3136900D01*
G01X5933387Y-3136900D01*
G01X5935359Y-3158181D01*
G01X5941207Y-3178737D01*
G01X5950734Y-3197868D01*
G01X5963613Y-3214923D01*
G01X5979407Y-3229321D01*
G01X5997578Y-3240572D01*
G01X6017507Y-3248293D01*
G01X6038515Y-3252220D01*
G01X6059886Y-3252220D01*
G01X6080894Y-3248293D01*
G01X6100823Y-3240572D01*
G01X6118994Y-3229321D01*
G01X6134788Y-3214923D01*
G01X6147667Y-3197868D01*
G01X6157194Y-3178737D01*
G01X6163042Y-3158181D01*
G01X6165014Y-3136900D01*
G01X6165014Y-3136900D01*
G01X6433386Y-3136900D01*
G01X6435358Y-3158181D01*
G01X6441206Y-3178737D01*
G01X6450733Y-3197868D01*
G01X6463612Y-3214923D01*
G01X6479406Y-3229321D01*
G01X6497577Y-3240572D01*
G01X6517506Y-3248293D01*
G01X6538514Y-3252220D01*
G01X6559885Y-3252220D01*
G01X6580893Y-3248293D01*
G01X6600822Y-3240572D01*
G01X6618993Y-3229321D01*
G01X6634787Y-3214923D01*
G01X6647666Y-3197868D01*
G01X6657193Y-3178737D01*
G01X6663041Y-3158181D01*
G01X6665013Y-3136900D01*
G01X6664305Y-3129261D01*
G01X6998695Y-3129261D01*
G01X6998695Y-3147739D01*
G01X7002537Y-3165814D01*
G01X7010052Y-3182695D01*
G01X7020914Y-3197644D01*
G01X7034646Y-3210009D01*
G01X7050649Y-3219248D01*
G01X7068223Y-3224958D01*
G01X7086600Y-3226890D01*
G01X7104977Y-3224958D01*
G01X7122551Y-3219248D01*
G01X7138554Y-3210009D01*
G01X7152286Y-3197644D01*
G01X7163148Y-3182695D01*
G01X7170663Y-3165814D01*
G01X7174505Y-3147739D01*
G01X7174505Y-3129261D01*
G01X7170663Y-3111186D01*
G01X7163148Y-3094305D01*
G01X7152286Y-3079356D01*
G01X7138554Y-3066992D01*
G01X7122551Y-3057752D01*
G01X7104977Y-3052042D01*
G01X7086600Y-3050111D01*
G01X7086600Y-3050111D01*
G01X7068223Y-3052042D01*
G01X7050649Y-3057752D01*
G01X7034646Y-3066992D01*
G01X7020914Y-3079356D01*
G01X7010052Y-3094305D01*
G01X7002537Y-3111186D01*
G01X6998695Y-3129261D01*
G01X6664305Y-3129261D01*
G01X6663041Y-3115619D01*
G01X6657193Y-3095063D01*
G01X6647666Y-3075932D01*
G01X6634787Y-3058877D01*
G01X6618993Y-3044479D01*
G01X6600822Y-3033228D01*
G01X6580893Y-3025507D01*
G01X6559885Y-3021580D01*
G01X6538514Y-3021580D01*
G01X6517506Y-3025507D01*
G01X6497577Y-3033228D01*
G01X6479406Y-3044479D01*
G01X6463612Y-3058877D01*
G01X6450733Y-3075932D01*
G01X6441206Y-3095063D01*
G01X6435358Y-3115619D01*
G01X6433386Y-3136900D01*
G01X6433386Y-3136900D01*
G01X6165014Y-3136900D01*
G01X6163042Y-3115619D01*
G01X6157194Y-3095063D01*
G01X6147667Y-3075932D01*
G01X6134788Y-3058877D01*
G01X6118994Y-3044479D01*
G01X6100823Y-3033228D01*
G01X6080894Y-3025507D01*
G01X6059886Y-3021580D01*
G01X6038515Y-3021580D01*
G01X6017507Y-3025507D01*
G01X5997578Y-3033228D01*
G01X5979407Y-3044479D01*
G01X5963613Y-3058877D01*
G01X5950734Y-3075932D01*
G01X5941207Y-3095063D01*
G01X5935359Y-3115619D01*
G01X5933387Y-3136900D01*
G01X5933387Y-3136900D01*
G01X4858520Y-3136900D01*
G01X4857538Y-3131646D01*
G01X4850071Y-3112371D01*
G01X4839189Y-3094796D01*
G01X4825263Y-3079521D01*
G01X4808768Y-3067064D01*
G01X4790264Y-3057850D01*
G01X4770383Y-3052193D01*
G01X4749800Y-3050286D01*
G01X4749800Y-3050286D01*
G01X4729217Y-3052193D01*
G01X4709336Y-3057850D01*
G01X4690832Y-3067064D01*
G01X4674337Y-3079521D01*
G01X4660411Y-3094796D01*
G01X4649529Y-3112371D01*
G01X4642062Y-3131646D01*
G01X4638264Y-3151965D01*
G01X4607336Y-3151965D01*
G01X4603538Y-3131646D01*
G01X4596071Y-3112371D01*
G01X4585189Y-3094796D01*
G01X4571263Y-3079521D01*
G01X4554768Y-3067064D01*
G01X4536264Y-3057850D01*
G01X4516383Y-3052193D01*
G01X4495800Y-3050286D01*
G01X4495800Y-3050286D01*
G01X4475217Y-3052193D01*
G01X4455336Y-3057850D01*
G01X4436832Y-3067064D01*
G01X4420337Y-3079521D01*
G01X4406411Y-3094796D01*
G01X4395529Y-3112371D01*
G01X4388062Y-3131646D01*
G01X4384264Y-3151965D01*
G01X4353336Y-3151965D01*
G01X4353336Y-3151965D01*
G01X4349538Y-3131646D01*
G01X4342071Y-3112371D01*
G01X4331189Y-3094796D01*
G01X4317263Y-3079521D01*
G01X4300768Y-3067064D01*
G01X4282264Y-3057850D01*
G01X4262383Y-3052193D01*
G01X4241800Y-3050286D01*
G01X4241800Y-3050286D01*
G01X4221217Y-3052193D01*
G01X4201336Y-3057850D01*
G01X4182832Y-3067064D01*
G01X4166337Y-3079521D01*
G01X4152411Y-3094796D01*
G01X4141529Y-3112371D01*
G01X4134062Y-3131646D01*
G01X4130264Y-3151965D01*
G01X4099336Y-3151965D01*
G01X4095538Y-3131646D01*
G01X4088071Y-3112371D01*
G01X4077189Y-3094796D01*
G01X4063263Y-3079521D01*
G01X4046768Y-3067064D01*
G01X4028264Y-3057850D01*
G01X4008383Y-3052193D01*
G01X3987800Y-3050286D01*
G01X3987800Y-3050286D01*
G01X3967217Y-3052193D01*
G01X3947336Y-3057850D01*
G01X3928832Y-3067064D01*
G01X3912337Y-3079521D01*
G01X3898411Y-3094796D01*
G01X3887529Y-3112371D01*
G01X3880062Y-3131646D01*
G01X3876264Y-3151965D01*
G01X3845336Y-3151965D01*
G01X3841538Y-3131646D01*
G01X3834071Y-3112371D01*
G01X3823189Y-3094796D01*
G01X3809263Y-3079521D01*
G01X3792768Y-3067064D01*
G01X3774264Y-3057850D01*
G01X3754383Y-3052193D01*
G01X3733800Y-3050286D01*
G01X3733800Y-3050286D01*
G01X3713217Y-3052193D01*
G01X3693336Y-3057850D01*
G01X3674832Y-3067064D01*
G01X3658337Y-3079521D01*
G01X3644411Y-3094796D01*
G01X3633529Y-3112371D01*
G01X3626062Y-3131646D01*
G01X3622264Y-3151965D01*
G01X3591336Y-3151965D01*
G01X3587538Y-3131646D01*
G01X3580071Y-3112371D01*
G01X3569189Y-3094796D01*
G01X3555263Y-3079521D01*
G01X3538768Y-3067064D01*
G01X3520264Y-3057850D01*
G01X3500383Y-3052193D01*
G01X3479800Y-3050286D01*
G01X3479800Y-3050286D01*
G01X3459217Y-3052193D01*
G01X3439336Y-3057850D01*
G01X3420832Y-3067064D01*
G01X3404337Y-3079521D01*
G01X3390411Y-3094796D01*
G01X3379529Y-3112371D01*
G01X3372062Y-3131646D01*
G01X3368264Y-3151965D01*
G01X3337336Y-3151965D01*
G01X3333538Y-3131646D01*
G01X3326071Y-3112371D01*
G01X3315189Y-3094796D01*
G01X3301263Y-3079521D01*
G01X3284768Y-3067064D01*
G01X3266264Y-3057850D01*
G01X3246383Y-3052193D01*
G01X3225800Y-3050286D01*
G01X3225800Y-3050286D01*
G01X3205217Y-3052193D01*
G01X3185336Y-3057850D01*
G01X3166832Y-3067064D01*
G01X3150337Y-3079521D01*
G01X3136411Y-3094796D01*
G01X3125529Y-3112371D01*
G01X3118062Y-3131646D01*
G01X3114264Y-3151965D01*
G01X3083336Y-3151965D01*
G01X3079538Y-3131646D01*
G01X3072071Y-3112371D01*
G01X3061189Y-3094796D01*
G01X3047263Y-3079521D01*
G01X3030768Y-3067064D01*
G01X3012264Y-3057850D01*
G01X2992383Y-3052193D01*
G01X2971800Y-3050286D01*
G01X2971800Y-3050286D01*
G01X2951217Y-3052193D01*
G01X2931336Y-3057850D01*
G01X2912832Y-3067064D01*
G01X2896337Y-3079521D01*
G01X2882411Y-3094796D01*
G01X2871529Y-3112371D01*
G01X2864062Y-3131646D01*
G01X2860264Y-3151965D01*
G01X2829336Y-3151965D01*
G01X2825538Y-3131646D01*
G01X2818071Y-3112371D01*
G01X2807189Y-3094796D01*
G01X2793263Y-3079521D01*
G01X2776768Y-3067064D01*
G01X2758264Y-3057850D01*
G01X2738383Y-3052193D01*
G01X2717800Y-3050286D01*
G01X2717800Y-3050286D01*
G01X2697217Y-3052193D01*
G01X2677336Y-3057850D01*
G01X2658832Y-3067064D01*
G01X2642337Y-3079521D01*
G01X2628411Y-3094796D01*
G01X2617529Y-3112371D01*
G01X2610062Y-3131646D01*
G01X2606264Y-3151965D01*
G01X2575336Y-3151965D01*
G01X2571538Y-3131646D01*
G01X2564071Y-3112371D01*
G01X2553189Y-3094796D01*
G01X2539263Y-3079521D01*
G01X2522768Y-3067064D01*
G01X2504264Y-3057850D01*
G01X2484383Y-3052193D01*
G01X2463800Y-3050286D01*
G01X2463800Y-3050286D01*
G01X2443217Y-3052193D01*
G01X2423336Y-3057850D01*
G01X2404832Y-3067064D01*
G01X2388337Y-3079521D01*
G01X2374411Y-3094796D01*
G01X2363529Y-3112371D01*
G01X2356062Y-3131646D01*
G01X2352264Y-3151965D01*
G01X2321336Y-3151965D01*
G01X2317538Y-3131646D01*
G01X2310071Y-3112371D01*
G01X2299189Y-3094796D01*
G01X2285263Y-3079521D01*
G01X2268768Y-3067064D01*
G01X2250264Y-3057850D01*
G01X2230383Y-3052193D01*
G01X2209800Y-3050286D01*
G01X2209800Y-3050286D01*
G01X2189217Y-3052193D01*
G01X2169336Y-3057850D01*
G01X2150832Y-3067064D01*
G01X2134337Y-3079521D01*
G01X2120411Y-3094796D01*
G01X2109529Y-3112371D01*
G01X2102062Y-3131646D01*
G01X2098264Y-3151965D01*
G01X2067336Y-3151965D01*
G01X2063538Y-3131646D01*
G01X2056071Y-3112371D01*
G01X2045189Y-3094796D01*
G01X2031263Y-3079521D01*
G01X2014768Y-3067064D01*
G01X1996264Y-3057850D01*
G01X1976383Y-3052193D01*
G01X1955800Y-3050286D01*
G01X1955800Y-3050286D01*
G01X1935217Y-3052193D01*
G01X1915336Y-3057850D01*
G01X1896832Y-3067064D01*
G01X1880337Y-3079521D01*
G01X1866411Y-3094796D01*
G01X1855529Y-3112371D01*
G01X1848062Y-3131646D01*
G01X1844264Y-3151965D01*
G01X1812903Y-3151965D01*
G01X1811553Y-3139907D01*
G01X1805788Y-3120664D01*
G01X1796679Y-3102759D01*
G01X1784519Y-3086770D01*
G01X1769698Y-3073210D01*
G01X1752693Y-3062515D01*
G01X1734052Y-3055030D01*
G01X1714374Y-3050994D01*
G01X1694291Y-3050538D01*
G01X1674449Y-3053676D01*
G01X1655487Y-3060308D01*
G01X1638015Y-3070221D01*
G01X1622594Y-3083094D01*
G01X1609721Y-3098515D01*
G01X1599808Y-3115987D01*
G01X1593176Y-3134949D01*
G01X1590038Y-3154791D01*
G01X1590494Y-3174874D01*
G01X1594530Y-3194552D01*
G01X1602015Y-3213193D01*
G01X1612710Y-3230198D01*
G01X1626270Y-3245019D01*
G01X1642259Y-3257179D01*
G01X1660164Y-3266288D01*
G01X1679407Y-3272053D01*
G01X1699370Y-3274288D01*
G01X1719412Y-3272921D01*
G01X1738887Y-3267996D01*
G01X2607295Y-4136405D01*
G01X2617343Y-4144114D01*
G01X2629044Y-4148961D01*
G01X2641600Y-4150614D01*
G01X6315637Y-4150614D01*
G01X6304464Y-4164817D01*
G01X6295637Y-4180586D01*
G01X2159000Y-4180586D01*
G01X2146444Y-4182239D01*
G01X2134743Y-4187086D01*
G01X2124695Y-4194795D01*
G01X976887Y-5342604D01*
G01X956913Y-5337601D01*
G01X936362Y-5336339D01*
G01X915926Y-5338860D01*
G01X896297Y-5345079D01*
G01X878138Y-5354786D01*
G01X862063Y-5367652D01*
G01X848614Y-5383244D01*
G01X848614Y-3784600D01*
G01X846961Y-3772044D01*
G01X842114Y-3760343D01*
G01X834405Y-3750295D01*
G01X283496Y-3199387D01*
G01X288421Y-3179912D01*
G01X289788Y-3159870D01*
G01X288903Y-3151965D01*
G01X320264Y-3151965D01*
G01X320264Y-3172635D01*
G01X324062Y-3192954D01*
G01X331529Y-3212229D01*
G01X342411Y-3229804D01*
G01X356337Y-3245079D01*
G01X372832Y-3257536D01*
G01X391336Y-3266750D01*
G01X411217Y-3272407D01*
G01X431800Y-3274314D01*
G01X452383Y-3272407D01*
G01X472264Y-3266750D01*
G01X490768Y-3257536D01*
G01X507263Y-3245079D01*
G01X521189Y-3229804D01*
G01X532071Y-3212229D01*
G01X539538Y-3192954D01*
G01X543336Y-3172635D01*
G01X543336Y-3151965D01*
G01X543336Y-3151965D01*
G01X574264Y-3151965D01*
G01X574264Y-3172635D01*
G01X578062Y-3192954D01*
G01X585529Y-3212229D01*
G01X596411Y-3229804D01*
G01X610337Y-3245079D01*
G01X626832Y-3257536D01*
G01X645336Y-3266750D01*
G01X665217Y-3272407D01*
G01X685800Y-3274314D01*
G01X706383Y-3272407D01*
G01X726264Y-3266750D01*
G01X744768Y-3257536D01*
G01X761263Y-3245079D01*
G01X775189Y-3229804D01*
G01X786071Y-3212229D01*
G01X793538Y-3192954D01*
G01X797336Y-3172635D01*
G01X797336Y-3151965D01*
G01X797336Y-3151965D01*
G01X828264Y-3151965D01*
G01X828264Y-3172635D01*
G01X832062Y-3192954D01*
G01X839529Y-3212229D01*
G01X850411Y-3229804D01*
G01X864337Y-3245079D01*
G01X880832Y-3257536D01*
G01X899336Y-3266750D01*
G01X919217Y-3272407D01*
G01X939800Y-3274314D01*
G01X960383Y-3272407D01*
G01X980264Y-3266750D01*
G01X998768Y-3257536D01*
G01X1015263Y-3245079D01*
G01X1029189Y-3229804D01*
G01X1040071Y-3212229D01*
G01X1047538Y-3192954D01*
G01X1051336Y-3172635D01*
G01X1051336Y-3151965D01*
G01X1051336Y-3151965D01*
G01X1082264Y-3151965D01*
G01X1082264Y-3172635D01*
G01X1086062Y-3192954D01*
G01X1093529Y-3212229D01*
G01X1104411Y-3229804D01*
G01X1118337Y-3245079D01*
G01X1134832Y-3257536D01*
G01X1153336Y-3266750D01*
G01X1173217Y-3272407D01*
G01X1193800Y-3274314D01*
G01X1214383Y-3272407D01*
G01X1234264Y-3266750D01*
G01X1252768Y-3257536D01*
G01X1269263Y-3245079D01*
G01X1283189Y-3229804D01*
G01X1294071Y-3212229D01*
G01X1301538Y-3192954D01*
G01X1305336Y-3172635D01*
G01X1305336Y-3151965D01*
G01X1305336Y-3151965D01*
G01X1336264Y-3151965D01*
G01X1336264Y-3172635D01*
G01X1340062Y-3192954D01*
G01X1347529Y-3212229D01*
G01X1358411Y-3229804D01*
G01X1372337Y-3245079D01*
G01X1388832Y-3257536D01*
G01X1407336Y-3266750D01*
G01X1427217Y-3272407D01*
G01X1447800Y-3274314D01*
G01X1468383Y-3272407D01*
G01X1488264Y-3266750D01*
G01X1506768Y-3257536D01*
G01X1523263Y-3245079D01*
G01X1537189Y-3229804D01*
G01X1548071Y-3212229D01*
G01X1555538Y-3192954D01*
G01X1559336Y-3172635D01*
G01X1559336Y-3151965D01*
G01X1555538Y-3131646D01*
G01X1548071Y-3112371D01*
G01X1537189Y-3094796D01*
G01X1523263Y-3079521D01*
G01X1506768Y-3067064D01*
G01X1488264Y-3057850D01*
G01X1468383Y-3052193D01*
G01X1447800Y-3050286D01*
G01X1447800Y-3050286D01*
G01X1427217Y-3052193D01*
G01X1407336Y-3057850D01*
G01X1388832Y-3067064D01*
G01X1372337Y-3079521D01*
G01X1358411Y-3094796D01*
G01X1347529Y-3112371D01*
G01X1340062Y-3131646D01*
G01X1336264Y-3151965D01*
G01X1305336Y-3151965D01*
G01X1301538Y-3131646D01*
G01X1294071Y-3112371D01*
G01X1283189Y-3094796D01*
G01X1269263Y-3079521D01*
G01X1252768Y-3067064D01*
G01X1234264Y-3057850D01*
G01X1214383Y-3052193D01*
G01X1193800Y-3050286D01*
G01X1193800Y-3050286D01*
G01X1173217Y-3052193D01*
G01X1153336Y-3057850D01*
G01X1134832Y-3067064D01*
G01X1118337Y-3079521D01*
G01X1104411Y-3094796D01*
G01X1093529Y-3112371D01*
G01X1086062Y-3131646D01*
G01X1082264Y-3151965D01*
G01X1051336Y-3151965D01*
G01X1047538Y-3131646D01*
G01X1040071Y-3112371D01*
G01X1029189Y-3094796D01*
G01X1015263Y-3079521D01*
G01X998768Y-3067064D01*
G01X980264Y-3057850D01*
G01X960383Y-3052193D01*
G01X939800Y-3050286D01*
G01X939800Y-3050286D01*
G01X919217Y-3052193D01*
G01X899336Y-3057850D01*
G01X880832Y-3067064D01*
G01X864337Y-3079521D01*
G01X850411Y-3094796D01*
G01X839529Y-3112371D01*
G01X832062Y-3131646D01*
G01X828264Y-3151965D01*
G01X797336Y-3151965D01*
G01X793538Y-3131646D01*
G01X786071Y-3112371D01*
G01X775189Y-3094796D01*
G01X761263Y-3079521D01*
G01X744768Y-3067064D01*
G01X726264Y-3057850D01*
G01X706383Y-3052193D01*
G01X685800Y-3050286D01*
G01X685800Y-3050286D01*
G01X665217Y-3052193D01*
G01X645336Y-3057850D01*
G01X626832Y-3067064D01*
G01X610337Y-3079521D01*
G01X596411Y-3094796D01*
G01X585529Y-3112371D01*
G01X578062Y-3131646D01*
G01X574264Y-3151965D01*
G01X543336Y-3151965D01*
G01X539538Y-3131646D01*
G01X532071Y-3112371D01*
G01X521189Y-3094796D01*
G01X507263Y-3079521D01*
G01X490768Y-3067064D01*
G01X472264Y-3057850D01*
G01X452383Y-3052193D01*
G01X431800Y-3050286D01*
G01X431800Y-3050286D01*
G01X411217Y-3052193D01*
G01X391336Y-3057850D01*
G01X372832Y-3067064D01*
G01X356337Y-3079521D01*
G01X342411Y-3094796D01*
G01X331529Y-3112371D01*
G01X324062Y-3131646D01*
G01X320264Y-3151965D01*
G01X288903Y-3151965D01*
G01X287553Y-3139907D01*
G01X281788Y-3120664D01*
G01X272679Y-3102759D01*
G01X260519Y-3086770D01*
G01X245698Y-3073210D01*
G01X228693Y-3062515D01*
G01X210052Y-3055030D01*
G01X190374Y-3050994D01*
G01X170291Y-3050538D01*
G01X150449Y-3053676D01*
G01X131487Y-3060308D01*
G01X114015Y-3070221D01*
G01X98594Y-3083094D01*
G01X85721Y-3098515D01*
G01X75808Y-3115987D01*
G01X69176Y-3134949D01*
G01X66038Y-3154791D01*
G01X48514Y-3154791D01*
G01X48514Y-2657500D01*
G01X2925686Y-2657500D01*
G01X2927578Y-2683944D01*
G01X2933213Y-2709850D01*
G01X2942478Y-2734690D01*
G01X2955184Y-2757959D01*
G01X2971071Y-2779182D01*
G01X2989818Y-2797929D01*
G01X3011042Y-2813817D01*
G01X3034310Y-2826522D01*
G01X3059150Y-2835787D01*
G01X3085056Y-2841423D01*
G01X3111500Y-2843314D01*
G01X3137944Y-2841423D01*
G01X3163850Y-2835787D01*
G01X3188690Y-2826522D01*
G01X3211958Y-2813817D01*
G01X3233182Y-2797929D01*
G01X3251929Y-2779182D01*
G01X3267816Y-2757959D01*
G01X3280522Y-2734690D01*
G01X3289787Y-2709850D01*
G01X3295422Y-2683944D01*
G01X3297314Y-2657500D01*
G01X3295422Y-2631056D01*
G01X3289787Y-2605151D01*
G01X3280522Y-2580311D01*
G01X3267816Y-2557042D01*
G01X3251929Y-2535818D01*
G01X3238711Y-2522601D01*
G01X6960286Y-2522601D01*
G01X6962138Y-2544955D01*
G01X6967645Y-2566700D01*
G01X6976655Y-2587241D01*
G01X6988923Y-2606020D01*
G01X7004115Y-2622522D01*
G01X7021816Y-2636300D01*
G01X7041544Y-2646976D01*
G01X7062759Y-2654259D01*
G01X7084884Y-2657951D01*
G01X7107315Y-2657951D01*
G01X7129440Y-2654259D01*
G01X7150655Y-2646976D01*
G01X7170383Y-2636300D01*
G01X7188084Y-2622522D01*
G01X7203276Y-2606020D01*
G01X7215544Y-2587241D01*
G01X7224555Y-2566700D01*
G01X7230061Y-2544955D01*
G01X7231913Y-2522601D01*
G01X7230061Y-2500247D01*
G01X7224555Y-2478502D01*
G01X7215544Y-2457961D01*
G01X7203276Y-2439182D01*
G01X7188084Y-2422680D01*
G01X7170383Y-2408902D01*
G01X7150655Y-2398226D01*
G01X7129440Y-2390943D01*
G01X7107315Y-2387251D01*
G01X7084884Y-2387251D01*
G01X7062759Y-2390943D01*
G01X7041544Y-2398226D01*
G01X7021816Y-2408902D01*
G01X7004115Y-2422680D01*
G01X6988923Y-2439182D01*
G01X6976655Y-2457961D01*
G01X6967645Y-2478502D01*
G01X6962138Y-2500247D01*
G01X6960286Y-2522601D01*
G01X6960286Y-2522601D01*
G01X3238711Y-2522601D01*
G01X3233182Y-2517072D01*
G01X3211958Y-2501184D01*
G01X3188690Y-2488478D01*
G01X3163850Y-2479213D01*
G01X3137944Y-2473578D01*
G01X3111500Y-2471687D01*
G01X3111500Y-2471687D01*
G01X3085056Y-2473578D01*
G01X3059150Y-2479213D01*
G01X3034310Y-2488478D01*
G01X3011042Y-2501184D01*
G01X2989818Y-2517072D01*
G01X2971071Y-2535818D01*
G01X2955184Y-2557042D01*
G01X2942478Y-2580311D01*
G01X2933213Y-2605151D01*
G01X2927578Y-2631056D01*
G01X2925686Y-2657500D01*
G01X48514Y-2657500D01*
G01X48514Y-1841500D01*
G01X484886Y-1841500D01*
G01X486802Y-1868286D01*
G01X492510Y-1894526D01*
G01X501895Y-1919687D01*
G01X514764Y-1943256D01*
G01X530857Y-1964754D01*
G01X549846Y-1983743D01*
G01X571344Y-1999836D01*
G01X594913Y-2012705D01*
G01X620074Y-2022090D01*
G01X646314Y-2027798D01*
G01X673100Y-2029714D01*
G01X673100Y-2029714D01*
G01X749300Y-2029714D01*
G01X776086Y-2027798D01*
G01X802326Y-2022090D01*
G01X827487Y-2012705D01*
G01X851056Y-1999836D01*
G01X872554Y-1983743D01*
G01X884140Y-1972156D01*
G01X1655111Y-1972156D01*
G01X1658384Y-1994973D01*
G01X1665468Y-2016908D01*
G01X1676160Y-2037329D01*
G01X1690151Y-2055647D01*
G01X1707038Y-2071336D01*
G01X1726336Y-2083943D01*
G01X1747487Y-2093105D01*
G01X1769883Y-2098559D01*
G01X1792879Y-2100146D01*
G01X1815812Y-2097822D01*
G01X1838021Y-2091653D01*
G01X1858868Y-2081817D01*
G01X1877751Y-2068597D01*
G01X1894126Y-2052375D01*
G01X1907522Y-2033617D01*
G01X1917553Y-2012864D01*
G01X4020676Y-2012864D01*
G01X4024319Y-2035437D01*
G01X4031698Y-2057080D01*
G01X4042603Y-2077178D01*
G01X4056726Y-2095161D01*
G01X4073665Y-2110521D01*
G01X4092941Y-2122821D01*
G01X4114007Y-2131713D01*
G01X4136266Y-2136944D01*
G01X4159088Y-2138368D01*
G01X4181824Y-2135942D01*
G01X4203832Y-2129737D01*
G01X4224487Y-2119927D01*
G01X4243203Y-2106791D01*
G01X4259450Y-2090701D01*
G01X4272768Y-2072114D01*
G01X4282779Y-2051556D01*
G01X4289199Y-2029610D01*
G01X4291846Y-2006898D01*
G01X4290645Y-1984064D01*
G01X4285631Y-1961754D01*
G01X4276945Y-1940603D01*
G01X4264833Y-1921208D01*
G01X4249640Y-1904120D01*
G01X4231795Y-1889823D01*
G01X4211804Y-1878722D01*
G01X4190234Y-1871132D01*
G01X4167697Y-1867269D01*
G01X4144832Y-1867241D01*
G01X4122285Y-1871050D01*
G01X4100697Y-1878587D01*
G01X4090776Y-1871226D01*
G01X4079317Y-1866609D01*
G01X4067063Y-1865036D01*
G01X1883340Y-1865036D01*
G01X1883340Y-1865036D01*
G01X1865211Y-1850800D01*
G01X1844935Y-1839835D01*
G01X1823098Y-1832457D01*
G01X1800327Y-1828877D01*
G01X1777279Y-1829201D01*
G01X1754617Y-1833417D01*
G01X1732995Y-1841404D01*
G01X1713035Y-1852934D01*
G01X1695312Y-1867672D01*
G01X1680337Y-1885195D01*
G01X1668541Y-1904999D01*
G01X1660263Y-1926512D01*
G01X1655743Y-1949115D01*
G01X1655111Y-1972156D01*
G01X884140Y-1972156D01*
G01X891543Y-1964754D01*
G01X907636Y-1943256D01*
G01X920505Y-1919687D01*
G01X929890Y-1894526D01*
G01X935598Y-1868286D01*
G01X937514Y-1841500D01*
G01X935598Y-1814714D01*
G01X929890Y-1788474D01*
G01X920505Y-1763313D01*
G01X907636Y-1739744D01*
G01X891543Y-1718246D01*
G01X872554Y-1699257D01*
G01X851056Y-1683164D01*
G01X827487Y-1670295D01*
G01X802326Y-1660910D01*
G01X776086Y-1655202D01*
G01X749300Y-1653286D01*
G01X673100Y-1653286D01*
G01X646314Y-1655202D01*
G01X620074Y-1660910D01*
G01X594913Y-1670295D01*
G01X571344Y-1683164D01*
G01X549846Y-1699257D01*
G01X530857Y-1718246D01*
G01X514764Y-1739744D01*
G01X501895Y-1763313D01*
G01X492510Y-1788474D01*
G01X486802Y-1814714D01*
G01X484886Y-1841500D01*
G01X48514Y-1841500D01*
G01X48514Y-1333500D01*
G01X484886Y-1333500D01*
G01X486802Y-1360286D01*
G01X492510Y-1386526D01*
G01X501895Y-1411687D01*
G01X514764Y-1435256D01*
G01X530857Y-1456754D01*
G01X549846Y-1475743D01*
G01X571344Y-1491836D01*
G01X594913Y-1504705D01*
G01X620074Y-1514090D01*
G01X646314Y-1519798D01*
G01X673100Y-1521714D01*
G01X673100Y-1521714D01*
G01X749300Y-1521714D01*
G01X776086Y-1519798D01*
G01X802326Y-1514090D01*
G01X827487Y-1504705D01*
G01X831365Y-1502588D01*
G01X4020287Y-1502588D01*
G01X4022139Y-1524942D01*
G01X4027645Y-1546686D01*
G01X4036656Y-1567228D01*
G01X4048924Y-1586006D01*
G01X4064116Y-1602509D01*
G01X4081817Y-1616287D01*
G01X4101545Y-1626962D01*
G01X4122760Y-1634246D01*
G01X4144885Y-1637938D01*
G01X4167316Y-1637938D01*
G01X4189441Y-1634246D01*
G01X4210656Y-1626962D01*
G01X4230384Y-1616287D01*
G01X4248085Y-1602509D01*
G01X4263277Y-1586006D01*
G01X4275545Y-1567228D01*
G01X4284555Y-1546686D01*
G01X4290062Y-1524942D01*
G01X4291914Y-1502588D01*
G01X4290062Y-1480234D01*
G01X4284555Y-1458489D01*
G01X4275545Y-1437948D01*
G01X4263277Y-1419169D01*
G01X4248085Y-1402666D01*
G01X4230384Y-1388889D01*
G01X4210656Y-1378213D01*
G01X4189441Y-1370930D01*
G01X4167316Y-1367238D01*
G01X4144885Y-1367238D01*
G01X4122760Y-1370930D01*
G01X4101545Y-1378213D01*
G01X4081817Y-1388889D01*
G01X4064116Y-1402666D01*
G01X4048924Y-1419169D01*
G01X4036656Y-1437948D01*
G01X4027645Y-1458489D01*
G01X4022139Y-1480234D01*
G01X4020287Y-1502588D01*
G01X4020287Y-1502588D01*
G01X831365Y-1502588D01*
G01X851056Y-1491836D01*
G01X872554Y-1475743D01*
G01X891543Y-1456754D01*
G01X907636Y-1435256D01*
G01X920505Y-1411687D01*
G01X929890Y-1386526D01*
G01X935598Y-1360286D01*
G01X937514Y-1333500D01*
G01X935598Y-1306714D01*
G01X929890Y-1280474D01*
G01X920505Y-1255313D01*
G01X907636Y-1231744D01*
G01X891543Y-1210246D01*
G01X884623Y-1203326D01*
G01X1655350Y-1203326D01*
G01X1655350Y-1225757D01*
G01X1659042Y-1247882D01*
G01X1666325Y-1269097D01*
G01X1677001Y-1288825D01*
G01X1690779Y-1306526D01*
G01X1707281Y-1321718D01*
G01X1726060Y-1333986D01*
G01X1746601Y-1342997D01*
G01X1768346Y-1348503D01*
G01X1790700Y-1350355D01*
G01X1813054Y-1348503D01*
G01X1834799Y-1342997D01*
G01X1855340Y-1333986D01*
G01X1874119Y-1321718D01*
G01X1890621Y-1306526D01*
G01X1904399Y-1288825D01*
G01X1915075Y-1269097D01*
G01X1922358Y-1247882D01*
G01X1926050Y-1225757D01*
G01X1926050Y-1203326D01*
G01X1922358Y-1181201D01*
G01X1915075Y-1159986D01*
G01X1904399Y-1140259D01*
G01X1890621Y-1122557D01*
G01X1874119Y-1107365D01*
G01X1855340Y-1095097D01*
G01X1834799Y-1086087D01*
G01X1813054Y-1080580D01*
G01X1790700Y-1078728D01*
G01X1790700Y-1078728D01*
G01X1768346Y-1080580D01*
G01X1746601Y-1086087D01*
G01X1726060Y-1095097D01*
G01X1707281Y-1107365D01*
G01X1690779Y-1122557D01*
G01X1677001Y-1140259D01*
G01X1666325Y-1159986D01*
G01X1659042Y-1181201D01*
G01X1655350Y-1203326D01*
G01X884623Y-1203326D01*
G01X872554Y-1191257D01*
G01X851056Y-1175164D01*
G01X827487Y-1162295D01*
G01X802326Y-1152910D01*
G01X776086Y-1147202D01*
G01X749300Y-1145286D01*
G01X673100Y-1145286D01*
G01X646314Y-1147202D01*
G01X620074Y-1152910D01*
G01X594913Y-1162295D01*
G01X571344Y-1175164D01*
G01X549846Y-1191257D01*
G01X530857Y-1210246D01*
G01X514764Y-1231744D01*
G01X501895Y-1255313D01*
G01X492510Y-1280474D01*
G01X486802Y-1306714D01*
G01X484886Y-1333500D01*
G01X48514Y-1333500D01*
G01X48514Y-982599D01*
G01X6960286Y-982599D01*
G01X6962138Y-1004953D01*
G01X6967645Y-1026698D01*
G01X6976655Y-1047239D01*
G01X6988923Y-1066018D01*
G01X7004115Y-1082520D01*
G01X7021816Y-1096298D01*
G01X7041544Y-1106974D01*
G01X7062759Y-1114257D01*
G01X7084884Y-1117949D01*
G01X7107315Y-1117949D01*
G01X7129440Y-1114257D01*
G01X7150655Y-1106974D01*
G01X7170383Y-1096298D01*
G01X7188084Y-1082520D01*
G01X7203276Y-1066018D01*
G01X7215544Y-1047239D01*
G01X7224555Y-1026698D01*
G01X7230061Y-1004953D01*
G01X7231913Y-982599D01*
G01X7230061Y-960245D01*
G01X7224555Y-938500D01*
G01X7215544Y-917959D01*
G01X7203276Y-899180D01*
G01X7188084Y-882678D01*
G01X7170383Y-868900D01*
G01X7150655Y-858224D01*
G01X7129440Y-850941D01*
G01X7107315Y-847249D01*
G01X7084884Y-847249D01*
G01X7062759Y-850941D01*
G01X7041544Y-858224D01*
G01X7021816Y-868900D01*
G01X7004115Y-882678D01*
G01X6988923Y-899180D01*
G01X6976655Y-917959D01*
G01X6967645Y-938500D01*
G01X6962138Y-960245D01*
G01X6960286Y-982599D01*
G01X6960286Y-982599D01*
G01X48514Y-982599D01*
G01X48514Y-517500D01*
G01X2925686Y-517500D01*
G01X2927578Y-543944D01*
G01X2933213Y-569849D01*
G01X2942478Y-594689D01*
G01X2955184Y-617958D01*
G01X2971071Y-639182D01*
G01X2989818Y-657928D01*
G01X3011042Y-673816D01*
G01X3034310Y-686522D01*
G01X3059150Y-695787D01*
G01X3085056Y-701422D01*
G01X3111500Y-703313D01*
G01X3137944Y-701422D01*
G01X3163850Y-695787D01*
G01X3188690Y-686522D01*
G01X3211958Y-673816D01*
G01X3233182Y-657928D01*
G01X3251929Y-639182D01*
G01X3267816Y-617958D01*
G01X3280522Y-594689D01*
G01X3289787Y-569849D01*
G01X3295422Y-543944D01*
G01X3297314Y-517500D01*
G01X3295422Y-491056D01*
G01X3289787Y-465150D01*
G01X3280522Y-440310D01*
G01X3267816Y-417041D01*
G01X3251929Y-395818D01*
G01X3233182Y-377071D01*
G01X3211958Y-361183D01*
G01X3188690Y-348478D01*
G01X3163850Y-339213D01*
G01X3137944Y-333577D01*
G01X3111500Y-331686D01*
G01X3111500Y-331686D01*
G01X3085056Y-333577D01*
G01X3059150Y-339213D01*
G01X3034310Y-348478D01*
G01X3011042Y-361183D01*
G01X2989818Y-377071D01*
G01X2971071Y-395818D01*
G01X2955184Y-417041D01*
G01X2942478Y-440310D01*
G01X2933213Y-465150D01*
G01X2927578Y-491056D01*
G01X2925686Y-517500D01*
G01X48514Y-517500D01*
G01X48514Y-300000D01*
G01X114186Y-300000D01*
G01X116077Y-326444D01*
G01X121713Y-352350D01*
G01X130978Y-377190D01*
G01X143683Y-400459D01*
G01X159571Y-421682D01*
G01X178318Y-440429D01*
G01X199541Y-456317D01*
G01X222810Y-469022D01*
G01X247650Y-478287D01*
G01X273556Y-483923D01*
G01X300000Y-485814D01*
G01X326444Y-483923D01*
G01X352350Y-478287D01*
G01X377190Y-469022D01*
G01X400459Y-456317D01*
G01X421682Y-440429D01*
G01X440429Y-421682D01*
G01X456317Y-400459D01*
G01X469022Y-377190D01*
G01X478287Y-352350D01*
G01X483923Y-326444D01*
G01X485814Y-300000D01*
G01X7054186Y-300000D01*
G01X7056077Y-326444D01*
G01X7061713Y-352350D01*
G01X7070978Y-377190D01*
G01X7083683Y-400459D01*
G01X7099571Y-421682D01*
G01X7118318Y-440429D01*
G01X7139541Y-456317D01*
G01X7162810Y-469022D01*
G01X7187650Y-478287D01*
G01X7213556Y-483923D01*
G01X7240000Y-485814D01*
G01X7266444Y-483923D01*
G01X7292350Y-478287D01*
G01X7317190Y-469022D01*
G01X7340459Y-456317D01*
G01X7361682Y-440429D01*
G01X7380429Y-421682D01*
G01X7396317Y-400459D01*
G01X7409022Y-377190D01*
G01X7418287Y-352350D01*
G01X7423923Y-326444D01*
G01X7425814Y-300000D01*
G01X7423923Y-273556D01*
G01X7418287Y-247650D01*
G01X7409022Y-222810D01*
G01X7396317Y-199541D01*
G01X7380429Y-178318D01*
G01X7361682Y-159571D01*
G01X7340459Y-143683D01*
G01X7317190Y-130978D01*
G01X7292350Y-121713D01*
G01X7266444Y-116077D01*
G01X7240000Y-114186D01*
G01X7213556Y-116077D01*
G01X7187650Y-121713D01*
G01X7162810Y-130978D01*
G01X7139541Y-143683D01*
G01X7118318Y-159571D01*
G01X7099571Y-178318D01*
G01X7083683Y-199541D01*
G01X7070978Y-222810D01*
G01X7061713Y-247650D01*
G01X7056077Y-273556D01*
G01X7054186Y-300000D01*
G01X7054186Y-300000D01*
G01X485814Y-300000D01*
G01X485814Y-300000D01*
G01X483923Y-273556D01*
G01X478287Y-247650D01*
G01X469022Y-222810D01*
G01X456317Y-199541D01*
G01X440429Y-178318D01*
G01X421682Y-159571D01*
G01X400459Y-143683D01*
G01X377190Y-130978D01*
G01X352350Y-121713D01*
G01X326444Y-116077D01*
G01X300000Y-114186D01*
G01X273556Y-116077D01*
G01X247650Y-121713D01*
G01X222810Y-130978D01*
G01X199541Y-143683D01*
G01X178318Y-159571D01*
G01X159571Y-178318D01*
G01X143683Y-199541D01*
G01X130978Y-222810D01*
G01X121713Y-247650D01*
G01X116077Y-273556D01*
G01X114186Y-300000D01*
G01X114186Y-300000D01*
G01X48514Y-300000D01*
G01X48514Y-48514D01*
G01X7520686Y-48514D01*
G37*
G54D10*
G01X7520686Y-48514D02*
G01X7520686Y-8790686D01*
G01X48514Y-8790686D01*
G01X48514Y-48514D01*
G01X7520686Y-48514D01*
G01X177800Y-5336286D02*
G03X177800Y-5560314I0J-112014D01*
G03X177800Y-5336286I0J112014D01*
G01X751586Y-5357639D02*
G03X575671Y-5468765I-65786J-90661D01*
G03X779765Y-5509274I110129J20465D01*
G01X965795Y-5695304D01*
G03X1000100Y-5709514I34305J34305D01*
G01X1478505Y-5709514D01*
G01X2052998Y-6284006D01*
G03X2114488Y-6473175I118702J-65994D01*
G03X2298700Y-6398129I57212J123175D01*
G03X2552700Y-6398129I127000J48129D01*
G03X2745263Y-6468941I127000J48129D01*
G03X2788202Y-6268314I-65563J118941D01*
G01X3338027Y-6268314D01*
G03X3401264Y-6344473I65573J-9886D01*
G01X3508197Y-6451406D01*
G01X3456880Y-6451406D01*
G03X3422575Y-6465616I0J-48514D01*
G01X3178495Y-6709696D01*
G03X3164285Y-6744001I34305J-34305D01*
G01X3164285Y-6801505D01*
G03X3149496Y-6811033I36115J-72295D01*
G03X3118400Y-6792986I-31096J-17767D01*
G01X3028400Y-6792986D01*
G03X2992586Y-6828800I0J-35814D01*
G01X2992586Y-6988800D01*
G03X3028400Y-7024614I35814J0D01*
G01X3118400Y-7024614D01*
G03X3149496Y-7006567I0J35814D01*
G03X3263900Y-6993786I50904J62767D01*
G03X3406870Y-6958479I63500J49986D01*
G01X3566612Y-7118221D01*
G03X3634853Y-7282237I116388J-47779D01*
G03X3799084Y-7214514I48147J116237D01*
G01X4130899Y-7214514D01*
G01X4162417Y-7246033D01*
G03X4440101Y-7455107I153576J-84967D01*
G03X4231026Y-7177424I-124107J124107D01*
G01X4185298Y-7131696D01*
G03X4150994Y-7117486I-34305J-34305D01*
G01X3799084Y-7117486D01*
G03X3635221Y-7049612I-116084J-48514D01*
G01X3460104Y-6874495D01*
G03X3425800Y-6860286I-34305J-34305D01*
G01X3407076Y-6860286D01*
G03X3263900Y-6823814I-79676J-13514D01*
G03X3261313Y-6820692I-63500J-49986D01*
G01X3261313Y-6764096D01*
G01X3476975Y-6548434D01*
G01X3558480Y-6548434D01*
G03X3606994Y-6499920I0J48514D01*
G01X3606994Y-6396260D01*
G03X3759724Y-6395712I76006J100261D01*
G03X3799388Y-6248220I-76724J99712D01*
G01X3868092Y-6179516D01*
G01X4147318Y-6179516D01*
G03X4491507Y-6131002I168676J48514D01*
G03X4147318Y-6082488I-175514J0D01*
G01X3847997Y-6082488D01*
G03X3813693Y-6096698I0J-48514D01*
G01X3730779Y-6179611D01*
G03X3634445Y-6179933I-47779J-116388D01*
G03X3622790Y-6173996I-27645J-39867D01*
G03X3649362Y-5928614I-43092J128796D01*
G01X6959600Y-5928614D01*
G03X6993905Y-5914405I0J48514D01*
G01X7374905Y-5533405D01*
G03X7388442Y-5507146I-34305J34305D01*
G03X7401814Y-5473700I-35142J33446D01*
G01X7401814Y-5309304D01*
G03X7387605Y-5274999I-48514J0D01*
G01X7255796Y-5143191D01*
G03X7070894Y-5026898I-105696J37087D01*
G03X7187187Y-5211800I79206J-79206D01*
G01X7292086Y-5316699D01*
G01X7292086Y-5349743D01*
G03X7262101Y-5358375I-2286J-48460D01*
G03X7188783Y-5254981I-112001J-1729D01*
G03X7065934Y-5286190I-38683J-105123D01*
G01X6590596Y-5286190D01*
G03X6556292Y-5300399I0J-48514D01*
G01X6540500Y-5316191D01*
G01X6509466Y-5285157D01*
G03X6478021Y-5158788I-108666J40057D01*
G03X6485905Y-5152405I-26421J40688D01*
G01X6562105Y-5076205D01*
G03X6576314Y-5041900I-34305J34305D01*
G01X6576314Y-4178300D01*
G03X6562105Y-4143995I-48514J0D01*
G01X6485905Y-4067795D01*
G03X6478021Y-4061412I-34305J-34305D01*
G03X6406375Y-3859420I-77221J86312D01*
G03X6315637Y-4053586I-5575J-115680D01*
G01X2661695Y-4053586D01*
G01X1807496Y-3199387D01*
G03X1622594Y-3083094I-105696J37087D01*
G03X1738887Y-3267996I79206J-79206D01*
G01X2607295Y-4136405D01*
G03X2641600Y-4150614I34305J34305D01*
G01X6315637Y-4150614D01*
G03X6295637Y-4180586I85163J-78486D01*
G01X2159000Y-4180586D01*
G03X2124695Y-4194795I0J-48514D01*
G01X976887Y-5342604D01*
G03X848614Y-5383244I-37087J-105696D01*
G01X848614Y-3784600D01*
G03X834405Y-3750295I-48514J0D01*
G01X283496Y-3199387D01*
G03X98594Y-3083094I-105696J37087D01*
G03X214887Y-3267996I79206J-79206D01*
G01X751586Y-3804695D01*
G01X751586Y-5357639D01*
G01X114186Y-300000D02*
G03X485814Y-300000I185814J0D01*
G03X114186Y-300000I-185814J0D01*
G01X114186Y-8510000D02*
G03X485814Y-8510000I185814J0D01*
G03X114186Y-8510000I-185814J0D01*
G01X431800Y-5336286D02*
G03X431800Y-5560314I0J-112014D01*
G03X431800Y-5336286I0J112014D01*
G01X431800Y-3050286D02*
G03X431800Y-3274314I0J-112014D01*
G03X431800Y-3050286I0J112014D01*
G01X673100Y-1521714D02*
G01X749300Y-1521714D01*
G03X749300Y-1145286I0J188214D01*
G01X673100Y-1145286D01*
G03X673100Y-1521714I0J-188214D01*
G01X673100Y-2029714D02*
G01X749300Y-2029714D01*
G03X749300Y-1653286I0J188214D01*
G01X673100Y-1653286D01*
G03X673100Y-2029714I0J-188214D01*
G01X685800Y-3050286D02*
G03X685800Y-3274314I0J-112014D01*
G03X685800Y-3050286I0J112014D01*
G01X636186Y-7160197D02*
G03X887814Y-7160197I125814J0D01*
G03X636186Y-7160197I-125814J0D01*
G01X636186Y-6398197D02*
G03X887814Y-6398197I125814J0D01*
G03X636186Y-6398197I-125814J0D01*
G01X939800Y-3050286D02*
G03X939800Y-3274314I0J-112014D01*
G03X939800Y-3050286I0J112014D01*
G01X1193800Y-3050286D02*
G03X1193800Y-3274314I0J-112014D01*
G03X1193800Y-3050286I0J112014D01*
G01X1447800Y-3050286D02*
G03X1447800Y-3274314I0J-112014D01*
G03X1447800Y-3050286I0J112014D01*
G01X1714500Y-7045185D02*
G03X1714500Y-7316813I0J-135814D01*
G03X1714500Y-7045185I0J135814D01*
G01X1714500Y-6145187D02*
G03X1714500Y-6416815I0J-135814D01*
G03X1714500Y-6145187I0J135814D01*
G01X1790700Y-1078728D02*
G03X1790700Y-1350355I0J-135814D01*
G03X1790700Y-1078728I0J135814D01*
G01X1883340Y-1865036D02*
G03X1658384Y-1994973I-92640J-99314D01*
G03X1917553Y-2012864I132316J30624D01*
G01X4020676Y-2012864D01*
G03X4272768Y-2072114I135424J10277D01*
G03X4100697Y-1878587I-116668J69527D01*
G03X4067063Y-1865036I-33634J-34962D01*
G01X1883340Y-1865036D01*
G01X1674934Y-8385752D02*
G01X1674934Y-8461952D01*
G03X2051362Y-8461952I188214J0D01*
G01X2051362Y-8385752D01*
G03X1674934Y-8385752I-188214J0D01*
G01X1751335Y-7785100D02*
G03X1982963Y-7785100I115814J0D01*
G03X1751335Y-7785100I-115814J0D01*
G01X1955800Y-3050286D02*
G03X1955800Y-3274314I0J-112014D01*
G03X1955800Y-3050286I0J112014D01*
G01X2391395Y-6874495D02*
G03X2377186Y-6908800I34305J-34305D01*
G01X2377186Y-6985147D01*
G03X2307514Y-7045087I48514J-126853D01*
G01X2307514Y-7012000D01*
G03X2271700Y-6976186I-35814J0D01*
G01X2071700Y-6976186D01*
G03X2035886Y-7012000I0J-35814D01*
G01X2035886Y-7212000D01*
G03X2071700Y-7247814I35814J0D01*
G01X2271700Y-7247814D01*
G03X2307514Y-7212000I0J35814D01*
G01X2307514Y-7178913D01*
G03X2552700Y-7160129I118186J66913D01*
G03X2815514Y-7112000I127000J48129D01*
G03X2552700Y-7063871I-135814J0D01*
G03X2474214Y-6985147I-127000J-48129D01*
G01X2474214Y-6928895D01*
G01X2910636Y-6492473D01*
G03X2955191Y-6379309I-2336J66273D01*
G03X2842027Y-6423864I-46891J-46891D01*
G01X2391395Y-6874495D01*
G01X2209800Y-3050286D02*
G03X2209800Y-3274314I0J-112014D01*
G03X2209800Y-3050286I0J112014D01*
G01X2182934Y-8385752D02*
G01X2182934Y-8461952D01*
G03X2559362Y-8461952I188214J0D01*
G01X2559362Y-8385752D01*
G03X2182934Y-8385752I-188214J0D01*
G01X2251334Y-7785100D02*
G03X2482962Y-7785100I115814J0D01*
G03X2251334Y-7785100I-115814J0D01*
G01X2463800Y-3050286D02*
G03X2463800Y-3274314I0J-112014D01*
G03X2463800Y-3050286I0J112014D01*
G01X2717800Y-3050286D02*
G03X2717800Y-3274314I0J-112014D01*
G03X2717800Y-3050286I0J112014D01*
G01X2792534Y-8385752D02*
G01X2792534Y-8461952D01*
G03X3168962Y-8461952I188214J0D01*
G01X3168962Y-8385752D01*
G03X2792534Y-8385752I-188214J0D01*
G01X2971800Y-3050286D02*
G03X2971800Y-3274314I0J-112014D01*
G03X2971800Y-3050286I0J112014D01*
G01X2868935Y-7785100D02*
G03X3100563Y-7785100I115814J0D01*
G03X2868935Y-7785100I-115814J0D01*
G01X3111500Y-331686D02*
G03X3111500Y-703313I0J-185814D01*
G03X3111500Y-331686I0J185814D01*
G01X3111500Y-2471687D02*
G03X3111500Y-2843314I0J-185814D01*
G03X3111500Y-2471687I0J185814D01*
G01X3225800Y-3050286D02*
G03X3225800Y-3274314I0J-112014D01*
G03X3225800Y-3050286I0J112014D01*
G01X3300534Y-8385752D02*
G01X3300534Y-8461952D01*
G03X3676962Y-8461952I188214J0D01*
G01X3676962Y-8385752D01*
G03X3300534Y-8385752I-188214J0D01*
G01X3479800Y-3050286D02*
G03X3479800Y-3274314I0J-112014D01*
G03X3479800Y-3050286I0J112014D01*
G01X3368934Y-7785100D02*
G03X3600562Y-7785100I115814J0D01*
G03X3368934Y-7785100I-115814J0D01*
G01X3733800Y-3050286D02*
G03X3733800Y-3274314I0J-112014D01*
G03X3733800Y-3050286I0J112014D01*
G01X3987800Y-3050286D02*
G03X3987800Y-3274314I0J-112014D01*
G03X3987800Y-3050286I0J112014D01*
G01X3910134Y-8385752D02*
G01X3910134Y-8461952D01*
G03X4286562Y-8461952I188214J0D01*
G01X4286562Y-8385752D01*
G03X3910134Y-8385752I-188214J0D01*
G01X7219898Y-6657787D02*
G03X7046750Y-6545187I-170788J-73199D01*
G01X4115994Y-6545187D01*
G03X4115994Y-6916815I0J-185814D01*
G01X7049094Y-6916815D01*
G03X7182032Y-6860826I0J185814D01*
G03X7219898Y-6657787I-132922J129840D01*
G01X3986535Y-7785100D02*
G03X4218163Y-7785100I115814J0D01*
G03X3986535Y-7785100I-115814J0D01*
G01X4020287Y-1502588D02*
G03X4291914Y-1502588I135814J0D01*
G03X4020287Y-1502588I-135814J0D01*
G01X4241800Y-3050286D02*
G03X4241800Y-3274314I0J-112014D01*
G03X4241800Y-3050286I0J112014D01*
G01X4495800Y-3050286D02*
G03X4495800Y-3274314I0J-112014D01*
G03X4495800Y-3050286I0J112014D01*
G01X4418134Y-8385752D02*
G01X4418134Y-8461952D01*
G03X4794562Y-8461952I188214J0D01*
G01X4794562Y-8385752D01*
G03X4418134Y-8385752I-188214J0D01*
G01X4486534Y-7785100D02*
G03X4718162Y-7785100I115814J0D01*
G03X4486534Y-7785100I-115814J0D01*
G01X4749800Y-3050286D02*
G03X4749800Y-3274314I0J-112014D01*
G03X4749800Y-3050286I0J112014D01*
G01X5027734Y-8385752D02*
G01X5027734Y-8461952D01*
G03X5404162Y-8461952I188214J0D01*
G01X5404162Y-8385752D01*
G03X5027734Y-8385752I-188214J0D01*
G01X5104135Y-7785100D02*
G03X5335763Y-7785100I115814J0D01*
G03X5104135Y-7785100I-115814J0D01*
G01X5711520Y-6131053D02*
G03X5360492Y-6131053I-175514J0D01*
G03X5711520Y-6131053I175514J0D01*
G01X5711520Y-7330949D02*
G03X5360492Y-7330949I-175514J0D01*
G03X5711520Y-7330949I175514J0D01*
G01X5535734Y-8385752D02*
G01X5535734Y-8461952D01*
G03X5912162Y-8461952I188214J0D01*
G01X5912162Y-8385752D01*
G03X5535734Y-8385752I-188214J0D01*
G01X5604134Y-7785100D02*
G03X5835762Y-7785100I115814J0D01*
G03X5604134Y-7785100I-115814J0D01*
G01X5933387Y-3136900D02*
G03X6165014Y-3136900I115814J0D01*
G03X5933387Y-3136900I-115814J0D01*
G01X6284986Y-3801100D02*
G03X6320800Y-3836914I35814J0D01*
G01X6480800Y-3836914D01*
G03X6516614Y-3801100I0J35814D01*
G01X6516614Y-3641100D01*
G03X6480800Y-3605286I-35814J0D01*
G01X6320800Y-3605286D01*
G03X6284986Y-3641100I0J-35814D01*
G01X6284986Y-3801100D01*
G01X6433386Y-3136900D02*
G03X6665013Y-3136900I115814J0D01*
G03X6433386Y-3136900I-115814J0D01*
G01X7234898Y-6072986D02*
G03X7199084Y-6037172I-35814J0D01*
G01X6899085Y-6037172D01*
G03X6863271Y-6072986I0J-35814D01*
G01X6863271Y-6372986D01*
G03X6899085Y-6408800I35814J0D01*
G01X7199084Y-6408800D01*
G03X7234898Y-6372986I0J35814D01*
G01X7234898Y-6072986D01*
G01X7049084Y-7402829D02*
G03X7049084Y-7031201I0J185814D01*
G03X7049084Y-7402829I0J-185814D01*
G01X6960286Y-982599D02*
G03X7231913Y-982599I135814J0D01*
G03X6960286Y-982599I-135814J0D01*
G01X6960286Y-2522601D02*
G03X7231913Y-2522601I135814J0D01*
G03X6960286Y-2522601I-135814J0D01*
G01X6961886Y-4052004D02*
G03X7038099Y-4091833I48514J0D01*
G03X7150100Y-4202118I112001J1729D01*
G03X7262101Y-4091833I0J112014D01*
G03X7338314Y-4052004I27699J39829D01*
G01X7338314Y-3975804D01*
G03X7289800Y-3927290I-48514J0D01*
G01X7213600Y-3927290D01*
G03X7165199Y-3979112I0J-48514D01*
G03X7135001Y-3979112I-15099J-110992D01*
G03X7086600Y-3927290I-48401J3308D01*
G01X7010400Y-3927290D01*
G03X6961886Y-3975804I0J-48514D01*
G01X6961886Y-4052004D01*
G01X7086600Y-3050111D02*
G03X7086600Y-3226890I0J-88389D01*
G03X7086600Y-3050111I0J88389D01*
G01X7086600Y-3426889D02*
G03X7086600Y-3250110I0J88389D01*
G03X7086600Y-3426889I0J-88389D01*
G01X7038086Y-4598104D02*
G03X7262114Y-4598104I112014J0D01*
G03X7038086Y-4598104I-112014J0D01*
G01X7038086Y-4852104D02*
G03X7262114Y-4852104I112014J0D01*
G03X7038086Y-4852104I-112014J0D01*
G01X7038086Y-4344104D02*
G03X7262114Y-4344104I112014J0D01*
G03X7038086Y-4344104I-112014J0D01*
G01X7054186Y-300000D02*
G03X7425814Y-300000I185814J0D01*
G03X7054186Y-300000I-185814J0D01*
G01X7054186Y-8510000D02*
G03X7425814Y-8510000I185814J0D01*
G03X7054186Y-8510000I-185814J0D01*
G54D11*
G01X672254Y-7160197D02*
G01X646346Y-7160197D01*
G01X851746Y-7160197D02*
G01X877654Y-7160197D01*
G01X762000Y-7070451D02*
G01X762000Y-7044543D01*
G01X762000Y-7249943D02*
G01X762000Y-7275851D01*
G01X3028654Y-6908800D02*
G01X3002746Y-6908800D01*
G01X3073400Y-6829054D02*
G01X3073400Y-6803146D01*
G01X3073400Y-6988546D02*
G01X3073400Y-7014454D01*
G01X5571802Y-8423852D02*
G01X5545894Y-8423852D01*
G01X5876094Y-8423852D02*
G01X5902002Y-8423852D01*
G01X5723948Y-8233606D02*
G01X5723948Y-8207698D01*
G01X5723948Y-8614098D02*
G01X5723948Y-8640006D01*
G01X2219002Y-8423852D02*
G01X2193094Y-8423852D01*
G01X2523294Y-8423852D02*
G01X2549202Y-8423852D01*
G01X2371148Y-8233606D02*
G01X2371148Y-8207698D01*
G01X2371148Y-8614098D02*
G01X2371148Y-8640006D01*
G01X3336602Y-8423852D02*
G01X3310694Y-8423852D01*
G01X3640894Y-8423852D02*
G01X3666802Y-8423852D01*
G01X3488748Y-8233606D02*
G01X3488748Y-8207698D01*
G01X3488748Y-8614098D02*
G01X3488748Y-8640006D01*
G01X4454202Y-8423852D02*
G01X4428294Y-8423852D01*
G01X4758494Y-8423852D02*
G01X4784402Y-8423852D01*
G01X4606348Y-8233606D02*
G01X4606348Y-8207698D01*
G01X4606348Y-8614098D02*
G01X4606348Y-8640006D01*
G01X5969455Y-3136900D02*
G01X5943547Y-3136900D01*
G01X6128946Y-3136900D02*
G01X6154854Y-3136900D01*
G01X6049201Y-3057154D02*
G01X6049201Y-3031246D01*
G01X6049201Y-3216646D02*
G01X6049201Y-3242554D01*
G01X6400800Y-3895354D02*
G01X6400800Y-3869446D01*
G01X6480546Y-3975100D02*
G01X6506454Y-3975100D01*
G01X6321054Y-3975100D02*
G01X6295146Y-3975100D01*
G01X1447800Y-3086354D02*
G01X1447800Y-3060446D01*
G01X1447800Y-3238246D02*
G01X1447800Y-3264154D01*
G01X1523746Y-3162300D02*
G01X1549654Y-3162300D01*
G01X1371854Y-3162300D02*
G01X1345946Y-3162300D01*
G01X2287402Y-7785100D02*
G01X2261494Y-7785100D01*
G01X2446894Y-7785100D02*
G01X2472802Y-7785100D01*
G01X2367148Y-7705354D02*
G01X2367148Y-7679446D01*
G01X2367148Y-7864846D02*
G01X2367148Y-7890754D01*
G01X5640202Y-7785100D02*
G01X5614294Y-7785100D01*
G01X5799694Y-7785100D02*
G01X5825602Y-7785100D01*
G01X5719948Y-7705354D02*
G01X5719948Y-7679446D01*
G01X5719948Y-7864846D02*
G01X5719948Y-7890754D01*
G01X4522602Y-7785100D02*
G01X4496694Y-7785100D01*
G01X4682094Y-7785100D02*
G01X4708002Y-7785100D01*
G01X4602348Y-7705354D02*
G01X4602348Y-7679446D01*
G01X4602348Y-7864846D02*
G01X4602348Y-7890754D01*
G01X3405002Y-7785100D02*
G01X3379094Y-7785100D01*
G01X3564494Y-7785100D02*
G01X3590402Y-7785100D01*
G01X3484748Y-7705354D02*
G01X3484748Y-7679446D01*
G01X3484748Y-7864846D02*
G01X3484748Y-7890754D01*
G01X7086600Y-3390821D02*
G01X7086600Y-3416729D01*
G01X7086600Y-3286178D02*
G01X7086600Y-3260270D01*
G01X7034279Y-3338500D02*
G01X7008371Y-3338500D01*
G01X7138921Y-3338500D02*
G01X7164829Y-3338500D01*
G01X6996354Y-982599D02*
G01X6970446Y-982599D01*
G01X7195845Y-982599D02*
G01X7221753Y-982599D01*
G01X7096100Y-882853D02*
G01X7096100Y-856945D01*
G01X7096100Y-1082345D02*
G01X7096100Y-1108253D01*
G01X7074154Y-4598104D02*
G01X7048246Y-4598104D01*
G01X7226046Y-4598104D02*
G01X7251954Y-4598104D01*
G01X7150100Y-4522158D02*
G01X7150100Y-4496250D01*
G01X7150100Y-4674050D02*
G01X7150100Y-4699958D01*
G04 Copper End*

G04 PolygonModel Start*
G01X7086600Y-3975804D02*
G01X7010400Y-3975804D01*
G01X7010400Y-4052004D01*
G01X7010400Y-5398204D02*
G01X7010400Y-5474404D01*
G01X7086600Y-5474404D01*
G01X7289800Y-4052004D02*
G01X7289800Y-3975804D01*
G01X7213600Y-3975804D01*
G01X7213600Y-5474404D02*
G01X7289800Y-5474404D01*
G01X7289800Y-5398204D01*

G04 Pad Start*
G54D12*
G01X762000Y-6398197D03*
G01X762000Y-7160197D03*
G54D13*
G01X3327400Y-6908800D03*
G01X3200400Y-6908800D03*
G54D14*
G01X3073400Y-6908800D03*
G54D16*
G01X1790700Y-1214542D03*
G01X1790700Y-1964350D03*
G54D17*
G01X5536006Y-7330949D03*
G01X4115994Y-6731001D03*
G01X4315993Y-6131002D03*
G01X4315993Y-7331000D03*
G01X5536006Y-6131053D03*
G54D16*
G01X7096100Y-2522601D03*
G01X7096100Y-982599D03*
G01X4156100Y-2002587D03*
G01X4156100Y-1502588D03*
G54D18*
G01X2171700Y-7112000D03*
G54D16*
G01X2425700Y-7112000D03*
G01X2679700Y-7112000D03*
G01X2679700Y-6350000D03*
G01X2425700Y-6350000D03*
G01X2171700Y-6350000D03*
G54D19*
G01X2371148Y-8423852D03*
G01X1863148Y-8423852D03*
G01X3488748Y-8423852D03*
G01X2980748Y-8423852D03*
G01X4606348Y-8423852D03*
G01X4098348Y-8423852D03*
G01X5723948Y-8423852D03*
G01X5215948Y-8423852D03*
G54D20*
G01X711200Y-1333500D03*
G01X711200Y-1841500D03*
G54D21*
G01X3111500Y-517500D03*
G01X3111500Y-2657500D03*
G54D22*
G01X4749800Y-3162300D03*
G01X4495800Y-3162300D03*
G01X4241800Y-3162300D03*
G01X3987800Y-3162300D03*
G01X3733800Y-3162300D03*
G01X3479800Y-3162300D03*
G01X3225800Y-3162300D03*
G01X2971800Y-3162300D03*
G01X2717800Y-3162300D03*
G01X2463800Y-3162300D03*
G01X2209800Y-3162300D03*
G01X1955800Y-3162300D03*
G01X1701800Y-3162300D03*
G01X1447800Y-3162300D03*
G01X1193800Y-3162300D03*
G01X939800Y-3162300D03*
G01X685800Y-3162300D03*
G01X431800Y-3162300D03*
G01X177800Y-3162300D03*
G01X4749800Y-5448300D03*
G01X4495800Y-5448300D03*
G01X4241800Y-5448300D03*
G01X3987800Y-5448300D03*
G01X3733800Y-5448300D03*
G01X3479800Y-5448300D03*
G01X3225800Y-5448300D03*
G01X2971800Y-5448300D03*
G01X2717800Y-5448300D03*
G01X2463800Y-5448300D03*
G01X2209800Y-5448300D03*
G01X1955800Y-5448300D03*
G01X1701800Y-5448300D03*
G01X1447800Y-5448300D03*
G01X1193800Y-5448300D03*
G01X939800Y-5448300D03*
G01X685800Y-5448300D03*
G01X431800Y-5448300D03*
G01X177800Y-5448300D03*
G01X7150100Y-5360104D03*
G01X7150100Y-5106104D03*
G01X7150100Y-4852104D03*
G01X7150100Y-4598104D03*
G01X7150100Y-4344104D03*
G01X7150100Y-4090104D03*
G54D23*
G01X6400800Y-3721100D03*
G54D24*
G01X6400800Y-3975100D03*
G01X6400800Y-4229100D03*
G01X6400800Y-4483100D03*
G01X6400800Y-4737100D03*
G01X6400800Y-4991100D03*
G01X6400800Y-5245100D03*
G01X6400800Y-5499100D03*
G01X6400800Y-5753100D03*
G01X1867149Y-7785100D03*
G01X2367148Y-7785100D03*
G01X2984749Y-7785100D03*
G01X3484748Y-7785100D03*
G01X4102349Y-7785100D03*
G01X4602348Y-7785100D03*
G01X5219949Y-7785100D03*
G01X5719948Y-7785100D03*
G54D16*
G01X2679700Y-6045200D03*
G01X3579698Y-6045200D03*
G54D25*
G01X7086600Y-3138500D03*
G01X7086600Y-3338500D03*
G54D24*
G01X6049201Y-3136900D03*
G01X6549200Y-3136900D03*
G54D12*
G01X3683000Y-6296000D03*
G01X3683000Y-7166000D03*
G54D16*
G01X1714500Y-7180999D03*
G01X1714500Y-6281001D03*
G54D21*
G01X7049110Y-6730986D03*
G54D26*
G01X7049084Y-6222986D03*
G54D21*
G01X7049084Y-7217015D03*
G04 Pad End*

G04 Via Start*
G54D27*
G01X3403600Y-6278200D03*
G01X2908300Y-6426200D03*
G01X2908300Y-6146800D03*
G01X2273300Y-5638800D03*
G01X3505200Y-6278200D03*
G01X6807200Y-5422900D03*
G04 Via End*

G04 Track Start*
G54D11*
G01X2641600Y-4102100D02*
G01X6451600Y-4102100D01*
G01X6527800Y-4178300D01*
G01X6527800Y-5041900D01*
G01X6451600Y-5118100D01*
G01X6350000Y-5118100D01*
G01X6273800Y-5194300D01*
G01X6273800Y-5372100D02*
G01X6400800Y-5499100D01*
G01X3327400Y-6908800D02*
G01X3425800Y-6908800D01*
G01X3683000Y-7166000D01*
G01X4150994Y-7166000D01*
G01X4315993Y-7331000D01*
G01X2667000Y-4483100D02*
G01X6400800Y-4483100D01*
G01X1193800Y-5448300D02*
G01X1320800Y-5575300D01*
G01X2235200Y-5575300D02*
G01X2336800Y-5473700D01*
G01X2336800Y-5422900D02*
G01X3022600Y-4737100D01*
G01X6400800Y-4737100D01*
G01X939800Y-5448300D02*
G01X2159000Y-4229100D01*
G01X6400800Y-4229100D01*
G01X4315993Y-6131002D02*
G01X3847997Y-6131002D01*
G01X3683000Y-6296000D02*
G01X3606800Y-6219800D01*
G01X2184400Y-6346800D02*
G01X2171700Y-6350000D01*
G01X2971800Y-5448300D02*
G01X3276600Y-5753100D01*
G01X6400800Y-5753100D01*
G01X6058803Y-5334903D02*
G01X2831197Y-5334903D01*
G01X6350000Y-5626100D02*
G01X6058803Y-5334903D01*
G01X6451600Y-5626100D02*
G01X6350000Y-5626100D01*
G01X2463800Y-5448300D02*
G01X2895600Y-5880100D01*
G01X6959600Y-5880100D02*
G01X7340600Y-5499100D01*
G01X2371148Y-8423852D02*
G01X2367148Y-8419851D01*
G01X3484748Y-7785100D02*
G01X3073400Y-7373752D01*
G01X3073400Y-6908800D01*
G01X4606348Y-8423852D02*
G01X4602348Y-8419851D01*
G01X7150100Y-4598104D02*
G01X6540500Y-3988504D01*
G01X6414204Y-3988504D01*
G01X6400800Y-3975100D01*
G01X1790700Y-1964350D02*
G01X4117863Y-1964350D01*
G01X1701800Y-3162300D02*
G01X2641600Y-4102100D01*
G01X6273800Y-5194300D02*
G01X6273800Y-5372100D01*
G01X1701800Y-5448300D02*
G01X2667000Y-4483100D01*
G01X1320800Y-5575300D02*
G01X2235200Y-5575300D01*
G01X2336800Y-5473700D02*
G01X2336800Y-5422900D01*
G01X3847997Y-6131002D02*
G01X3683000Y-6296000D01*
G01X800100Y-5461000D02*
G01X800100Y-3784600D01*
G01X2831197Y-5334903D02*
G01X2717800Y-5448300D01*
G01X6527800Y-5549900D02*
G01X6451600Y-5626100D01*
G01X7353300Y-5473700D02*
G01X7353300Y-5309304D01*
G01X2184400Y-6346800D02*
G01X2179650Y-6342050D01*
G01X2171700Y-6334100D01*
G01X1498600Y-5661000D02*
G01X1000100Y-5661000D01*
G01X800100Y-3784600D02*
G01X177800Y-3162300D01*
G01X2895600Y-5880100D02*
G01X6946900Y-5880100D01*
G01X6959600Y-5880100D01*
G01X7340600Y-5499100D02*
G01X7340600Y-5486400D01*
G01X7340600Y-5296604D01*
G01X2425700Y-7112000D02*
G01X2425700Y-6908800D01*
G01X2908300Y-6426200D01*
G01X2908300Y-6146800D02*
G01X2908300Y-6070600D01*
G01X2476500Y-5638800D01*
G01X2273300Y-5638800D01*
G01X6477000Y-5753100D02*
G01X6807200Y-5422900D01*
G01X6400800Y-3975100D02*
G01X6049201Y-3623500D01*
G01X6049201Y-3136900D01*
G01X6946900Y-5880100D02*
G01X7340600Y-5486400D01*
G01X7353300Y-5473700D01*
G01X7353300Y-5309304D02*
G01X7340600Y-5296604D01*
G01X7150100Y-5106104D01*
G01X2171700Y-6350000D02*
G01X2171700Y-6334100D01*
G01X2301900Y-6219800D02*
G01X2179650Y-6342050D01*
G01X2171700Y-6350000D01*
G01X6502400Y-3950404D02*
G01X6502400Y-3897300D01*
G01X7061200Y-3338500D01*
G01X6540500Y-3988504D02*
G01X6502400Y-3950404D01*
G01X7061200Y-3338500D02*
G01X7086600Y-3338500D01*
G01X5422900Y-8082148D02*
G01X5719948Y-7785100D01*
G01X4843648Y-8115300D02*
G01X4602348Y-8356600D01*
G01X4602348Y-7785100D02*
G01X4602348Y-8356600D01*
G01X4602348Y-8419851D02*
G01X4602348Y-8356600D01*
G01X5415397Y-8115300D02*
G01X4843648Y-8115300D01*
G01X5723948Y-8423852D02*
G01X5426423Y-8126326D01*
G01X5415397Y-8115300D01*
G01X5426423Y-8085671D02*
G01X5422900Y-8082148D01*
G01X5426423Y-8126326D02*
G01X5426423Y-8085671D01*
G01X3484748Y-7734300D02*
G01X3637148Y-7581900D01*
G01X4500748Y-7581900D01*
G01X4602348Y-7683500D01*
G01X3484748Y-7785100D02*
G01X3484748Y-7734300D01*
G01X4602348Y-7683500D02*
G01X4602348Y-7785100D01*
G01X2367148Y-8318500D02*
G01X2544948Y-8140700D01*
G01X2367148Y-7785100D02*
G01X2367148Y-8318500D01*
G01X2367148Y-8419851D02*
G01X2367148Y-8318500D01*
G01X3116448Y-8153400D02*
G01X3218297Y-8153400D01*
G01X3488748Y-8423852D01*
G01X3116448Y-8153400D02*
G01X3484748Y-7785100D01*
G01X2544948Y-8140700D02*
G01X3116448Y-8140700D01*
G01X3116448Y-8153400D01*
G01X3606800Y-6219800D02*
G01X2301900Y-6219800D01*
G01X2171700Y-6334100D02*
G01X1498600Y-5661000D01*
G01X1000100Y-5661000D02*
G01X800100Y-5461000D01*
G01X3212799Y-6896401D02*
G01X3200400Y-6908800D01*
G01X3456880Y-6499920D02*
G01X3212799Y-6744001D01*
G01X3212799Y-6896401D01*
G01X3558480Y-6499920D02*
G01X3456880Y-6499920D01*
G01X6400800Y-5753100D02*
G01X6477000Y-5753100D01*
G01X6527800Y-5372100D02*
G01X6400800Y-5245100D01*
G01X6527800Y-5397500D02*
G01X6527800Y-5549900D01*
G01X6527800Y-5397500D02*
G01X6527800Y-5372100D01*
G01X6527800Y-5397500D02*
G01X6590596Y-5334704D01*
G01X7124700Y-5334704D01*
G01X7150100Y-5360104D01*
G01X4067063Y-1913550D02*
G01X4117863Y-1964350D01*
G01X4156100Y-2002587D01*
G01X4067063Y-1913550D02*
G01X1790700Y-1913550D01*
G01X7261200Y-1134999D02*
G01X7108800Y-982599D01*
G01X7086600Y-3338500D02*
G01X7099300Y-3338500D01*
G01X7108800Y-982599D02*
G01X7096100Y-982599D01*
G01X7099300Y-3338500D02*
G01X7261200Y-3176600D01*
G01X7261200Y-1134999D01*
G01X2341748Y-7759700D02*
G01X2367148Y-7785100D01*
G01X2184400Y-7759700D02*
G01X2341748Y-7759700D01*
G01X1981200Y-7556500D02*
G01X2184400Y-7759700D01*
G01X1714500Y-7556500D02*
G01X1981200Y-7556500D01*
G01X1292797Y-7134797D02*
G01X1714500Y-7556500D01*
G01X886394Y-7134797D02*
G01X1292797Y-7134797D01*
G01X860994Y-7160196D02*
G01X886394Y-7134797D01*
G01X762000Y-7160197D02*
G01X860994Y-7160197D01*
G01X3403600Y-6278200D02*
G01X3558480Y-6433080D01*
G01X3558480Y-6331480D02*
G01X3505200Y-6278200D01*
G01X3558480Y-6499920D02*
G01X3558480Y-6433080D01*
G01X3558480Y-6331480D01*
G01X1473200Y-3136900D02*
G01X1447800Y-3162300D01*
G01X6049201Y-3136900D02*
G01X4871620Y-3136900D01*
G01X1658680Y-3058200D02*
G01X1579980Y-3136900D01*
G01X1473200Y-3136900D01*
G01X4871620Y-3136900D02*
G01X4792920Y-3058200D01*
G01X1658680Y-3058200D01*
G54D21*
G01X4115994Y-6731001D02*
G01X7049094Y-6731001D01*
G04 Track End*

M02*

