G04 Layer: TopSilkscreenLayer*
G04 EasyEDA Pro v2.2.46.11, 2026-04-04 14:23:12*
G04 Gerber Generator version 0.3*
G04 Scale: 100 percent, Rotated: No, Reflected: No*
G04 Dimensions in millimeters*
G04 Leading zeros omitted, absolute positions, 4 integers and 5 decimals*
G04 Generated by one-click*
%FSLAX45Y45*%
%MOMM*%
%ADD10C,0.1524*%
%ADD11C,0.2032*%
%ADD12C,0.203*%
%ADD13C,0.254*%
%ADD14C,0.3*%
%ADD15C,0.4148*%
%ADD16C,0.4064*%
%ADD17C,0.11999*%
%ADD18C,0.4*%
G75*


G04 Text Start*
G54D10*
G01X1389634Y-1321054D02*
G01X1324610Y-1321054D01*
G01X1389634Y-1321054D02*
G01X1389634Y-1348994D01*
G01X1386586Y-1358138D01*
G01X1383538Y-1361186D01*
G01X1377188Y-1364488D01*
G01X1371092Y-1364488D01*
G01X1364996Y-1361186D01*
G01X1361948Y-1358138D01*
G01X1358646Y-1348994D01*
G01X1358646Y-1321054D01*
G01X1358646Y-1342644D02*
G01X1324610Y-1364488D01*
G01X1374140Y-1397762D02*
G01X1377188Y-1397762D01*
G01X1383538Y-1400810D01*
G01X1386586Y-1403858D01*
G01X1389634Y-1409954D01*
G01X1389634Y-1422400D01*
G01X1386586Y-1428750D01*
G01X1383538Y-1431798D01*
G01X1377188Y-1434846D01*
G01X1371092Y-1434846D01*
G01X1364996Y-1431798D01*
G01X1355598Y-1425448D01*
G01X1324610Y-1394714D01*
G01X1324610Y-1437894D01*
G54D11*
G01X1847908Y-8165700D02*
G01X1855782Y-8161890D01*
G01X1867466Y-8150206D01*
G01X1867466Y-8231994D01*
G01X2359718Y-8169764D02*
G01X2359718Y-8165700D01*
G01X2363782Y-8158080D01*
G01X2367592Y-8154016D01*
G01X2375466Y-8150206D01*
G01X2390960Y-8150206D01*
G01X2398834Y-8154016D01*
G01X2402644Y-8158080D01*
G01X2406708Y-8165700D01*
G01X2406708Y-8173574D01*
G01X2402644Y-8181448D01*
G01X2395024Y-8193132D01*
G01X2355908Y-8231994D01*
G01X2410518Y-8231994D01*
G01X2965508Y-8165700D02*
G01X2973382Y-8161890D01*
G01X2985066Y-8150206D01*
G01X2985066Y-8231994D01*
G01X3477318Y-8169764D02*
G01X3477318Y-8165700D01*
G01X3481382Y-8158080D01*
G01X3485192Y-8154016D01*
G01X3493066Y-8150206D01*
G01X3508560Y-8150206D01*
G01X3516434Y-8154016D01*
G01X3520244Y-8158080D01*
G01X3524308Y-8165700D01*
G01X3524308Y-8173574D01*
G01X3520244Y-8181448D01*
G01X3512624Y-8193132D01*
G01X3473508Y-8231994D01*
G01X3528118Y-8231994D01*
G01X4083108Y-8165700D02*
G01X4090982Y-8161890D01*
G01X4102666Y-8150206D01*
G01X4102666Y-8231994D01*
G01X4594918Y-8169764D02*
G01X4594918Y-8165700D01*
G01X4598982Y-8158080D01*
G01X4602792Y-8154016D01*
G01X4610666Y-8150206D01*
G01X4626160Y-8150206D01*
G01X4634034Y-8154016D01*
G01X4637844Y-8158080D01*
G01X4641908Y-8165700D01*
G01X4641908Y-8173574D01*
G01X4637844Y-8181448D01*
G01X4630224Y-8193132D01*
G01X4591108Y-8231994D01*
G01X4645718Y-8231994D01*
G01X5200708Y-8165700D02*
G01X5208582Y-8161890D01*
G01X5220266Y-8150206D01*
G01X5220266Y-8231994D01*
G01X5712518Y-8169764D02*
G01X5712518Y-8165700D01*
G01X5716582Y-8158080D01*
G01X5720392Y-8154016D01*
G01X5728266Y-8150206D01*
G01X5743760Y-8150206D01*
G01X5751634Y-8154016D01*
G01X5755444Y-8158080D01*
G01X5759508Y-8165700D01*
G01X5759508Y-8173574D01*
G01X5755444Y-8181448D01*
G01X5747824Y-8193132D01*
G01X5708708Y-8231994D01*
G01X5763318Y-8231994D01*
G01X453049Y-1856740D02*
G01X449239Y-1848866D01*
G01X437555Y-1837182D01*
G01X519343Y-1837182D01*
G01X457113Y-1344930D02*
G01X453049Y-1344930D01*
G01X445429Y-1340866D01*
G01X441365Y-1337056D01*
G01X437555Y-1329182D01*
G01X437555Y-1313688D01*
G01X441365Y-1305814D01*
G01X445429Y-1302004D01*
G01X453049Y-1297940D01*
G01X460923Y-1297940D01*
G01X468797Y-1302004D01*
G01X480481Y-1309624D01*
G01X519343Y-1348740D01*
G01X519343Y-1294130D01*
G01X3180080Y-1293470D02*
G01X3059938Y-1213460D01*
G01X3180080Y-1213460D02*
G01X3180080Y-1293470D01*
G01X3059938Y-1213460D02*
G01X3059938Y-1293470D01*
G01X3180080Y-1341222D02*
G01X3059938Y-1341222D01*
G01X3180080Y-1421232D02*
G01X3059938Y-1421232D01*
G01X3122930Y-1341222D02*
G01X3122930Y-1421232D01*
G01X3180080Y-1468984D02*
G01X3059938Y-1468984D01*
G01X3059938Y-1468984D02*
G01X3059938Y-1537564D01*
G01X3157220Y-1585316D02*
G01X3162808Y-1596746D01*
G01X3180080Y-1614018D01*
G01X3059938Y-1614018D01*
G01X3151378Y-1667612D02*
G01X3157220Y-1667612D01*
G01X3168650Y-1673200D01*
G01X3174238Y-1679042D01*
G01X3180080Y-1690472D01*
G01X3180080Y-1713332D01*
G01X3174238Y-1724762D01*
G01X3168650Y-1730350D01*
G01X3157220Y-1736192D01*
G01X3145790Y-1736192D01*
G01X3134360Y-1730350D01*
G01X3117088Y-1718920D01*
G01X3059938Y-1661770D01*
G01X3059938Y-1741780D01*
G54D10*
G01X4969434Y-1288212D02*
G01X4919904Y-1288212D01*
G01X4910760Y-1285164D01*
G01X4907458Y-1282116D01*
G01X4904410Y-1275766D01*
G01X4904410Y-1269670D01*
G01X4907458Y-1263320D01*
G01X4910760Y-1260272D01*
G01X4919904Y-1257224D01*
G01X4926254Y-1257224D01*
G01X4956988Y-1318438D02*
G01X4960290Y-1324534D01*
G01X4969434Y-1333678D01*
G01X4904410Y-1333678D01*
G01X4936734Y-3071211D02*
G01X4887204Y-3071211D01*
G01X4878060Y-3068163D01*
G01X4874758Y-3065115D01*
G01X4871710Y-3058765D01*
G01X4871710Y-3052669D01*
G01X4874758Y-3046319D01*
G01X4878060Y-3043271D01*
G01X4887204Y-3040223D01*
G01X4893554Y-3040223D01*
G01X4921240Y-3104485D02*
G01X4924288Y-3104485D01*
G01X4930638Y-3107533D01*
G01X4933686Y-3110581D01*
G01X4936734Y-3116677D01*
G01X4936734Y-3129123D01*
G01X4933686Y-3135473D01*
G01X4930638Y-3138521D01*
G01X4924288Y-3141569D01*
G01X4918192Y-3141569D01*
G01X4912096Y-3138521D01*
G01X4902698Y-3132171D01*
G01X4871710Y-3101437D01*
G01X4871710Y-3144617D01*
G01X7409434Y-4161224D02*
G01X7362952Y-4161224D01*
G01X7353808Y-4164272D01*
G01X7347458Y-4170622D01*
G01X7344410Y-4179766D01*
G01X7344410Y-4186116D01*
G01X7347458Y-4195260D01*
G01X7353808Y-4201356D01*
G01X7362952Y-4204658D01*
G01X7409434Y-4204658D01*
G01X7396988Y-4234884D02*
G01X7400290Y-4240980D01*
G01X7409434Y-4250124D01*
G01X7344410Y-4250124D01*
G01X7409434Y-4298892D02*
G01X7406386Y-4289494D01*
G01X7396988Y-4283398D01*
G01X7381748Y-4280350D01*
G01X7372350Y-4280350D01*
G01X7356856Y-4283398D01*
G01X7347458Y-4289494D01*
G01X7344410Y-4298892D01*
G01X7344410Y-4304988D01*
G01X7347458Y-4314386D01*
G01X7356856Y-4320482D01*
G01X7372350Y-4323530D01*
G01X7381748Y-4323530D01*
G01X7396988Y-4320482D01*
G01X7406386Y-4314386D01*
G01X7409434Y-4304988D01*
G01X7409434Y-4298892D01*
G01X5637022Y-109982D02*
G01X5590540Y-109982D01*
G01X5581396Y-113030D01*
G01X5575046Y-119380D01*
G01X5571998Y-128524D01*
G01X5571998Y-134874D01*
G01X5575046Y-144018D01*
G01X5581396Y-150114D01*
G01X5590540Y-153416D01*
G01X5637022Y-153416D01*
G01X5621528Y-186690D02*
G01X5624576Y-186690D01*
G01X5630926Y-189738D01*
G01X5633974Y-192786D01*
G01X5637022Y-198882D01*
G01X5637022Y-211328D01*
G01X5633974Y-217678D01*
G01X5630926Y-220726D01*
G01X5624576Y-223774D01*
G01X5618480Y-223774D01*
G01X5612384Y-220726D01*
G01X5602986Y-214376D01*
G01X5571998Y-183642D01*
G01X5571998Y-226822D01*
G01X5987034Y-5945918D02*
G01X5922010Y-5945918D01*
G01X5987034Y-5945918D02*
G01X5987034Y-5973858D01*
G01X5983986Y-5983002D01*
G01X5980938Y-5986050D01*
G01X5974588Y-5989352D01*
G01X5968492Y-5989352D01*
G01X5962396Y-5986050D01*
G01X5959348Y-5983002D01*
G01X5956046Y-5973858D01*
G01X5956046Y-5945918D01*
G01X5956046Y-5967508D02*
G01X5922010Y-5989352D01*
G01X5987034Y-6019578D02*
G01X5922010Y-6019578D01*
G01X5922010Y-6019578D02*
G01X5922010Y-6056662D01*
G01X5987034Y-6086888D02*
G01X5956046Y-6111526D01*
G01X5922010Y-6111526D01*
G01X5987034Y-6136418D02*
G01X5956046Y-6111526D01*
G01X5974588Y-6166644D02*
G01X5977890Y-6172740D01*
G01X5987034Y-6181884D01*
G01X5922010Y-6181884D01*
G01X2916555Y-7132066D02*
G01X2910459Y-7135114D01*
G01X2904109Y-7141210D01*
G01X2901061Y-7147560D01*
G01X2898013Y-7156704D01*
G01X2898013Y-7172198D01*
G01X2901061Y-7181596D01*
G01X2904109Y-7187692D01*
G01X2910459Y-7194042D01*
G01X2916555Y-7197090D01*
G01X2929001Y-7197090D01*
G01X2935097Y-7194042D01*
G01X2941447Y-7187692D01*
G01X2944495Y-7181596D01*
G01X2947543Y-7172198D01*
G01X2947543Y-7156704D01*
G01X2944495Y-7147560D01*
G01X2941447Y-7141210D01*
G01X2935097Y-7135114D01*
G01X2929001Y-7132066D01*
G01X2916555Y-7132066D01*
G01X2925953Y-7184644D02*
G01X2944495Y-7203186D01*
G01X2977769Y-7144512D02*
G01X2983865Y-7141210D01*
G01X2993009Y-7132066D01*
G01X2993009Y-7197090D01*
G01X2010791Y-7259066D02*
G01X2010791Y-7305548D01*
G01X2013839Y-7314692D01*
G01X2020189Y-7321042D01*
G01X2029333Y-7324090D01*
G01X2035683Y-7324090D01*
G01X2044827Y-7321042D01*
G01X2050923Y-7314692D01*
G01X2054225Y-7305548D01*
G01X2054225Y-7259066D01*
G01X2099691Y-7259066D02*
G01X2090547Y-7262114D01*
G01X2087499Y-7268210D01*
G01X2087499Y-7274560D01*
G01X2090547Y-7280656D01*
G01X2096643Y-7283704D01*
G01X2109089Y-7286752D01*
G01X2118487Y-7290054D01*
G01X2124583Y-7296150D01*
G01X2127631Y-7302246D01*
G01X2127631Y-7311644D01*
G01X2124583Y-7317740D01*
G01X2121535Y-7321042D01*
G01X2112137Y-7324090D01*
G01X2099691Y-7324090D01*
G01X2090547Y-7321042D01*
G01X2087499Y-7317740D01*
G01X2084451Y-7311644D01*
G01X2084451Y-7302246D01*
G01X2087499Y-7296150D01*
G01X2093595Y-7290054D01*
G01X2102993Y-7286752D01*
G01X2115185Y-7283704D01*
G01X2121535Y-7280656D01*
G01X2124583Y-7274560D01*
G01X2124583Y-7268210D01*
G01X2121535Y-7262114D01*
G01X2112137Y-7259066D01*
G01X2099691Y-7259066D01*
G01X118313Y-6527292D02*
G01X53289Y-6527292D01*
G01X53289Y-6527292D02*
G01X53289Y-6564376D01*
G01X109169Y-6637782D02*
G01X115265Y-6631686D01*
G01X118313Y-6622288D01*
G01X118313Y-6609842D01*
G01X115265Y-6600698D01*
G01X109169Y-6594602D01*
G01X102819Y-6594602D01*
G01X96723Y-6597650D01*
G01X93675Y-6600698D01*
G01X90627Y-6606794D01*
G01X84277Y-6625336D01*
G01X81229Y-6631686D01*
G01X78181Y-6634734D01*
G01X71831Y-6637782D01*
G01X62687Y-6637782D01*
G01X56337Y-6631686D01*
G01X53289Y-6622288D01*
G01X53289Y-6609842D01*
G01X56337Y-6600698D01*
G01X62687Y-6594602D01*
G01X105867Y-6668008D02*
G01X109169Y-6674104D01*
G01X118313Y-6683248D01*
G01X53289Y-6683248D01*
G01X1604068Y-7897818D02*
G01X1647502Y-7962842D01*
G01X1647502Y-7897818D02*
G01X1604068Y-7962842D01*
G01X1708462Y-7897818D02*
G01X1677728Y-7940998D01*
G01X1723956Y-7940998D01*
G01X1708462Y-7897818D02*
G01X1708462Y-7962842D01*
G01X2721668Y-7897818D02*
G01X2765102Y-7962842D01*
G01X2765102Y-7897818D02*
G01X2721668Y-7962842D01*
G01X2832412Y-7897818D02*
G01X2801424Y-7897818D01*
G01X2798376Y-7925504D01*
G01X2801424Y-7922456D01*
G01X2810568Y-7919408D01*
G01X2819966Y-7919408D01*
G01X2829364Y-7922456D01*
G01X2835460Y-7928806D01*
G01X2838508Y-7937950D01*
G01X2838508Y-7944300D01*
G01X2835460Y-7953444D01*
G01X2829364Y-7959794D01*
G01X2819966Y-7962842D01*
G01X2810568Y-7962842D01*
G01X2801424Y-7959794D01*
G01X2798376Y-7956492D01*
G01X2795328Y-7950396D01*
G01X3839268Y-7897818D02*
G01X3882702Y-7962842D01*
G01X3882702Y-7897818D02*
G01X3839268Y-7962842D01*
G01X3950012Y-7906962D02*
G01X3946964Y-7900866D01*
G01X3937566Y-7897818D01*
G01X3931470Y-7897818D01*
G01X3922072Y-7900866D01*
G01X3915976Y-7910264D01*
G01X3912928Y-7925504D01*
G01X3912928Y-7940998D01*
G01X3915976Y-7953444D01*
G01X3922072Y-7959794D01*
G01X3931470Y-7962842D01*
G01X3934518Y-7962842D01*
G01X3943662Y-7959794D01*
G01X3950012Y-7953444D01*
G01X3953060Y-7944300D01*
G01X3953060Y-7940998D01*
G01X3950012Y-7931854D01*
G01X3943662Y-7925504D01*
G01X3934518Y-7922456D01*
G01X3931470Y-7922456D01*
G01X3922072Y-7925504D01*
G01X3915976Y-7931854D01*
G01X3912928Y-7940998D01*
G01X4956868Y-7897818D02*
G01X5000302Y-7962842D01*
G01X5000302Y-7897818D02*
G01X4956868Y-7962842D01*
G01X5073708Y-7897818D02*
G01X5042720Y-7962842D01*
G01X5030528Y-7897818D02*
G01X5073708Y-7897818D01*
G01X6685534Y-4218120D02*
G01X6620510Y-4218120D01*
G01X6685534Y-4261554D02*
G01X6620510Y-4261554D01*
G01X6654546Y-4218120D02*
G01X6654546Y-4261554D01*
G01X6598920Y-4291780D02*
G01X6598920Y-4347406D01*
G01X6676390Y-4420812D02*
G01X6682486Y-4414716D01*
G01X6685534Y-4405318D01*
G01X6685534Y-4392872D01*
G01X6682486Y-4383728D01*
G01X6676390Y-4377632D01*
G01X6670040Y-4377632D01*
G01X6663944Y-4380680D01*
G01X6660896Y-4383728D01*
G01X6657848Y-4389824D01*
G01X6651498Y-4408366D01*
G01X6648450Y-4414716D01*
G01X6645402Y-4417764D01*
G01X6639052Y-4420812D01*
G01X6629908Y-4420812D01*
G01X6623558Y-4414716D01*
G01X6620510Y-4405318D01*
G01X6620510Y-4392872D01*
G01X6623558Y-4383728D01*
G01X6629908Y-4377632D01*
G01X6670040Y-4497266D02*
G01X6676390Y-4494218D01*
G01X6682486Y-4488122D01*
G01X6685534Y-4481772D01*
G01X6685534Y-4469580D01*
G01X6682486Y-4463230D01*
G01X6676390Y-4457134D01*
G01X6670040Y-4454086D01*
G01X6660896Y-4451038D01*
G01X6645402Y-4451038D01*
G01X6636004Y-4454086D01*
G01X6629908Y-4457134D01*
G01X6623558Y-4463230D01*
G01X6620510Y-4469580D01*
G01X6620510Y-4481772D01*
G01X6623558Y-4488122D01*
G01X6629908Y-4494218D01*
G01X6636004Y-4497266D01*
G01X6685534Y-4527492D02*
G01X6620510Y-4527492D01*
G01X6685534Y-4527492D02*
G01X6685534Y-4555178D01*
G01X6682486Y-4564576D01*
G01X6679438Y-4567624D01*
G01X6673088Y-4570672D01*
G01X6666992Y-4570672D01*
G01X6660896Y-4567624D01*
G01X6657848Y-4564576D01*
G01X6654546Y-4555178D01*
G01X6654546Y-4527492D01*
G01X6654546Y-4549082D02*
G01X6620510Y-4570672D01*
G01X6685534Y-4600898D02*
G01X6620510Y-4600898D01*
G01X6685534Y-4600898D02*
G01X6685534Y-4641030D01*
G01X6654546Y-4600898D02*
G01X6654546Y-4625536D01*
G01X6620510Y-4600898D02*
G01X6620510Y-4641030D01*
G01X6685534Y-4671256D02*
G01X6620510Y-4671256D01*
G01X6685534Y-4671256D02*
G01X6685534Y-4711388D01*
G01X6654546Y-4671256D02*
G01X6654546Y-4695894D01*
G01X6620510Y-4671256D02*
G01X6620510Y-4711388D01*
G01X6685534Y-4741614D02*
G01X6620510Y-4741614D01*
G01X6685534Y-4741614D02*
G01X6620510Y-4784794D01*
G01X6685534Y-4784794D02*
G01X6620510Y-4784794D01*
G01X1905566Y-7579360D02*
G01X1902518Y-7573010D01*
G01X1896168Y-7566914D01*
G01X1890072Y-7563866D01*
G01X1877626Y-7563866D01*
G01X1871530Y-7566914D01*
G01X1865180Y-7573010D01*
G01X1862132Y-7579360D01*
G01X1859084Y-7588504D01*
G01X1859084Y-7603998D01*
G01X1862132Y-7613396D01*
G01X1865180Y-7619492D01*
G01X1871530Y-7625842D01*
G01X1877626Y-7628890D01*
G01X1890072Y-7628890D01*
G01X1896168Y-7625842D01*
G01X1902518Y-7619492D01*
G01X1905566Y-7613396D01*
G01X1978972Y-7563866D02*
G01X1947984Y-7628890D01*
G01X1935792Y-7563866D02*
G01X1978972Y-7563866D01*
G01X3021642Y-7579360D02*
G01X3018594Y-7573010D01*
G01X3012244Y-7566914D01*
G01X3006148Y-7563866D01*
G01X2993702Y-7563866D01*
G01X2987606Y-7566914D01*
G01X2981256Y-7573010D01*
G01X2978208Y-7579360D01*
G01X2975160Y-7588504D01*
G01X2975160Y-7603998D01*
G01X2978208Y-7613396D01*
G01X2981256Y-7619492D01*
G01X2987606Y-7625842D01*
G01X2993702Y-7628890D01*
G01X3006148Y-7628890D01*
G01X3012244Y-7625842D01*
G01X3018594Y-7619492D01*
G01X3021642Y-7613396D01*
G01X3067108Y-7563866D02*
G01X3057964Y-7566914D01*
G01X3054916Y-7573010D01*
G01X3054916Y-7579360D01*
G01X3057964Y-7585456D01*
G01X3064060Y-7588504D01*
G01X3076506Y-7591552D01*
G01X3085904Y-7594854D01*
G01X3092000Y-7600950D01*
G01X3095048Y-7607046D01*
G01X3095048Y-7616444D01*
G01X3092000Y-7622540D01*
G01X3088952Y-7625842D01*
G01X3079554Y-7628890D01*
G01X3067108Y-7628890D01*
G01X3057964Y-7625842D01*
G01X3054916Y-7622540D01*
G01X3051868Y-7616444D01*
G01X3051868Y-7607046D01*
G01X3054916Y-7600950D01*
G01X3061012Y-7594854D01*
G01X3070410Y-7591552D01*
G01X3082602Y-7588504D01*
G01X3088952Y-7585456D01*
G01X3092000Y-7579360D01*
G01X3092000Y-7573010D01*
G01X3088952Y-7566914D01*
G01X3079554Y-7563866D01*
G01X3067108Y-7563866D01*
G01X4140766Y-7579360D02*
G01X4137718Y-7573010D01*
G01X4131368Y-7566914D01*
G01X4125272Y-7563866D01*
G01X4112826Y-7563866D01*
G01X4106730Y-7566914D01*
G01X4100380Y-7573010D01*
G01X4097332Y-7579360D01*
G01X4094284Y-7588504D01*
G01X4094284Y-7603998D01*
G01X4097332Y-7613396D01*
G01X4100380Y-7619492D01*
G01X4106730Y-7625842D01*
G01X4112826Y-7628890D01*
G01X4125272Y-7628890D01*
G01X4131368Y-7625842D01*
G01X4137718Y-7619492D01*
G01X4140766Y-7613396D01*
G01X4170992Y-7576312D02*
G01X4177088Y-7573010D01*
G01X4186232Y-7563866D01*
G01X4186232Y-7628890D01*
G01X4235000Y-7563866D02*
G01X4225602Y-7566914D01*
G01X4219506Y-7576312D01*
G01X4216458Y-7591552D01*
G01X4216458Y-7600950D01*
G01X4219506Y-7616444D01*
G01X4225602Y-7625842D01*
G01X4235000Y-7628890D01*
G01X4241096Y-7628890D01*
G01X4250494Y-7625842D01*
G01X4256590Y-7616444D01*
G01X4259638Y-7600950D01*
G01X4259638Y-7591552D01*
G01X4256590Y-7576312D01*
G01X4250494Y-7566914D01*
G01X4241096Y-7563866D01*
G01X4235000Y-7563866D01*
G01X5259890Y-7579360D02*
G01X5256842Y-7573010D01*
G01X5250492Y-7566914D01*
G01X5244396Y-7563866D01*
G01X5231950Y-7563866D01*
G01X5225854Y-7566914D01*
G01X5219504Y-7573010D01*
G01X5216456Y-7579360D01*
G01X5213408Y-7588504D01*
G01X5213408Y-7603998D01*
G01X5216456Y-7613396D01*
G01X5219504Y-7619492D01*
G01X5225854Y-7625842D01*
G01X5231950Y-7628890D01*
G01X5244396Y-7628890D01*
G01X5250492Y-7625842D01*
G01X5256842Y-7619492D01*
G01X5259890Y-7613396D01*
G01X5290116Y-7576312D02*
G01X5296212Y-7573010D01*
G01X5305356Y-7563866D01*
G01X5305356Y-7628890D01*
G01X5335582Y-7576312D02*
G01X5341678Y-7573010D01*
G01X5350822Y-7563866D01*
G01X5350822Y-7628890D01*
G01X2931579Y-6268466D02*
G01X2900591Y-6268466D01*
G01X2897543Y-6296152D01*
G01X2900591Y-6293104D01*
G01X2909989Y-6290056D01*
G01X2919387Y-6290056D01*
G01X2928531Y-6293104D01*
G01X2934627Y-6299454D01*
G01X2937929Y-6308598D01*
G01X2937929Y-6314948D01*
G01X2934627Y-6324092D01*
G01X2928531Y-6330442D01*
G01X2919387Y-6333490D01*
G01X2909989Y-6333490D01*
G01X2900591Y-6330442D01*
G01X2897543Y-6327140D01*
G01X2894495Y-6321044D01*
G01X2968155Y-6280912D02*
G01X2974251Y-6277610D01*
G01X2983395Y-6268466D01*
G01X2983395Y-6333490D01*
G01X3032163Y-6268466D02*
G01X3022765Y-6271514D01*
G01X3016669Y-6280912D01*
G01X3013621Y-6296152D01*
G01X3013621Y-6305550D01*
G01X3016669Y-6321044D01*
G01X3022765Y-6330442D01*
G01X3032163Y-6333490D01*
G01X3038259Y-6333490D01*
G01X3047657Y-6330442D01*
G01X3053753Y-6321044D01*
G01X3056801Y-6305550D01*
G01X3056801Y-6296152D01*
G01X3053753Y-6280912D01*
G01X3047657Y-6271514D01*
G01X3038259Y-6268466D01*
G01X3032163Y-6268466D01*
G01X6101588Y-2880360D02*
G01X6098540Y-2874010D01*
G01X6092190Y-2867914D01*
G01X6086094Y-2864866D01*
G01X6073648Y-2864866D01*
G01X6067552Y-2867914D01*
G01X6061202Y-2874010D01*
G01X6058154Y-2880360D01*
G01X6055106Y-2889504D01*
G01X6055106Y-2904998D01*
G01X6058154Y-2914396D01*
G01X6061202Y-2920492D01*
G01X6067552Y-2926842D01*
G01X6073648Y-2929890D01*
G01X6086094Y-2929890D01*
G01X6092190Y-2926842D01*
G01X6098540Y-2920492D01*
G01X6101588Y-2914396D01*
G01X6131814Y-2877312D02*
G01X6137910Y-2874010D01*
G01X6147054Y-2864866D01*
G01X6147054Y-2929890D01*
G01X6180328Y-2880360D02*
G01X6180328Y-2877312D01*
G01X6183376Y-2870962D01*
G01X6186424Y-2867914D01*
G01X6192520Y-2864866D01*
G01X6204966Y-2864866D01*
G01X6211316Y-2867914D01*
G01X6214364Y-2870962D01*
G01X6217412Y-2877312D01*
G01X6217412Y-2883408D01*
G01X6214364Y-2889504D01*
G01X6208014Y-2898902D01*
G01X6177280Y-2929890D01*
G01X6220460Y-2929890D01*
G01X3921476Y-6412939D02*
G01X3856452Y-6412939D01*
G01X3921476Y-6412939D02*
G01X3921476Y-6434529D01*
G01X3918428Y-6443927D01*
G01X3912332Y-6450023D01*
G01X3905982Y-6453071D01*
G01X3896838Y-6456373D01*
G01X3881344Y-6456373D01*
G01X3871946Y-6453071D01*
G01X3865850Y-6450023D01*
G01X3859500Y-6443927D01*
G01X3856452Y-6434529D01*
G01X3856452Y-6412939D01*
G01X3909030Y-6486599D02*
G01X3912332Y-6492695D01*
G01X3921476Y-6501839D01*
G01X3856452Y-6501839D01*
G01X1554734Y-6509766D02*
G01X1489710Y-6509766D01*
G01X1554734Y-6509766D02*
G01X1554734Y-6537706D01*
G01X1551686Y-6546850D01*
G01X1548638Y-6549898D01*
G01X1542288Y-6553200D01*
G01X1536192Y-6553200D01*
G01X1530096Y-6549898D01*
G01X1527048Y-6546850D01*
G01X1523746Y-6537706D01*
G01X1523746Y-6509766D01*
G01X1523746Y-6531356D02*
G01X1489710Y-6553200D01*
G01X1554734Y-6620510D02*
G01X1554734Y-6589522D01*
G01X1527048Y-6586474D01*
G01X1530096Y-6589522D01*
G01X1533144Y-6598666D01*
G01X1533144Y-6608064D01*
G01X1530096Y-6617462D01*
G01X1523746Y-6623558D01*
G01X1514602Y-6626606D01*
G01X1508252Y-6626606D01*
G01X1499108Y-6623558D01*
G01X1492758Y-6617462D01*
G01X1489710Y-6608064D01*
G01X1489710Y-6598666D01*
G01X1492758Y-6589522D01*
G01X1496060Y-6586474D01*
G01X1502156Y-6583426D01*
G54D12*
G01X6456680Y-7401560D02*
G01X6269990Y-7401560D01*
G01X6456680Y-7401560D02*
G01X6456680Y-7463790D01*
G01X6447790Y-7490460D01*
G01X6430010Y-7508240D01*
G01X6412230Y-7517130D01*
G01X6385560Y-7526020D01*
G01X6341110Y-7526020D01*
G01X6314440Y-7517130D01*
G01X6296660Y-7508240D01*
G01X6278880Y-7490460D01*
G01X6269990Y-7463790D01*
G01X6269990Y-7401560D01*
G01X6456680Y-7660132D02*
G01X6269990Y-7589012D01*
G01X6456680Y-7660132D02*
G01X6269990Y-7731252D01*
G01X6332220Y-7615682D02*
G01X6332220Y-7704582D01*
G01X6412230Y-7927594D02*
G01X6430010Y-7918704D01*
G01X6447790Y-7900924D01*
G01X6456680Y-7883144D01*
G01X6456680Y-7847584D01*
G01X6447790Y-7829804D01*
G01X6430010Y-7812024D01*
G01X6412230Y-7803134D01*
G01X6385560Y-7794244D01*
G01X6341110Y-7794244D01*
G01X6314440Y-7803134D01*
G01X6296660Y-7812024D01*
G01X6278880Y-7829804D01*
G01X6269990Y-7847584D01*
G01X6269990Y-7883144D01*
G01X6278880Y-7900924D01*
G01X6296660Y-7918704D01*
G01X6314440Y-7927594D01*
G01X6456680Y-8189722D02*
G01X6269990Y-8189722D01*
G01X6269990Y-8189722D02*
G01X6269990Y-8296402D01*
G01X6456680Y-8430514D02*
G01X6269990Y-8359394D01*
G01X6456680Y-8430514D02*
G01X6269990Y-8501634D01*
G01X6332220Y-8386064D02*
G01X6332220Y-8474964D01*
G01X6456680Y-8564626D02*
G01X6269990Y-8564626D01*
G01X6456680Y-8564626D02*
G01X6456680Y-8644636D01*
G01X6447790Y-8671306D01*
G01X6438900Y-8680196D01*
G01X6421120Y-8689086D01*
G01X6403340Y-8689086D01*
G01X6385560Y-8680196D01*
G01X6376670Y-8671306D01*
G01X6367780Y-8644636D01*
G01X6367780Y-8564626D02*
G01X6367780Y-8644636D01*
G01X6358890Y-8671306D01*
G01X6350000Y-8680196D01*
G01X6332220Y-8689086D01*
G01X6305550Y-8689086D01*
G01X6287770Y-8680196D01*
G01X6278880Y-8671306D01*
G01X6269990Y-8644636D01*
G01X6269990Y-8564626D01*
G01X6844792Y-7570094D02*
G01X6856222Y-7564252D01*
G01X6867398Y-7553076D01*
G01X6872986Y-7541900D01*
G01X6872986Y-7519548D01*
G01X6867398Y-7508118D01*
G01X6856222Y-7496942D01*
G01X6844792Y-7491354D01*
G01X6828028Y-7485766D01*
G01X6800088Y-7485766D01*
G01X6783070Y-7491354D01*
G01X6771894Y-7496942D01*
G01X6760718Y-7508118D01*
G01X6755130Y-7519548D01*
G01X6755130Y-7541900D01*
G01X6760718Y-7553076D01*
G01X6771894Y-7564252D01*
G01X6783070Y-7570094D01*
G01X6833616Y-7645532D02*
G01X6828028Y-7634102D01*
G01X6816852Y-7622926D01*
G01X6800088Y-7617338D01*
G01X6788658Y-7617338D01*
G01X6771894Y-7622926D01*
G01X6760718Y-7634102D01*
G01X6755130Y-7645532D01*
G01X6755130Y-7662296D01*
G01X6760718Y-7673472D01*
G01X6771894Y-7684648D01*
G01X6788658Y-7690236D01*
G01X6800088Y-7690236D01*
G01X6816852Y-7684648D01*
G01X6828028Y-7673472D01*
G01X6833616Y-7662296D01*
G01X6833616Y-7645532D01*
G01X6833616Y-7737480D02*
G01X6755130Y-7737480D01*
G01X6811264Y-7737480D02*
G01X6828028Y-7754244D01*
G01X6833616Y-7765674D01*
G01X6833616Y-7782438D01*
G01X6828028Y-7793614D01*
G01X6811264Y-7799202D01*
G01X6755130Y-7799202D01*
G01X6872986Y-7863210D02*
G01X6777482Y-7863210D01*
G01X6760718Y-7868798D01*
G01X6755130Y-7880228D01*
G01X6755130Y-7891404D01*
G01X6833616Y-7846446D02*
G01X6833616Y-7885816D01*
G01X6833616Y-7938648D02*
G01X6755130Y-7938648D01*
G01X6800088Y-7938648D02*
G01X6816852Y-7944236D01*
G01X6828028Y-7955412D01*
G01X6833616Y-7966842D01*
G01X6833616Y-7983606D01*
G01X6833616Y-8059044D02*
G01X6828028Y-8047614D01*
G01X6816852Y-8036438D01*
G01X6800088Y-8030850D01*
G01X6788658Y-8030850D01*
G01X6771894Y-8036438D01*
G01X6760718Y-8047614D01*
G01X6755130Y-8059044D01*
G01X6755130Y-8075808D01*
G01X6760718Y-8086984D01*
G01X6771894Y-8098160D01*
G01X6788658Y-8103748D01*
G01X6800088Y-8103748D01*
G01X6816852Y-8098160D01*
G01X6828028Y-8086984D01*
G01X6833616Y-8075808D01*
G01X6833616Y-8059044D01*
G01X6872986Y-8150992D02*
G01X6755130Y-8150992D01*
G01X6833616Y-8265546D02*
G01X6755130Y-8265546D01*
G01X6816852Y-8265546D02*
G01X6828028Y-8254370D01*
G01X6833616Y-8243194D01*
G01X6833616Y-8226430D01*
G01X6828028Y-8215000D01*
G01X6816852Y-8203824D01*
G01X6800088Y-8198236D01*
G01X6788658Y-8198236D01*
G01X6771894Y-8203824D01*
G01X6760718Y-8215000D01*
G01X6755130Y-8226430D01*
G01X6755130Y-8243194D01*
G01X6760718Y-8254370D01*
G01X6771894Y-8265546D01*
G01X6872986Y-8380100D02*
G01X6755130Y-8380100D01*
G01X6816852Y-8380100D02*
G01X6828028Y-8368924D01*
G01X6833616Y-8357748D01*
G01X6833616Y-8340984D01*
G01X6828028Y-8329554D01*
G01X6816852Y-8318378D01*
G01X6800088Y-8312790D01*
G01X6788658Y-8312790D01*
G01X6771894Y-8318378D01*
G01X6760718Y-8329554D01*
G01X6755130Y-8340984D01*
G01X6755130Y-8357748D01*
G01X6760718Y-8368924D01*
G01X6771894Y-8380100D01*
G01X6833616Y-8455538D02*
G01X6828028Y-8444108D01*
G01X6816852Y-8432932D01*
G01X6800088Y-8427344D01*
G01X6788658Y-8427344D01*
G01X6771894Y-8432932D01*
G01X6760718Y-8444108D01*
G01X6755130Y-8455538D01*
G01X6755130Y-8472302D01*
G01X6760718Y-8483478D01*
G01X6771894Y-8494654D01*
G01X6788658Y-8500242D01*
G01X6800088Y-8500242D01*
G01X6816852Y-8494654D01*
G01X6828028Y-8483478D01*
G01X6833616Y-8472302D01*
G01X6833616Y-8455538D01*
G01X6833616Y-8547486D02*
G01X6755130Y-8547486D01*
G01X6800088Y-8547486D02*
G01X6816852Y-8553074D01*
G01X6828028Y-8564250D01*
G01X6833616Y-8575680D01*
G01X6833616Y-8592444D01*
G01X6673088Y-7553076D02*
G01X6554978Y-7553076D01*
G01X6616954Y-7553076D02*
G01X6628130Y-7541900D01*
G01X6633718Y-7530724D01*
G01X6633718Y-7513960D01*
G01X6628130Y-7502530D01*
G01X6616954Y-7491354D01*
G01X6599936Y-7485766D01*
G01X6588760Y-7485766D01*
G01X6571996Y-7491354D01*
G01X6560566Y-7502530D01*
G01X6554978Y-7513960D01*
G01X6554978Y-7530724D01*
G01X6560566Y-7541900D01*
G01X6571996Y-7553076D01*
G01X6599936Y-7600320D02*
G01X6599936Y-7667630D01*
G01X6611112Y-7667630D01*
G01X6622542Y-7662042D01*
G01X6628130Y-7656454D01*
G01X6633718Y-7645278D01*
G01X6633718Y-7628514D01*
G01X6628130Y-7617084D01*
G01X6616954Y-7605908D01*
G01X6599936Y-7600320D01*
G01X6588760Y-7600320D01*
G01X6571996Y-7605908D01*
G01X6560566Y-7617084D01*
G01X6554978Y-7628514D01*
G01X6554978Y-7645278D01*
G01X6560566Y-7656454D01*
G01X6571996Y-7667630D01*
G01X6673088Y-7966588D02*
G01X6554978Y-7966588D01*
G01X6611112Y-7966588D02*
G01X6628130Y-7983352D01*
G01X6633718Y-7994528D01*
G01X6633718Y-8011292D01*
G01X6628130Y-8022722D01*
G01X6611112Y-8028310D01*
G01X6554978Y-8028310D01*
G01X6633718Y-8103748D02*
G01X6628130Y-8092318D01*
G01X6616954Y-8081142D01*
G01X6599936Y-8075554D01*
G01X6588760Y-8075554D01*
G01X6571996Y-8081142D01*
G01X6560566Y-8092318D01*
G01X6554978Y-8103748D01*
G01X6554978Y-8120512D01*
G01X6560566Y-8131688D01*
G01X6571996Y-8142864D01*
G01X6588760Y-8148452D01*
G01X6599936Y-8148452D01*
G01X6616954Y-8142864D01*
G01X6628130Y-8131688D01*
G01X6633718Y-8120512D01*
G01X6633718Y-8103748D01*
G01X6633718Y-8195696D02*
G01X6554978Y-8195696D01*
G01X6599936Y-8195696D02*
G01X6616954Y-8201284D01*
G01X6628130Y-8212460D01*
G01X6633718Y-8223890D01*
G01X6633718Y-8240654D01*
G01X6633718Y-8287898D02*
G01X6554978Y-8287898D01*
G01X6611112Y-8287898D02*
G01X6628130Y-8304662D01*
G01X6633718Y-8316092D01*
G01X6633718Y-8332856D01*
G01X6628130Y-8344032D01*
G01X6611112Y-8349620D01*
G01X6554978Y-8349620D01*
G01X6633718Y-8425058D02*
G01X6628130Y-8413628D01*
G01X6616954Y-8402452D01*
G01X6599936Y-8396864D01*
G01X6588760Y-8396864D01*
G01X6571996Y-8402452D01*
G01X6560566Y-8413628D01*
G01X6554978Y-8425058D01*
G01X6554978Y-8441822D01*
G01X6560566Y-8452998D01*
G01X6571996Y-8464174D01*
G01X6588760Y-8469762D01*
G01X6599936Y-8469762D01*
G01X6616954Y-8464174D01*
G01X6628130Y-8452998D01*
G01X6633718Y-8441822D01*
G01X6633718Y-8425058D01*
G01X6616954Y-8578728D02*
G01X6628130Y-8573140D01*
G01X6633718Y-8556376D01*
G01X6633718Y-8539358D01*
G01X6628130Y-8522594D01*
G01X6616954Y-8517006D01*
G01X6605524Y-8522594D01*
G01X6599936Y-8533770D01*
G01X6594348Y-8561964D01*
G01X6588760Y-8573140D01*
G01X6577584Y-8578728D01*
G01X6571996Y-8578728D01*
G01X6560566Y-8573140D01*
G01X6554978Y-8556376D01*
G01X6554978Y-8539358D01*
G01X6560566Y-8522594D01*
G01X6571996Y-8517006D01*
G54D10*
G01X193040Y-1455547D02*
G01X196088Y-1455547D01*
G01X202438Y-1458595D01*
G01X205486Y-1461897D01*
G01X208534Y-1467993D01*
G01X208534Y-1480439D01*
G01X205486Y-1486535D01*
G01X202438Y-1489583D01*
G01X196088Y-1492631D01*
G01X189992Y-1492631D01*
G01X183896Y-1489583D01*
G01X174498Y-1483487D01*
G01X143510Y-1452499D01*
G01X143510Y-1495933D01*
G01X193040Y-1529207D02*
G01X196088Y-1529207D01*
G01X202438Y-1532255D01*
G01X205486Y-1535303D01*
G01X208534Y-1541399D01*
G01X208534Y-1553845D01*
G01X205486Y-1560195D01*
G01X202438Y-1563243D01*
G01X196088Y-1566291D01*
G01X189992Y-1566291D01*
G01X183896Y-1563243D01*
G01X174498Y-1556893D01*
G01X143510Y-1526159D01*
G01X143510Y-1569339D01*
G01X208534Y-1618107D02*
G01X205486Y-1608709D01*
G01X196088Y-1602613D01*
G01X180848Y-1599565D01*
G01X171450Y-1599565D01*
G01X155956Y-1602613D01*
G01X146558Y-1608709D01*
G01X143510Y-1618107D01*
G01X143510Y-1624203D01*
G01X146558Y-1633601D01*
G01X155956Y-1639697D01*
G01X171450Y-1642745D01*
G01X180848Y-1642745D01*
G01X196088Y-1639697D01*
G01X205486Y-1633601D01*
G01X208534Y-1624203D01*
G01X208534Y-1618107D01*
G01X208534Y-1672971D02*
G01X143510Y-1697609D01*
G01X208534Y-1722501D02*
G01X143510Y-1697609D01*
G01X2519934Y-1458849D02*
G01X2454910Y-1458849D01*
G01X2519934Y-1458849D02*
G01X2519934Y-1498981D01*
G01X2488946Y-1458849D02*
G01X2488946Y-1483741D01*
G01X2507488Y-1529207D02*
G01X2510790Y-1535303D01*
G01X2519934Y-1544447D01*
G01X2454910Y-1544447D01*
G54D12*
G01X5140198Y-3439160D02*
G01X5055108Y-3439160D01*
G01X5140198Y-3439160D02*
G01X5140198Y-3491738D01*
G01X5099558Y-3439160D02*
G01X5099558Y-3471672D01*
G01X5055108Y-3439160D02*
G01X5055108Y-3491738D01*
G01X5128006Y-3588258D02*
G01X5136134Y-3580130D01*
G01X5140198Y-3567938D01*
G01X5140198Y-3551682D01*
G01X5136134Y-3539490D01*
G01X5128006Y-3531616D01*
G01X5119878Y-3531616D01*
G01X5111750Y-3535426D01*
G01X5107686Y-3539490D01*
G01X5103622Y-3547618D01*
G01X5095494Y-3572002D01*
G01X5091430Y-3580130D01*
G01X5087366Y-3584194D01*
G01X5079238Y-3588258D01*
G01X5067300Y-3588258D01*
G01X5059172Y-3580130D01*
G01X5055108Y-3567938D01*
G01X5055108Y-3551682D01*
G01X5059172Y-3539490D01*
G01X5067300Y-3531616D01*
G01X5140198Y-3628136D02*
G01X5055108Y-3628136D01*
G01X5140198Y-3628136D02*
G01X5140198Y-3664458D01*
G01X5136134Y-3676650D01*
G01X5132070Y-3680714D01*
G01X5123942Y-3684778D01*
G01X5111750Y-3684778D01*
G01X5103622Y-3680714D01*
G01X5099558Y-3676650D01*
G01X5095494Y-3664458D01*
G01X5095494Y-3628136D01*
G01X5140198Y-3732530D02*
G01X5140198Y-3777234D01*
G01X5107686Y-3752850D01*
G01X5107686Y-3765042D01*
G01X5103622Y-3773170D01*
G01X5099558Y-3777234D01*
G01X5087366Y-3781298D01*
G01X5079238Y-3781298D01*
G01X5067300Y-3777234D01*
G01X5059172Y-3769106D01*
G01X5055108Y-3756914D01*
G01X5055108Y-3744722D01*
G01X5059172Y-3732530D01*
G01X5063236Y-3728466D01*
G01X5071110Y-3724656D01*
G01X5119878Y-3824986D02*
G01X5123942Y-3824986D01*
G01X5132070Y-3829050D01*
G01X5136134Y-3833114D01*
G01X5140198Y-3841242D01*
G01X5140198Y-3857498D01*
G01X5136134Y-3865626D01*
G01X5132070Y-3869690D01*
G01X5123942Y-3873754D01*
G01X5115814Y-3873754D01*
G01X5107686Y-3869690D01*
G01X5095494Y-3861562D01*
G01X5055108Y-3821176D01*
G01X5055108Y-3877818D01*
G54D10*
G01X7444740Y-3063621D02*
G01X7451090Y-3060573D01*
G01X7457186Y-3054223D01*
G01X7460234Y-3048127D01*
G01X7460234Y-3035681D01*
G01X7457186Y-3029585D01*
G01X7451090Y-3023235D01*
G01X7444740Y-3020187D01*
G01X7435596Y-3017139D01*
G01X7420102Y-3017139D01*
G01X7410704Y-3020187D01*
G01X7404608Y-3023235D01*
G01X7398258Y-3029585D01*
G01X7395210Y-3035681D01*
G01X7395210Y-3048127D01*
G01X7398258Y-3054223D01*
G01X7404608Y-3060573D01*
G01X7410704Y-3063621D01*
G01X7451090Y-3130931D02*
G01X7457186Y-3127883D01*
G01X7460234Y-3118485D01*
G01X7460234Y-3112389D01*
G01X7457186Y-3102991D01*
G01X7447788Y-3096895D01*
G01X7432548Y-3093847D01*
G01X7417054Y-3093847D01*
G01X7404608Y-3096895D01*
G01X7398258Y-3102991D01*
G01X7395210Y-3112389D01*
G01X7395210Y-3115437D01*
G01X7398258Y-3124581D01*
G01X7404608Y-3130931D01*
G01X7413752Y-3133979D01*
G01X7417054Y-3133979D01*
G01X7426198Y-3130931D01*
G01X7432548Y-3124581D01*
G01X7435596Y-3115437D01*
G01X7435596Y-3112389D01*
G01X7432548Y-3102991D01*
G01X7426198Y-3096895D01*
G01X7417054Y-3093847D01*
G54D11*
G01X6652387Y-6237743D02*
G01X6652387Y-6193293D01*
G01X6684899Y-6217423D01*
G01X6684899Y-6205231D01*
G01X6688963Y-6197357D01*
G01X6693027Y-6193293D01*
G01X6705219Y-6189229D01*
G01X6713347Y-6189229D01*
G01X6725285Y-6193293D01*
G01X6733413Y-6201167D01*
G01X6737477Y-6213359D01*
G01X6737477Y-6225551D01*
G01X6733413Y-6237743D01*
G01X6729349Y-6241807D01*
G01X6721221Y-6245871D01*
G01X6668643Y-7246860D02*
G01X6664579Y-7238732D01*
G01X6652387Y-7226540D01*
G01X6737477Y-7226540D01*
G01X6672707Y-6748791D02*
G01X6668643Y-6748791D01*
G01X6660515Y-6744727D01*
G01X6656451Y-6740663D01*
G01X6652387Y-6732535D01*
G01X6652387Y-6716279D01*
G01X6656451Y-6708151D01*
G01X6660515Y-6704341D01*
G01X6668643Y-6700277D01*
G01X6676771Y-6700277D01*
G01X6684899Y-6704341D01*
G01X6697091Y-6712215D01*
G01X6737477Y-6752855D01*
G01X6737477Y-6696213D01*
G54D10*
G01X8082534Y-6394831D02*
G01X8017510Y-6438265D01*
G01X8082534Y-6438265D02*
G01X8017510Y-6394831D01*
G01X8060944Y-6508623D02*
G01X8051546Y-6505575D01*
G01X8045450Y-6499225D01*
G01X8042402Y-6490081D01*
G01X8042402Y-6487033D01*
G01X8045450Y-6477635D01*
G01X8051546Y-6471539D01*
G01X8060944Y-6468491D01*
G01X8063992Y-6468491D01*
G01X8073390Y-6471539D01*
G01X8079486Y-6477635D01*
G01X8082534Y-6487033D01*
G01X8082534Y-6490081D01*
G01X8079486Y-6499225D01*
G01X8073390Y-6505575D01*
G01X8060944Y-6508623D01*
G01X8045450Y-6508623D01*
G01X8029956Y-6505575D01*
G01X8020558Y-6499225D01*
G01X8017510Y-6490081D01*
G01X8017510Y-6483731D01*
G01X8020558Y-6474587D01*
G01X8026908Y-6471539D01*
G04 Text End*

G04 PolygonModel Start*
G54D13*
G01X482600Y-6398194D02*
G01X635000Y-6398194D01*
G01X558800Y-6321994D02*
G01X558800Y-6474394D01*
G01X457200Y-6398194D02*
G03X1066800Y-6398194I304800J-380988D01*
G01X457200Y-6398194D02*
G02X1066800Y-6398194I304800J10412D01*
G01X3398390Y-7058787D02*
G01X3002410Y-7058787D01*
G01X3398520Y-7058914D02*
G03X3002280Y-7058914I-198120J149840D01*
G01X2125701Y-964451D02*
G01X2125701Y-2214461D01*
G01X2125701Y-2214435D02*
G01X1455699Y-2214435D01*
G01X1455699Y-2214435D02*
G01X1455699Y-964247D01*
G01X1455649Y-964451D02*
G01X2125701Y-964451D01*
G54D14*
G01X4596801Y-6625916D02*
G01X4596801Y-6131002D01*
G01X4596801Y-7331000D02*
G01X4596801Y-6836127D01*
G01X4596801Y-7330998D02*
G01X4495013Y-7331000D01*
G01X4596801Y-6131005D02*
G01X4495013Y-6131002D01*
G01X5542839Y-7156705D02*
G01X5542839Y-6762243D01*
G01X5441010Y-6660897D02*
G01X5606059Y-6500115D01*
G01X4122826Y-6551002D02*
G01X4122826Y-6358282D01*
G01X4122826Y-6358282D02*
G01X4986426Y-6358282D01*
G01X4986426Y-6358282D02*
G01X4986426Y-6658281D01*
G01X4986426Y-6658281D02*
G01X4988839Y-6660697D01*
G01X4988839Y-6660697D02*
G01X5390439Y-6660697D01*
G01X5390439Y-6660697D02*
G01X5441239Y-6660697D01*
G54D13*
G01X5876110Y-7511000D02*
G01X3956098Y-7511000D01*
G01X5876097Y-5950998D02*
G01X3956086Y-5950998D01*
G01X5876100Y-7511002D02*
G01X5876100Y-5951000D01*
G01X5535930Y-6306313D02*
G01X5535930Y-6529071D01*
G01X3956086Y-5950998D02*
G01X3956086Y-6701532D01*
G01X3956086Y-6760470D02*
G01X3956086Y-7511000D01*
G01X4448505Y-6631001D02*
G01X4748505Y-6631001D01*
G01X4748505Y-6831001D01*
G01X4448505Y-6831001D01*
G01X4448505Y-6631001D01*
G01X3911600Y-736600D02*
G01X7340600Y-736600D01*
G01X7340600Y-2768600D01*
G01X3911600Y-2768600D01*
G01X3911600Y-736600D01*
G54D16*
G01X2857500Y-6400800D02*
G01X2857500Y-7035800D01*
G01X1968500Y-6591300D02*
G01X1968500Y-6400800D01*
G01X1968500Y-7035800D02*
G01X1968500Y-6845300D01*
G01X2857500Y-6400800D02*
G01X2800139Y-6400800D01*
G01X2559261Y-6400800D02*
G01X2546139Y-6400800D01*
G01X2305261Y-6400800D02*
G01X2292139Y-6400800D01*
G01X2051261Y-6400800D02*
G01X1968500Y-6400800D01*
G01X1968500Y-7035800D02*
G01X2040966Y-7035800D01*
G01X2302434Y-7035800D02*
G01X2319528Y-7035800D01*
G01X2531872Y-7035800D02*
G01X2573528Y-7035800D01*
G01X2785872Y-7035800D02*
G01X2857500Y-7035800D01*
G01X1968503Y-6845300D02*
G03X2095503Y-6718300I0J127000D01*
G01X2095503Y-6718300D02*
G03X1968503Y-6591300I-127000J0D01*
G54D13*
G01X1609148Y-8754052D02*
G01X1609148Y-7992052D01*
G01X1609148Y-7992052D02*
G01X2625148Y-7992052D01*
G01X2625148Y-7992052D02*
G01X2625148Y-8754052D01*
G01X2625148Y-8754052D02*
G01X1609148Y-8754052D01*
G01X1609148Y-8652452D02*
G01X2625148Y-8652452D01*
G01X2726748Y-8754052D02*
G01X2726748Y-7992052D01*
G01X2726748Y-7992052D02*
G01X3742748Y-7992052D01*
G01X3742748Y-7992052D02*
G01X3742748Y-8754052D01*
G01X3742748Y-8754052D02*
G01X2726748Y-8754052D01*
G01X2726748Y-8652452D02*
G01X3742748Y-8652452D01*
G01X3844348Y-8754052D02*
G01X3844348Y-7992052D01*
G01X3844348Y-7992052D02*
G01X4860348Y-7992052D01*
G01X4860348Y-7992052D02*
G01X4860348Y-8754052D01*
G01X4860348Y-8754052D02*
G01X3844348Y-8754052D01*
G01X3844348Y-8652452D02*
G01X4860348Y-8652452D01*
G01X4961948Y-8754052D02*
G01X4961948Y-7992052D01*
G01X4961948Y-7992052D02*
G01X5977948Y-7992052D01*
G01X5977948Y-7992052D02*
G01X5977948Y-8754052D01*
G01X5977948Y-8754052D02*
G01X4961948Y-8754052D01*
G01X4961948Y-8652452D02*
G01X5977948Y-8652452D01*
G01X1041400Y-2095500D02*
G01X279400Y-2095500D01*
G01X279400Y-2095500D02*
G01X279400Y-1079500D01*
G01X279400Y-1079500D02*
G01X1041400Y-1079500D01*
G01X1041400Y-1079500D02*
G01X1041400Y-2095500D01*
G01X939800Y-2095500D02*
G01X939800Y-1079500D01*
G01X3619500Y-390500D02*
G01X3619500Y-2778100D01*
G01X3619500Y-390500D02*
G01X2628900Y-390500D01*
G01X3619500Y-2778100D02*
G01X2628900Y-2778100D01*
G01X2628900Y-390500D02*
G01X2628900Y-2778100D01*
G01X3594100Y-390500D02*
G01X3594100Y-1000100D01*
G01X3594100Y-1000100D02*
G01X2654300Y-1000100D01*
G01X2654300Y-1000100D02*
G01X2654300Y-390500D01*
G01X3594100Y-2778100D02*
G01X3594100Y-2168500D01*
G01X3594100Y-2168500D02*
G01X2654300Y-2168500D01*
G01X2654300Y-2168500D02*
G01X2654300Y-2778100D01*
G01X3594100Y-1025500D02*
G01X3441700Y-1025500D01*
G01X3441700Y-1025500D02*
G01X3441700Y-2143100D01*
G01X3441700Y-2143100D02*
G01X3594100Y-2143100D01*
G01X3594100Y-2143100D02*
G01X3594100Y-1025500D01*
G01X2806700Y-1025500D02*
G01X2654300Y-1025500D01*
G01X2654300Y-1025500D02*
G01X2654300Y-2143100D01*
G01X2654300Y-2143100D02*
G01X2806700Y-2143100D01*
G01X2806700Y-2143100D02*
G01X2806700Y-1025500D01*
G01X3441700Y-1025500D02*
G01X3441700Y-390500D01*
G01X2806700Y-1050900D02*
G01X2806700Y-390500D01*
G01X2806700Y-2143100D02*
G01X2806700Y-2778100D01*
G01X3441700Y-2117700D02*
G01X3441700Y-2778100D01*
G01X3441700Y-746100D02*
G01X2832100Y-746100D01*
G01X3441700Y-2422500D02*
G01X2806700Y-2422500D01*
G01X3594100Y-974700D02*
G01X3594100Y-2244700D01*
G01X2654300Y-2193900D02*
G01X2654300Y-898500D01*
G01X6275796Y-3582101D02*
G01X6273797Y-5868106D01*
G01X6525796Y-3582101D02*
G01X6525796Y-5868101D01*
G01X6523797Y-5868106D02*
G01X6273797Y-5868106D01*
G01X6525796Y-3838905D02*
G01X6275799Y-3838905D01*
G01X6275799Y-3582101D02*
G01X6525796Y-3582101D01*
G01X1867136Y-7660096D02*
G01X2367135Y-7660099D01*
G01X2367135Y-7912100D02*
G01X1867136Y-7912100D01*
G01X2367135Y-7660099D02*
G01X2367135Y-7683500D01*
G01X2367135Y-7912100D02*
G01X2367135Y-7886700D01*
G01X1867136Y-7660096D02*
G01X1867136Y-7683500D01*
G01X1867136Y-7912100D02*
G01X1867136Y-7886700D01*
G01X2984736Y-7660096D02*
G01X3484735Y-7660099D01*
G01X3484735Y-7912100D02*
G01X2984736Y-7912100D01*
G01X3484735Y-7660099D02*
G01X3484735Y-7683500D01*
G01X3484735Y-7912100D02*
G01X3484735Y-7886700D01*
G01X2984736Y-7660096D02*
G01X2984736Y-7683500D01*
G01X2984736Y-7912100D02*
G01X2984736Y-7886700D01*
G01X4102336Y-7660096D02*
G01X4602335Y-7660099D01*
G01X4602335Y-7912100D02*
G01X4102336Y-7912100D01*
G01X4602335Y-7660099D02*
G01X4602335Y-7683500D01*
G01X4602335Y-7912100D02*
G01X4602335Y-7886700D01*
G01X4102336Y-7660096D02*
G01X4102336Y-7683500D01*
G01X4102336Y-7912100D02*
G01X4102336Y-7886700D01*
G01X5219936Y-7660096D02*
G01X5719935Y-7660099D01*
G01X5719935Y-7912100D02*
G01X5219936Y-7912100D01*
G01X5719935Y-7660099D02*
G01X5719935Y-7683500D01*
G01X5719935Y-7912100D02*
G01X5719935Y-7886700D01*
G01X5219936Y-7660096D02*
G01X5219936Y-7683500D01*
G01X5219936Y-7912100D02*
G01X5219936Y-7886700D01*
G01X2879700Y-5945200D02*
G01X3379699Y-5945200D01*
G01X3379699Y-5945200D02*
G01X3379699Y-6145200D01*
G01X3379699Y-6145200D02*
G01X2879700Y-6145200D01*
G01X2879700Y-6145200D02*
G01X2879700Y-5945200D01*
G01X2818667Y-6045200D02*
G01X2879700Y-6045200D01*
G01X3379699Y-6045200D02*
G01X3443448Y-6045200D01*
G36*
G01X7207799Y-3066499D02*
G01X7207799Y-3186499D01*
G01X7237799Y-3186499D01*
G01X7237799Y-3066499D01*
G01X7207799Y-3066499D01*
G37*
G36*
G01X7162800Y-3111500D02*
G01X7162800Y-3141500D01*
G01X7282800Y-3141500D01*
G01X7282800Y-3111500D01*
G01X7162800Y-3111500D01*
G37*
G36*
G01X7264400Y-3441700D02*
G02X6908800Y-3441700I-177800J200018D01*
G01X7086600Y-3441700D01*
G01X7264400Y-3441700D01*
G37*
G01X6049188Y-3011896D02*
G01X6549187Y-3011899D01*
G01X6549187Y-3263900D02*
G01X6049188Y-3263900D01*
G01X6549187Y-3011899D02*
G01X6549187Y-3035300D01*
G01X6549187Y-3263900D02*
G01X6549187Y-3238500D01*
G01X6049188Y-3011896D02*
G01X6049188Y-3035300D01*
G01X6049188Y-3263900D02*
G01X6049188Y-3238500D01*
G01X3543000Y-6895074D02*
G01X3823000Y-6895074D01*
G01X3543000Y-6990999D02*
G01X3823000Y-6990999D01*
G01X3823000Y-6990999D02*
G01X3823000Y-6471001D01*
G01X3543000Y-6471001D02*
G01X3823000Y-6471001D01*
G01X3543000Y-6990999D02*
G01X3543000Y-6471001D01*
G01X1614500Y-6980999D02*
G01X1614500Y-6481000D01*
G01X1614500Y-6481000D02*
G01X1814500Y-6481000D01*
G01X1814500Y-6481000D02*
G01X1814500Y-6980999D01*
G01X1814500Y-6980999D02*
G01X1614500Y-6980999D01*
G01X1714500Y-7042032D02*
G01X1714500Y-6980999D01*
G01X1714500Y-6481000D02*
G01X1714500Y-6417252D01*
G54D17*
G01X7532055Y-7478315D02*
G01X7532055Y-5977000D01*
G01X7466757Y-7478315D02*
G01X7466874Y-5977000D01*
G01X7301532Y-7478315D02*
G01X7301532Y-5976987D01*
G01X6789072Y-7478018D02*
G01X6791231Y-5976987D01*
G01X6549553Y-7478315D02*
G01X6549075Y-6970998D01*
G01X6308072Y-7478018D02*
G01X6308072Y-5977012D01*
G01X6308072Y-5977012D02*
G01X7532055Y-5977000D01*
G01X6308067Y-7478000D02*
G01X7532055Y-7478094D01*
G01X6308067Y-6971085D02*
G01X7532055Y-6971097D01*
G01X6308067Y-6464083D02*
G01X7532055Y-6464096D01*
G01X6549080Y-6977013D02*
G01X6549062Y-5977012D01*

G04 Rect Start*
G54D13*
G01X13800Y-3012300D02*
G01X4913800Y-3012300D01*
G01X4913800Y-3312300D01*
G01X13800Y-3312300D01*
G01X13800Y-3012300D01*
G01X13800Y-5298300D02*
G01X4913800Y-5298300D01*
G01X4913800Y-5598300D01*
G01X13800Y-5598300D01*
G01X13800Y-5298300D01*
G04 Rect End*

G04 Circle Start*
G01X162001Y-6779197D02*
G03X1361999Y-6779197I599999J0D01*
G03X162001Y-6779197I-599999J0D01*
G01X635000Y-6779197D02*
G03X889000Y-6779197I127000J0D01*
G03X635000Y-6779197I-127000J0D01*
G01X4015994Y-7411010D02*
G03X4116019Y-7411010I50013J0D01*
G03X4015994Y-7411010I-50013J0D01*
G54D18*
G01X1973900Y-7137400D02*
G03X2013900Y-7137400I20000J0D01*
G03X1973900Y-7137400I-20000J0D01*
G54D10*
G01X6818986Y-3238500D02*
G03X7354214Y-3238500I267614J0D01*
G03X6818986Y-3238500I-267614J0D01*
G54D17*
G01X6849161Y-6731011D02*
G03X7248957Y-6731011I199898J0D01*
G03X6849161Y-6731011I-199898J0D01*
G01X6849161Y-6223011D02*
G03X7248957Y-6223011I199898J0D01*
G03X6849161Y-6223011I-199898J0D01*
G01X6849161Y-7217015D02*
G03X7248957Y-7217015I199898J0D01*
G03X6849161Y-7217015I-199898J0D01*
G04 Circle End*

M02*

